<!-- Generated by IcoMoon.io -->
<svg version="1.1" xmlns="http://www.w3.org/2000/svg" width="32" height="32" viewBox="0 0 32 32">
<title>addressBooks1</title>
<path fill="#b3b3b3" d="M1.227 10.909h4.364c1.309 0 1.309-2.182 0-2.182h-4.364c-1.309 0-1.382 2.182 0 2.182v0zM1.227 16.727h4.364c1.382 0 1.309-2.182 0-2.182h-4.364c-1.091 0-1.091 2.182 0 2.182v0zM5.736 20.364h-4.291c-1.382 0-1.382 2.182-0.218 2.182h4.364c1.382 0 1.382-2.182 0.145-2.182zM9.736 23.782l-0.145 0.291h2.109l0.073-0.145c1.236-1.964 3.345-3.127 5.673-3.2h0.509c2.327 0.073 4.436 1.236 5.673 3.2l0.073 0.145h2.109l-0.145-0.291c-0.436-0.945-1.091-1.818-1.964-2.545-0.727-0.655-1.527-1.164-2.4-1.527 0.873-0.509 1.6-1.236 2.109-2.109 0.582-1.018 0.945-2.109 0.945-3.273-0.145-3.709-3.2-6.545-6.909-6.473-3.491 0.145-6.327 2.909-6.473 6.473 0 1.164 0.364 2.327 0.945 3.273 0.509 0.873 1.236 1.6 2.109 2.109-0.873 0.364-1.673 0.945-2.4 1.527-0.8 0.655-1.455 1.527-1.891 2.545v0zM17.663 9.745c2.545 0.073 4.509 2.182 4.436 4.727s-2.182 4.509-4.727 4.436c-2.473-0.073-4.436-2.109-4.436-4.582 0.073-2.618 2.182-4.655 4.727-4.582v0zM28.209 0c0 0-21.673 0-21.891 0-1.964 0.073-3.564 1.673-3.636 3.636v2.182h2.182v-2.182c0-1.164 0.364-1.455 1.455-1.455h21.818c1.164 0 1.455 0.436 1.455 1.455v24.727c0.073 0.727-0.364 1.382-1.091 1.455-0.145 0-0.291 0-0.364 0h-21.818c-0.727 0.073-1.382-0.436-1.455-1.164 0-0.073 0-0.218 0-0.291v-2.182h-2.182v2.182c-0.073 1.891 1.382 3.564 3.345 3.636 0.073 0 0.218 0 0.291 0h21.818c2.4 0 3.636-1.309 3.636-3.636v-24.727c0.145-1.891-1.309-3.491-3.2-3.636-0.145 0-0.291 0-0.364 0v0z"></path>
</svg>
