<!-- Generated by IcoMoon.io -->
<svg version="1.1" xmlns="http://www.w3.org/2000/svg" width="32" height="32" viewBox="0 0 32 32">
<title>addressBooks2</title>
<path d="M15.962 9.745c-2.545-0.073-4.655 2.036-4.727 4.582 0 2.473 1.964 4.509 4.436 4.582 2.545 0.073 4.655-1.891 4.727-4.436s-1.891-4.582-4.436-4.727z"></path>
<path d="M27.308 0c-0.145 0-0.218 0-0.364 0 0 0-21.673 0-21.891 0-1.964 0.073-3.564 1.673-3.636 3.636v5.091h2.618c1.309 0 1.309 2.182 0 2.182h-2.545v3.636h2.4c1.309 0 1.382 2.182 0 2.182h-2.4v3.636h2.4c1.309 0 1.382 2.182 0 2.182h-2.4v5.818c-0.073 1.891 1.382 3.564 3.345 3.636 0.073 0 0.218 0 0.291 0h21.818c2.4 0 3.636-1.309 3.636-3.636v-24.727c0.073-1.891-1.382-3.491-3.273-3.636zM21.926 24.073l-0.073-0.073c-1.236-1.964-3.345-3.127-5.673-3.2h-0.509c-2.327 0.073-4.436 1.236-5.673 3.2l-0.073 0.145h-1.964l0.145-0.291c0.436-1.018 1.091-1.818 1.964-2.545 0.727-0.582 1.527-1.164 2.4-1.527-0.873-0.509-1.6-1.236-2.109-2.109-0.582-1.018-0.945-2.109-0.945-3.273 0.145-3.491 2.909-6.327 6.473-6.473 3.709-0.145 6.764 2.764 6.909 6.473 0 1.164-0.291 2.327-0.945 3.273-0.509 0.873-1.236 1.527-2.109 2.109 0.873 0.364 1.673 0.945 2.4 1.527 0.8 0.727 1.455 1.527 1.964 2.545l0.145 0.291h-2.327z"></path>
</svg>
