<!-- Generated by IcoMoon.io -->
<svg version="1.1" xmlns="http://www.w3.org/2000/svg" width="32" height="32" viewBox="0 0 32 32">
<title>application2</title>
<path d="M31.501 7.258l-6.851-6.784c-0.599-0.599-1.663-0.665-2.261 0 0 0 0 0 0 0l-6.784 6.784c-0.599 0.599-0.599 1.663 0 2.261l6.851 6.851c0.599 0.599 1.663 0.599 2.261 0l6.851-6.851c0.532-0.599 0.532-1.596-0.067-2.261zM11.548 18.631h-9.71c-0.998 0-1.796 0.798-1.796 1.796v9.777c0 0.931 0.798 1.729 1.796 1.729h9.777c0.998 0 1.796-0.798 1.796-1.796v-9.71c-0.066-0.998-0.865-1.796-1.862-1.796zM11.548 2.669h-9.71c-0.998 0-1.796 0.798-1.796 1.796v9.777c0 0.931 0.798 1.729 1.796 1.729 0 0 0 0 0 0h9.777c0.998 0 1.796-0.798 1.796-1.796 0 0 0 0 0 0v-9.71c-0.066-0.998-0.865-1.796-1.862-1.796zM27.51 18.631h-9.71c-0.998 0-1.796 0.798-1.796 1.796v9.777c0 0.998 0.798 1.796 1.796 1.796h9.777c0.998 0 1.796-0.798 1.796-1.796 0 0 0 0 0 0v-9.777c-0.067-0.998-0.865-1.796-1.862-1.796 0 0 0 0 0 0zM17.8 30.138v0z"></path>
</svg>
