<!-- Generated by IcoMoon.io -->
<svg version="1.1" xmlns="http://www.w3.org/2000/svg" width="32" height="32" viewBox="0 0 32 32">
<title>arrow</title>
<path fill="#b2b2b2" d="M6.663 2.292l15.69 13.711-15.69 13.712c-0.251 0.238-0.406 0.574-0.406 0.946s0.156 0.708 0.406 0.945l0.001 0.001c0.259 0.244 0.609 0.394 0.994 0.394s0.735-0.15 0.994-0.395l-0.001 0.001 16.69-14.592c0.25-0.264 0.403-0.621 0.403-1.014s-0.153-0.75-0.404-1.015l0.001 0.001-16.69-14.592c-0.259-0.244-0.609-0.393-0.994-0.393s-0.735 0.15-0.994 0.394l0.001-0.001c-0.251 0.238-0.406 0.574-0.406 0.946s0.156 0.708 0.406 0.945l0.001 0.001z"></path>
</svg>
