<!-- Generated by IcoMoon.io -->
<svg version="1.1" xmlns="http://www.w3.org/2000/svg" width="32" height="32" viewBox="0 0 32 32">
<title>backPlayer</title>
<path d="M26.61 4.697c-6.29-6.105-16.28-6.29-22.755-0.37l-1.973-1.912c-0.185-0.247-0.555-0.308-0.802-0.185-0.308 0.123-0.493 0.37-0.493 0.678v5.488c0 0.432 0.37 0.74 0.74 0.74 0 0 0 0 0 0h5.612c0.308 0 0.617-0.185 0.74-0.493s0.062-0.617-0.185-0.802l-1.912-1.85c5.488-4.933 14.553-4.81 19.857 0.37 5.427 5.303 4.872 14.553-0.555 19.857-5.488 5.303-14.245 5.303-19.734 0-0.493-0.493-1.233-1.048-1.727-0.555-0.493 0.432-0.493 1.233 0 1.665 0 0 0 0 0 0 6.475 6.228 16.712 6.228 23.187 0 6.29-6.105 6.413-16.095 0.308-22.385-0.062 0-0.185-0.123-0.308-0.247v0 0z"></path>
<path d="M22.725 15.489c-0.123-0.185-0.247-0.37-0.493-0.493l-9.127-5.118c-0.37-0.185-0.863-0.185-1.233 0s-0.617 0.617-0.617 1.048v10.298c0 0.432 0.247 0.802 0.617 1.048 0.185 0.123 0.432 0.185 0.617 0.185s0.432-0.062 0.617-0.185v0l9.127-5.18c0.617-0.308 0.802-1.048 0.493-1.603zM13.413 19.682v-7.277l6.598 3.638-6.598 3.638z"></path>
</svg>
