<!-- Generated by IcoMoon.io -->
<svg version="1.1" xmlns="http://www.w3.org/2000/svg" width="32" height="32" viewBox="0 0 32 32">
<title>bm</title>
<path fill="#98a3ff" d="M16 32c-8.837 0-16-7.163-16-16s7.163-16 16-16c8.837 0 16 7.163 16 16v0c0 8.837-7.163 16-16 16v0zM22.4 9.915c-0.004-0.677-0.551-1.224-1.227-1.229h-10.346c-0.677 0.005-1.224 0.552-1.227 1.228v12.171c0.004 0.677 0.551 1.224 1.227 1.229h10.053c0.162 0 0.293-0.131 0.293-0.293s-0.131-0.293-0.293-0.293v0h-10.053c-0.004 0-0.009 0-0.014 0-0.332 0-0.601-0.269-0.601-0.601 0-0.005 0-0.009 0-0.014v0.001-12.2c0-0.004 0-0.009 0-0.013 0-0.332 0.269-0.601 0.601-0.601 0.005 0 0.010 0 0.015 0h10.344c0.004 0 0.009 0 0.013 0 0.331 0 0.599 0.268 0.599 0.599 0 0.005 0 0.011 0 0.016v-0.001 13.107c0.001 0.161 0.131 0.292 0.292 0.293v0c0.001 0 0.002 0 0.003 0 0.167 0 0.304-0.128 0.319-0.291v-13.108zM19.653 19.979h-2.425c-0.162 0-0.293 0.131-0.293 0.293s0.131 0.293 0.293 0.293v0h2.425c0.005 0 0.011 0.001 0.017 0.001 0.152 0 0.276-0.124 0.276-0.276 0-0.006 0-0.012-0.001-0.018v0.001c0-0.162-0.131-0.292-0.293-0.293v0zM19.945 18.75c0-0.162-0.131-0.292-0.293-0.293h-2.425c-0.157 0.011-0.282 0.136-0.293 0.292v0.001c0 0.162 0.131 0.292 0.293 0.293h2.425c0.162 0 0.292-0.131 0.293-0.293v0zM15.707 14.771h-2.455c-0.679 0-1.229 0.55-1.229 1.229s0.55 1.229 1.229 1.229v0h2.425c0.677-0.005 1.224-0.552 1.227-1.228v0c0-0.005 0-0.011 0-0.017 0-0.664-0.535-1.204-1.197-1.211h-0.001zM16 12.665c-0.001-0.839-0.681-1.519-1.52-1.519s-1.52 0.681-1.52 1.52 0.681 1.52 1.52 1.52v0c0.838-0.005 1.516-0.683 1.52-1.521v0zM14.48 13.542c-0.001 0-0.001 0-0.002 0-0.501 0-0.907-0.406-0.907-0.907s0.406-0.907 0.907-0.907c0.501 0 0.907 0.406 0.907 0.907v0c-0.002 0.499-0.406 0.904-0.905 0.907v0zM15.707 16.614h-2.425c-0.339 0-0.614-0.275-0.614-0.614s0.275-0.614 0.614-0.614h2.425c0.334 0.012 0.602 0.28 0.615 0.613v0.001c0 0.004 0 0.010 0 0.015 0 0.331-0.269 0.6-0.6 0.6-0.005 0-0.011 0-0.016 0h0.001z"></path>
</svg>
