<!-- Generated by IcoMoon.io -->
<svg version="1.1" xmlns="http://www.w3.org/2000/svg" width="32" height="32" viewBox="0 0 32 32">
<title>bms</title>
<path fill="#98a3ff" d="M16 0v0c-8.837 0-16 7.163-16 16v0c0 8.837 7.163 16 16 16s16-7.163 16-16c0-8.837-7.163-16-16-16zM23.744 14.962c-0.056 0.134-0.186 0.226-0.338 0.226 0 0 0 0 0 0v0-0.005c-0.001 0-0.002 0-0.004 0-0.099 0-0.188-0.040-0.252-0.105v0l-6.839-6.005c-0.080-0.078-0.191-0.127-0.312-0.127s-0.232 0.048-0.312 0.127v0l-6.837 6.005c-0.065 0.067-0.156 0.108-0.257 0.108s-0.192-0.041-0.257-0.108v0c-0.066-0.067-0.107-0.159-0.107-0.261s0.040-0.192 0.105-0.258v0l6.841-6.002c0.213-0.207 0.503-0.334 0.824-0.334s0.611 0.127 0.824 0.335v0l6.841 6.002c0.067 0.067 0.108 0.159 0.108 0.261 0 0.051-0.010 0.1-0.029 0.144l0.001-0.002zM15.986 14.171c0.999 0.020 1.806 0.818 1.84 1.812v0.702h0.457c0.379 0 0.686 0.307 0.686 0.686v0 2.517c0 0.379-0.307 0.686-0.686 0.686v0h-4.569c-0.379 0-0.686-0.307-0.686-0.686v0-2.517c0-0.379 0.307-0.686 0.686-0.686v0h0.457v-0.704c0-0.005 0-0.010 0-0.015 0-0.991 0.804-1.795 1.795-1.795 0.007 0 0.014 0 0.021 0h-0.001zM17.369 15.986c-0.036-0.744-0.637-1.336-1.381-1.358h-0.002c-0.005 0-0.010 0-0.016 0-0.741 0-1.342 0.601-1.342 1.342 0 0.004 0 0.008 0 0.012v-0.001 0.704h2.741v-0.699zM13.486 17.371v2.517c0 0.126 0.102 0.229 0.229 0.229v0h4.569c0.126 0 0.229-0.102 0.229-0.229v0-2.517c0-0.126-0.102-0.229-0.229-0.229v0h-3.849c-0.010 0.002-0.022 0.003-0.034 0.003s-0.024-0.001-0.035-0.004h-0.65c-0.126 0-0.229 0.102-0.229 0.229v0zM16 18.066c0.122 0.001 0.221 0.098 0.226 0.219v0.688c0.001 0.006 0.001 0.014 0.001 0.022 0 0.126-0.102 0.229-0.229 0.229s-0.229-0.102-0.229-0.229c0-0.008 0-0.017 0.001-0.025v0.001-0.686c0.005-0.122 0.105-0.219 0.228-0.219 0 0 0 0 0 0v0zM10.469 15.237c0.201 0.001 0.363 0.165 0.363 0.366 0 0.001 0 0.002 0 0.002v0 6.798c0 0 0 0 0 0 0 0.347 0.28 0.629 0.626 0.633h9.091c0.346-0.004 0.624-0.285 0.624-0.631 0-0.001 0-0.001 0-0.002v0-6.798c0-0.201 0.163-0.363 0.363-0.363s0.363 0.163 0.363 0.363v0 6.798c0 0.002 0 0.004 0 0.006 0 0.749-0.603 1.356-1.35 1.363h-9.091c-0.749-0.006-1.353-0.614-1.353-1.364 0-0.002 0-0.004 0-0.006v0-6.798c0-0.001 0-0.002 0-0.002 0-0.201 0.162-0.364 0.363-0.366v0z"></path>
</svg>
