<!-- Generated by IcoMoon.io -->
<svg version="1.1" xmlns="http://www.w3.org/2000/svg" width="32" height="32" viewBox="0 0 32 32">
<title>cjcx</title>
<path fill="#edc917" d="M32 30.803c-0.002 0.37-0.154 0.704-0.397 0.945v0c-0.248 0.248-0.132-0.063-0.49-0.063-0.372-0.001-0.708-0.153-0.95-0.397v0l-5.72-5.68c-2.563 2.126-6.325 3.859-9.919 3.859-8.037-0.075-14.523-6.607-14.523-14.654 0-8.094 6.561-14.655 14.655-14.655s14.655 6.561 14.655 14.655v0c0 0.001 0 0.002 0 0.002 0 3.579-1.296 6.855-3.445 9.385l0.017-0.021 5.72 5.68c0.244 0.241 0.395 0.575 0.397 0.944v0zM26.81 14.846c0-6.84-5.545-12.385-12.385-12.385s-12.385 5.545-12.385 12.385c0 6.84 5.545 12.385 12.385 12.385v0c6.838-0.005 12.38-5.547 12.385-12.384v-0.001zM17.547 17.623h-4.937l-1.141 3.497h-1.688l4.51-12.765h1.636l4.516 12.765h-1.688zM15.283 10.872c-0.077-0.25-0.141-0.55-0.181-0.858l-0.003-0.029h-0.040c-0.044 0.336-0.111 0.636-0.201 0.926l0.010-0.039-1.774 5.311h3.975z"></path>
</svg>
