<!-- Generated by IcoMoon.io -->
<svg version="1.1" xmlns="http://www.w3.org/2000/svg" width="32" height="32" viewBox="0 0 32 32">
<title>cover</title>
<path d="M21.429 11.966l8.588-8.558-0.031 4.849c-0.012 0.404 0.316 0.757 0.716 0.746h0.512c0.404-0.012 0.744-0.248 0.748-0.656l0.020-7.222c0-0.006 0.015-0.385 0.015-0.385 0.006-0.201-0.040-0.384-0.171-0.516-0.132-0.129-0.31-0.212-0.516-0.206l-0.369 0.007c-0.004 0-0.010 0-0.014 0.005l-7.161-0.030c-0.403 0.012-0.744 0.344-0.748 0.752v0.514c0.060 0.48 0.438 0.757 0.843 0.746l4.718 0.012-8.564 8.529c-0.392 0.391-0.392 1.025 0 1.414 0.391 0.396 1.023 0.396 1.412 0v0zM10.605 20.034l-8.593 8.532 0.030-4.828c0.012-0.403-0.314-0.758-0.715-0.745h-0.545c-0.403 0.012-0.741 0.248-0.745 0.656l-0.025 7.229c0 0.005-0.012 0.382-0.012 0.382-0.004 0.204 0.041 0.388 0.173 0.516 0.129 0.131 0.307 0.212 0.515 0.206l0.364-0.005c0.006 0 0.014 0 0.019-0.004l7.192 0.028c0.402-0.013 0.739-0.342 0.747-0.751v-0.515c-0.060-0.479-0.439-0.756-0.841-0.746l-4.72-0.010 8.557-8.53c0.39-0.39 0.39-1.023 0-1.415-0.384-0.398-1.011-0.398-1.402 0v0zM31.986 30.877l-0.018-7.229c-0.010-0.403-0.345-0.644-0.745-0.656h-0.516c-0.403-0.013-0.722 0.342-0.716 0.745l0.031 4.85-8.594-8.553c-0.392-0.389-1.023-0.389-1.412 0-0.392 0.392-0.392 1.025 0 1.415l8.558 8.53-4.721 0.010c-0.4-0.010-0.775 0.272-0.84 0.746v0.515c0.010 0.403 0.346 0.738 0.745 0.751l7.164-0.028c0.006 0 0.011 0.004 0.016 0.004l0.366 0.005c0.204 0.005 0.388-0.070 0.517-0.206 0.129-0.128 0.175-0.312 0.171-0.516 0 0-0.009-0.377-0.009-0.382h0.003zM3.456 2.023l4.718-0.012c0.404 0.012 0.776-0.272 0.84-0.746v-0.514c-0.012-0.403-0.342-0.74-0.744-0.752l-7.198 0.030c-0.004 0-0.012-0.007-0.018-0.007l-0.365-0.005c-0.204-0.006-0.386 0.071-0.515 0.207-0.132 0.131-0.178 0.314-0.172 0.516 0 0 0.012 0.378 0.012 0.384l0.018 7.228c0.007 0.402 0.344 0.644 0.745 0.657h0.545c0.402 0.011 0.722-0.345 0.715-0.746l-0.023-4.827 8.588 8.536c0.389 0.389 1.022 0.389 1.414 0 0.388-0.392 0.388-1.025 0-1.414l-8.559-8.536z"></path>
</svg>
