<!-- Generated by IcoMoon.io -->
<svg version="1.1" xmlns="http://www.w3.org/2000/svg" width="32" height="32" viewBox="0 0 32 32">
<title>dataCenter</title>
<path fill="#fff" d="M16 0c-8.827 0-16 7.173-16 16s7.173 16 16 16 16-7.173 16-16-7.173-16-16-16zM16.267 31.2h-0.533c-8.24 0-14.933-6.693-14.933-14.933v-0.533c0-8.24 6.693-14.933 14.933-14.933h0.533c8.24 0 14.933 6.693 14.933 14.933v0.533c0 8.24-6.693 14.933-14.933 14.933z"></path>
<path fill="#fff" d="M24.32 11.013c-0.24-0.213-0.613 0.107-0.8 0.347l-6 7.787-5.36-4.24-0.427-0.347-0.347 0.4-3.893 4.373c-0.213 0.24-0.453 0.613-0.213 0.827 0.213 0.213 0.587 0.213 0.8-0.027 0 0 0 0 0.027-0.027l3.76-4.213 5.387 4.267 0.453 0.373 0.347-0.453 6.347-8.24c0.213-0.267 0.16-0.64-0.080-0.827z"></path>
</svg>
