<!-- Generated by IcoMoon.io -->
<svg version="1.1" xmlns="http://www.w3.org/2000/svg" width="32" height="32" viewBox="0 0 32 32">
<title>decisionComd</title>
<path fill="#fff" d="M15.75 0.25c-8.689 0-15.75 7.061-15.75 15.75s7.061 15.75 15.75 15.75 15.75-7.061 15.75-15.75-7.061-15.75-15.75-15.75zM16.012 30.963h-0.525c-8.111 0-14.7-6.589-14.7-14.7v-0.525c0-8.111 6.589-14.7 14.7-14.7h0.525c8.111 0 14.7 6.589 14.7 14.7v0.525c0 8.111-6.589 14.7-14.7 14.7z"></path>
<path fill="#fff" d="M11.392 15.213c-0.026 0-0.079 0-0.105 0h-4.463c-0.63 0.026-0.761 0.787 0 0.787h1.837v6.825c0.262 0.735 0.709 0.21 0.787 0v-6.825h1.838c0.21 0.026 0.42-0.131 0.446-0.341s-0.131-0.42-0.341-0.446z"></path>
<path fill="#fff" d="M11.287 12.587h-1.838v-3.413c-0.079-0.21-0.367-1.181-0.787 0v3.413h-1.838c-0.709 0-0.709 0.814 0 0.787h4.463c0.499 0.026 0.761-0.787 0-0.787z"></path>
<path fill="#fff" d="M17.955 19.675c-0.026 0-0.079 0-0.105 0h-4.463c-0.63 0.026-0.761 0.788 0 0.788h1.838v2.363c0.262 0.735 0.709 0.21 0.787 0v-2.363h1.837c0.21 0.026 0.42-0.131 0.446-0.341s-0.131-0.42-0.341-0.446z"></path>
<path fill="#fff" d="M17.85 17.050h-1.837v-7.875c-0.079-0.21-0.367-1.181-0.787 0v7.875h-1.838c-0.709 0-0.709 0.814 0 0.788h4.463c0.499 0.026 0.761-0.788 0-0.788z"></path>
<path fill="#fff" d="M24.518 13.375c-0.026 0-0.079 0-0.105 0h-4.463c-0.63 0.026-0.761 0.787 0 0.787h1.837v8.663c0.262 0.735 0.709 0.21 0.788 0v-8.663h1.837c0.21 0.026 0.42-0.131 0.446-0.341s-0.131-0.42-0.341-0.446z"></path>
<path fill="#fff" d="M24.413 10.75h-1.837v-1.575c-0.079-0.21-0.367-1.181-0.788 0v1.575h-1.837c-0.709 0-0.709 0.814 0 0.787h4.463c0.499 0.026 0.761-0.787 0-0.787z"></path>
</svg>
