<!-- Generated by IcoMoon.io -->
<svg version="1.1" xmlns="http://www.w3.org/2000/svg" width="32" height="32" viewBox="0 0 32 32">
<title>dp1</title>
<path d="M16 32l-0.34-0.132c-10.911-4.217-12.173-9.73-12.173-13.509v-14.435l0.974 0.033c7.584 0.258 10.814-3.165 10.844-3.198l0.695-0.76 0.694 0.76c0.026 0.027 3.086 3.212 10.034 3.212 0 0 0 0 0.001 0 0.264 0 0.534-0.004 0.808-0.014l0.974-0.033v14.435c0 3.779-1.262 9.292-12.173 13.509l-0.34 0.132zM5.371 5.855v12.504c0 2.033 0.001 7.399 10.629 11.62 10.629-4.221 10.629-9.587 10.629-11.62v-12.504c-5.886-0.023-9.272-2.117-10.629-3.199-1.358 1.081-4.745 3.174-10.629 3.199zM7.565 16.793l1.935-1.568 3.873 2.857c0 0 5.347-5.532 10.51-8.113l0.737 0.831c0 0-6.453 5.347-9.772 12.447l-7.284-6.454z"></path>
</svg>
