<!-- Generated by IcoMoon.io -->
<svg version="1.1" xmlns="http://www.w3.org/2000/svg" width="32" height="32" viewBox="0 0 32 32">
<title>editor</title>
<path fill="#fff" d="M24.427 13.227l-5.547-5.547c-0.213-0.213-0.64-0.213-0.96 0l-10.347 10.347c0 0 0 0 0 0.107s0 0.107 0 0.213v5.547c-0.107 0.427 0.107 0.64 0.533 0.64v0h5.547c0.107 0 0.107 0 0.213 0 0 0 0 0 0.107 0l10.347-10.347c0.32-0.32 0.32-0.747 0.107-0.96v0zM18.347 8.96l1.813 1.813-9.28 9.28-1.813-1.813 9.28-9.28zM8.747 23.36v0 0 0-3.307l3.413 3.413h-3.413v-0.107zM13.653 22.933v0l-1.813-1.813 9.28-9.28 1.813 1.813-9.28 9.28z"></path>
<path fill="#fff" d="M16 0c-8.853 0-16 7.147-16 16s7.147 16 16 16 16-7.147 16-16-7.147-16-16-16zM16 30.72c-8.107 0-14.72-6.613-14.72-14.72s6.613-14.72 14.72-14.72 14.72 6.613 14.72 14.72-6.613 14.72-14.72 14.72z"></path>
</svg>
