<!-- Generated by IcoMoon.io -->
<svg version="1.1" xmlns="http://www.w3.org/2000/svg" width="32" height="32" viewBox="0 0 32 32">
<title>ellipse</title>
<path d="M16.001 32c-8.837 0-16.001-7.163-16.001-16s7.164-16 16.001-16c8.837 0 15.999 7.163 15.999 16s-7.163 16-15.999 16zM24.585 14.829h-7.414v-7.415c0-0.647-0.524-1.171-1.171-1.171s-1.171 0.524-1.171 1.171v7.415h-7.415c-0.647 0-1.171 0.524-1.171 1.171s0.524 1.172 1.171 1.172h7.415v7.414c0 0.647 0.524 1.171 1.171 1.171s1.171-0.524 1.171-1.171v-7.414h7.414c0.648 0 1.172-0.524 1.172-1.172s-0.524-1.171-1.172-1.171z"></path>
</svg>
