<!-- Generated by IcoMoon.io -->
<svg version="1.1" xmlns="http://www.w3.org/2000/svg" width="32" height="32" viewBox="0 0 32 32">
<title>errors</title>
<path d="M15.909 21.99c-0.909 0-1.636 0.727-1.636 1.636s0.727 1.636 1.636 1.636 1.636-0.727 1.636-1.636-0.727-1.636-1.636-1.636z"></path>
<path d="M31.182 27.808c1.091-1.818 1.091-3.818 0-5.636l-10.182-17.818c-1.091-1.818-2.909-2.909-4.909-2.909s-3.818 1.091-4.909 2.909l-10.364 17.818c-1.091 1.818-1.091 4 0 5.636 1.091 1.818 2.909 2.727 4.909 2.727h20.545c2 0.182 3.818-0.909 4.909-2.727zM28.818 26.536c-0.545 0.909-1.636 1.636-2.727 1.636h-20.545c-1.091 0-2.182-0.545-2.727-1.455s-0.545-2.182 0-3.091l10.364-17.818c0.545-0.909 1.636-1.636 2.727-1.636s2.182 0.545 2.727 1.636l10.182 17.818c0.727 0.727 0.727 2 0 2.909z"></path>
<path d="M15.545 10.536c-0.727 0.182-1.273 0.909-1.273 1.818 0 0.545 0 1.091 0.182 1.636 0.182 2 0.182 3.818 0.364 5.818 0 0.727 0.545 1.091 1.273 1.091s1.273-0.545 1.273-1.273v-1.273c0-1.273 0.182-2.545 0.182-3.818 0-0.909 0.182-1.636 0.182-2.545 0-0.364 0-0.545-0.182-0.909-0.364-0.364-1.273-0.727-2-0.545z"></path>
</svg>
