<!-- Generated by IcoMoon.io -->
<svg version="1.1" xmlns="http://www.w3.org/2000/svg" width="32" height="32" viewBox="0 0 32 32">
<title>error</title>
<path d="M16 32c-8.82 0-15.999-7.18-15.999-16s7.18-16 15.999-16c8.82 0 16 7.18 16 16s-7.18 16-16 16v0zM16 2c-7.72 0-14 6.28-14 14s6.28 14 14 14c7.72 0 14.001-6.28 14.001-14s-6.281-14-14.001-14v0zM16 21c-0.82 0-1.5 0.68-1.5 1.5s0.681 1.5 1.5 1.5c0.82 0 1.5-0.68 1.5-1.5s-0.68-1.5-1.5-1.5v0zM16 8c-0.68 0-1.239 0.56-1.239 1.24v9.5c0 0.7 0.559 1.26 1.239 1.26s1.241-0.56 1.241-1.24v-9.52c0.001-0.33-0.13-0.645-0.363-0.878s-0.549-0.364-0.878-0.362v0z"></path>
</svg>
