<!-- Generated by IcoMoon.io -->
<svg version="1.1" xmlns="http://www.w3.org/2000/svg" width="32" height="32" viewBox="0 0 32 32">
<title>escortSuccess</title>
<path d="M27.113 11.344l-4.152 0.069v-5.64c0-0.64-0.618-1.407-1.247-1.407h-20.572c-0.632 0.008-1.142 0.522-1.142 1.155 0 0.003 0 0.006 0 0.009v0 16.286c0 0.002 0 0.005 0 0.008 0 0.633 0.509 1.148 1.141 1.155h1.146c0 0.024-0.001 0.053-0.001 0.082 0 2.525 2.047 4.571 4.571 4.571s4.571-2.047 4.571-4.571c0-0.029 0-0.057-0.001-0.086v0.004h9.144c0 0.024-0.001 0.053-0.001 0.082 0 2.526 2.047 4.573 4.573 4.573s4.573-2.047 4.573-4.573c0-0.029 0-0.057-0.001-0.086v0.004h1.142c0.632-0.008 1.142-0.522 1.142-1.155 0-0.003 0-0.006 0-0.009v0-3.287c0-0.003 0-0.007 0-0.010 0-0.114-0.031-0.22-0.085-0.311l0.002 0.003-4.316-6.603c-0.101-0.158-0.275-0.261-0.473-0.261-0.005 0-0.010 0-0.015 0h0.001zM7.468 25.757c-0.168 0.034-0.361 0.054-0.559 0.054-1.604 0-2.904-1.3-2.904-2.904s1.3-2.904 2.904-2.904c1.604 0 2.904 1.3 2.904 2.904 0 0.199-0.020 0.394-0.058 0.582l0.003-0.019c-0.247 1.151-1.139 2.042-2.271 2.283l-0.019 0.003zM25.662 25.757c-0.165 0.033-0.354 0.052-0.548 0.052-1.602 0-2.9-1.299-2.9-2.9s1.299-2.9 2.9-2.9c1.602 0 2.9 1.299 2.9 2.9 0 0.199-0.020 0.393-0.058 0.58l0.003-0.019c-0.25 1.152-1.144 2.042-2.279 2.283l-0.019 0.003zM22.961 18.465v-4.934h3.48c0.196 0 0.189 0.228 0.276 0.403l3.203 4.533h-6.959z"></path>
</svg>
