<!-- Generated by IcoMoon.io -->
<svg version="1.1" xmlns="http://www.w3.org/2000/svg" width="32" height="32" viewBox="0 0 32 32">
<title>escort</title>
<path d="M24.217 7.528h-2.737v-2.050c0-0.004 0-0.008 0-0.012 0-1.126-0.913-2.038-2.038-2.038-0.023 0-0.045 0-0.068 0.001h-17.271c-0.019-0.001-0.042-0.001-0.065-0.001-1.126 0-2.038 0.913-2.038 2.038 0 0.004 0 0.009 0 0.013v-0.001 18.31c0 0.003 0 0.008 0 0.012 0 1.127 0.914 2.041 2.041 2.041 0.022 0 0.044 0 0.066-0.001h2.168c0.375 1.576 1.771 2.731 3.437 2.731s3.062-1.154 3.432-2.707l0.005-0.024h8.303c0.373 1.577 1.769 2.732 3.434 2.732s3.061-1.155 3.43-2.708l0.005-0.024h3.577c0.018 0.001 0.038 0.001 0.059 0.001 1.129 0 2.044-0.915 2.044-2.044 0-0.003 0-0.006 0-0.009v0-10.317c-0.012-0.446-0.227-0.839-0.557-1.091l-0.003-0.002-5.96-4.441c-0.349-0.256-0.787-0.41-1.261-0.41-0.001 0-0.001 0-0.002 0v0zM1.4 5.479c-0.001-0.010-0.001-0.021-0.001-0.033 0-0.362 0.293-0.655 0.655-0.655 0.017 0 0.034 0.001 0.051 0.002h17.272c0.015-0.001 0.032-0.002 0.049-0.002 0.362 0 0.655 0.293 0.655 0.655 0 0.011 0 0.023-0.001 0.034v-0.002 12.162h-18.68v-12.162zM7.714 27.206c-1.108-0.030-1.995-0.936-1.995-2.048 0-1.132 0.917-2.049 2.049-2.049 1.131 0 2.047 0.916 2.049 2.046v0c0 0.003 0 0.008 0 0.012 0 1.127-0.914 2.041-2.041 2.041-0.022 0-0.044 0-0.066-0.001h0.003zM22.886 27.206c-1.108-0.030-1.995-0.936-1.995-2.048 0-1.132 0.917-2.049 2.049-2.049s2.047 0.916 2.049 2.046v0c0 0.003 0 0.008 0 0.012 0 1.127-0.914 2.041-2.041 2.041-0.022 0-0.044 0-0.066-0.001h0.003zM30.594 23.789c0.001 0.010 0.001 0.022 0.001 0.034 0 0.361-0.293 0.654-0.654 0.654-0.016 0-0.031-0.001-0.046-0.002h-3.575c-0.37-1.58-1.767-2.738-3.434-2.738s-3.064 1.158-3.43 2.714l-0.005 0.024h-8.303c-0.372-1.579-1.77-2.736-3.437-2.736s-3.065 1.157-3.432 2.712l-0.005 0.024h-2.171c-0.014 0.001-0.031 0.002-0.048 0.002-0.362 0-0.655-0.293-0.655-0.655 0-0.011 0-0.023 0.001-0.034v0.002-4.783h29.194v4.783zM30.594 17.64h-9.114v-8.743h2.103c0.015 0 0.034-0.001 0.052-0.001 0.458 0 0.879 0.155 1.215 0.414l-0.005-0.003 5.189 3.894c0.334 0.253 0.551 0.647 0.56 1.092v3.349z"></path>
</svg>
