<!-- Generated by IcoMoon.io -->
<svg version="1.1" xmlns="http://www.w3.org/2000/svg" width="32" height="32" viewBox="0 0 32 32">
<title>examReport</title>
<path fill="#ffaa56" d="M5.013 28.914c-1.258-0.006-2.487-0.837-2.487-2.1v-20.15l0.011-0.079c0.012-0.136 0.077-0.254 0.173-0.336l0.001-0.001 7.158-6.108c0.086-0.073 0.197-0.118 0.32-0.118 0 0 0 0 0 0v0l0.107-0.006 0.034-0.017h12.554c1.258 0 2.442 0.837 2.442 2.094v10.476l-1.606-0.994-0.051-8.646c-0.030-0.678-0.569-1.222-1.243-1.257h-10.367v7.961h-5.39v-1.673h3.734v-6.288l-6.221 5.452v18.853c0.006 0.688 0.559 1.246 1.245 1.258h12.437v1.679h-12.851zM23.254 31.424v-10.892h3.318l-5.39-5.446-5.39 5.446h2.487v1.673h-4.974c-0.187-0.116-0.327-0.294-0.391-0.505l-0.002-0.006c-0.051-0.112-0.081-0.243-0.081-0.381 0-0.188 0.055-0.363 0.15-0.51l-0.002 0.004 7.484-7.49c0.177-0.177 0.421-0.286 0.691-0.286s0.514 0.109 0.691 0.286v0l7.45 7.49c0.112 0.148 0.179 0.334 0.179 0.537 0 0.122-0.025 0.239-0.069 0.345l0.002-0.006c-0.156 0.28-0.433 0.477-0.758 0.522l-0.005 0.001h-3.734v9.219c-0.758 1.297-1.656 0-1.656 0z"></path>
</svg>
