<!-- Generated by IcoMoon.io -->
<svg version="1.1" xmlns="http://www.w3.org/2000/svg" width="32" height="32" viewBox="0 0 32 32">
<title>fzcj</title>
<path fill="#3ece89" d="M32 13.181v1.247c-0.191 1.631-1.429 2.924-3.015 3.197l-0.022 0.003c-2.144 0.489-3.7-0.468-4.967-2.381-0.954 1.503-2.161 2.481-3.935 2.499-1.791 0.039-3.058-0.917-4.052-2.499-0.954 1.485-2.161 2.499-3.935 2.52-0.014 0-0.031 0-0.049 0-1.687 0-3.152-0.948-3.892-2.34l-0.012-0.024c-0.35 0.182-0.625 0.465-0.793 0.811l-0.005 0.011c-0.768 0.947-1.931 1.547-3.234 1.547-0.409 0-0.805-0.059-1.179-0.169l0.029 0.007c-1.56-0.302-2.751-1.568-2.939-3.141l-0.002-0.017v-1.25c0.349-2.206 1.285-4.22 2.044-6.288 0.237-0.809 0.972-1.39 1.843-1.39 0.050 0 0.1 0.002 0.15 0.006h23.971c0.047-0.004 0.102-0.007 0.157-0.007 0.868 0 1.6 0.583 1.826 1.378l0.003 0.013c0.741 2.064 1.656 4.077 2.005 6.265v0zM3.992 30.035c-0.61-0.345-1.015-0.989-1.015-1.728 0-0.045 0.002-0.090 0.005-0.135v0.006c0.039-2.97 0.039-5.491 0-8.44 0-0.607 0.078-0.939 0.797-0.799s0.82-0.197 1.661-0.275c0 2.149 0.039 6.274-0.018 8.381-0.018 0.799 0.214 0.954 0.976 0.954 6.039-0.039 13.201-0.039 19.236 0 0.758 0 0.994-0.157 0.976-0.954-0.056-2.088-0.018-6.175-0.018-8.381 0.915 0.118 1.173 0.389 2.031 0.275 0.487-0.079 0.409 0.292 0.409 0.568v9.064c0 0.721-0.505 1.092-0.993 1.464h-24.046zM27.499 1.965c0.701 0.468 1.228 0.492 0.936 1.391s-1.032 0.492-1.891 0.492c-7.032-0.018-14.043-0.018-21.076 0-0.876 0-1.599 0.387-1.891-0.492-0.313-0.917 0.235-0.924 0.936-1.391h22.984z"></path>
</svg>
