<!-- Generated by IcoMoon.io -->
<svg version="1.1" xmlns="http://www.w3.org/2000/svg" width="32" height="32" viewBox="0 0 32 32">
<title>goback</title>
<path fill="#fff" d="M25.024 2.287l-15.137 13.701 15.137 13.701c0.235 0.245 0.379 0.578 0.379 0.945 0 0.755-0.612 1.367-1.367 1.367-0.388 0-0.738-0.162-0.987-0.421v0l-16.077-14.573c-0.234-0.27-0.376-0.625-0.376-1.014s0.142-0.743 0.378-1.015l-0.002 0.002 16.077-14.573c0.248-0.25 0.592-0.405 0.971-0.405 0.755 0 1.367 0.612 1.367 1.367 0 0.359-0.138 0.686-0.365 0.93l0.001-0.001z"></path>
</svg>
