<!-- Generated by IcoMoon.io -->
<svg version="1.1" xmlns="http://www.w3.org/2000/svg" width="32" height="32" viewBox="0 0 32 32">
<title>gobackto</title>
<path d="M8.089 30.015h11.911v1.985h-11.911z"></path>
<path d="M18.015 8.179v-1.985c7.146 0 13.896 5.757 13.896 12.903s-5.757 12.903-12.903 12.903v-1.985c5.955 0 10.918-4.963 10.918-10.918s-5.955-10.918-11.911-10.918zM18.015 6.194c7.146 0 13.896 5.757 13.896 12.903s-5.757 12.903-12.903 12.903v-1.985c5.955 0 10.918-4.963 10.918-10.918s-5.955-10.918-11.911-10.918v-1.985zM2.134 6.194h15.881v1.985h-15.881z"></path>
<path d="M1.493 5.711l7.019 7.019-1.405 1.403-7.017-7.019z"></path>
<path d="M8.532 1.401l-7.019 7.015-1.403-1.401 7.017-7.015z"></path>
</svg>
