<!-- Generated by IcoMoon.io -->
<svg version="1.1" xmlns="http://www.w3.org/2000/svg" width="32" height="32" viewBox="0 0 32 32">
<title>gx</title>
<path fill="#6076fb" d="M25.937 21.361l-0.252 0.252c0.3 0.772 0.474 1.665 0.474 2.598 0 3.829-2.924 6.975-6.66 7.328l-0.029 0.002c-0.244 0.029-0.526 0.045-0.812 0.045-1.501 0-2.897-0.451-4.059-1.225l0.027 0.017-0.043-0.043c-0.199-0.148-0.333-0.372-0.359-0.629v-0.004c-0.003-0.029-0.005-0.062-0.005-0.096 0-0.251 0.098-0.479 0.258-0.648v0c0.557-0.535 0.981-1.205 1.218-1.958l0.009-0.033c-0.107 0.021-0.231 0.043-0.338 0.064-0.98 0.207-2.141 0.358-3.324 0.421l-0.057 0.002h-0.043l-0.043-0.018c-0.282-0.067-0.53-0.185-0.745-0.345l0.005 0.004-6.408-6.394c-0.144-0.192-0.232-0.434-0.235-0.696v-0.001c0.024-1.244 0.185-2.439 0.468-3.586l-0.023 0.111c-0.681 0.279-1.263 0.666-1.754 1.146l0.001-0.001c-0.204 0.154-0.46 0.248-0.739 0.252h-0.001c-0.257-0.040-0.479-0.171-0.635-0.358l-0.001-0.002-0.043-0.043c-0.776-1.158-1.238-2.583-1.238-4.116 0-4.122 3.342-7.464 7.464-7.464 0.867 0 1.7 0.148 2.474 0.42l-0.052-0.016 0.256-0.256c3.78-3.766 8.994-6.095 14.753-6.095 1.874 0 3.69 0.247 5.418 0.709l-0.146-0.033h0.021c0.325 0.082 0.572 0.344 0.632 0.67l0.001 0.005c1.778 7.222-0.317 14.886-5.434 20.010zM29.703 2.244c-1.259-0.295-2.704-0.464-4.189-0.464-5.285 0-10.069 2.143-13.531 5.606l-0.743 0.743c-0.175 0.184-0.422 0.299-0.696 0.299-0.106 0-0.207-0.017-0.303-0.049l0.007 0.002h-0.021c-0.675-0.305-1.463-0.482-2.293-0.482-1.553 0-2.96 0.621-3.988 1.628l0.001-0.001c-1.010 1.047-1.632 2.474-1.632 4.046 0 0.809 0.165 1.579 0.462 2.279l-0.014-0.038c0.924-0.651 2.038-1.096 3.244-1.245l0.035-0.004h0.039c0.025-0.002 0.054-0.004 0.084-0.004 0.248 0 0.473 0.098 0.638 0.257v0c0.149 0.14 0.242 0.339 0.242 0.559 0 0.12-0.027 0.233-0.077 0.335l0.002-0.005c-0.291 1.149-0.515 2.514-0.627 3.91l-0.006 0.090 5.836 5.825c1.663-0.2 3.141-0.49 4.578-0.88l-0.222 0.051h0.085c0.032-0.004 0.069-0.006 0.107-0.006 0.247 0 0.471 0.1 0.633 0.262v0c0.159 0.174 0.256 0.406 0.256 0.661 0 0.028-0.001 0.055-0.003 0.083v-0.004 0.043c-0.186 1.307-0.634 2.481-1.291 3.51l0.021-0.035c0.669 0.3 1.45 0.474 2.271 0.474 1.567 0 2.986-0.635 4.013-1.662v0c1.008-1 1.632-2.386 1.632-3.918 0-0.895-0.213-1.739-0.591-2.486l0.014 0.032v-0.043c-0.029-0.088-0.045-0.189-0.045-0.294 0-0.275 0.114-0.524 0.297-0.702v0l0.637-0.633c3.448-3.508 5.577-8.322 5.577-13.634 0-1.455-0.16-2.873-0.463-4.237l0.024 0.129zM17.861 14.288c-0.787-0.785-1.273-1.871-1.273-3.070 0-2.396 1.942-4.338 4.338-4.338s4.338 1.942 4.338 4.338c0 1.199-0.487 2.285-1.273 3.070v0c-0.785 0.782-1.869 1.266-3.065 1.266s-2.28-0.484-3.066-1.266v0zM22.47 9.63l-0.043-0.060c-0.397-0.396-0.946-0.641-1.551-0.641-1.021 0-1.879 0.696-2.126 1.639l-0.003 0.015c-0.042 0.162-0.066 0.348-0.066 0.539 0 0.64 0.27 1.216 0.702 1.622l0.001 0.001c0.388 0.375 0.917 0.606 1.5 0.606 0.604 0 1.151-0.248 1.543-0.648v0c0.401-0.398 0.649-0.949 0.649-1.558 0-0.588-0.231-1.121-0.607-1.515l0.001 0.001zM2.168 22.969c0.153-0.138 0.357-0.223 0.581-0.223 0.256 0 0.486 0.11 0.645 0.286l0.001 0.001c0.016 0.027 0.037 0.048 0.063 0.064h0.001c0.138 0.153 0.223 0.358 0.223 0.581 0 0.256-0.11 0.486-0.286 0.645l-0.001 0.001-1.839 1.842c-0.164 0.16-0.389 0.259-0.637 0.259-0.504 0-0.913-0.409-0.913-0.913 0-0.248 0.099-0.473 0.259-0.637v0l1.839-1.842zM4.874 25.807l0.064-0.064c0.153-0.138 0.357-0.223 0.581-0.223 0.256 0 0.486 0.11 0.645 0.286l0.065 0.065c0.138 0.153 0.223 0.358 0.223 0.581 0 0.256-0.11 0.486-0.286 0.645l-0.001 0.001-3.698 3.705c-0.166 0.17-0.397 0.276-0.654 0.276-0.504 0-0.913-0.409-0.913-0.913 0-0.256 0.105-0.488 0.275-0.653v0zM7.708 28.516c0.153-0.138 0.358-0.223 0.581-0.223 0.256 0 0.486 0.11 0.645 0.286l0.001 0.001c0.021 0.015 0.036 0.038 0.043 0.063v0.001c0.138 0.153 0.223 0.358 0.223 0.581 0 0.256-0.11 0.486-0.286 0.645l-0.001 0.001-1.903 1.906c-0.153 0.138-0.357 0.223-0.581 0.223-0.256 0-0.486-0.11-0.645-0.286l-0.001-0.001c-0.167-0.168-0.272-0.399-0.274-0.654v0c0.025-0.249 0.133-0.47 0.295-0.637v0z"></path>
</svg>
