<!-- Generated by IcoMoon.io -->
<svg version="1.1" xmlns="http://www.w3.org/2000/svg" width="34" height="32" viewBox="0 0 34 32">
<title>gz</title>
<path fill="#f66" d="M32.218 17.385l-0.062 0.074-10.292 10.862-2.042 2.142c-0.914 0.935-1.699 1.538-2.626 1.538s-1.708-0.597-2.595-1.502l-12.32-13.372-0.154-0.252c-0.996-1.612-2.124-3.446-2.124-6.283 0-5.798 4.21-10.514 9.385-10.514 3.115 0.052 5.896 1.441 7.801 3.615l0.010 0.012c2.241-2.423 4.957-3.703 7.879-3.703 5.175 0 9.386 4.718 9.386 10.518 0.002 0.077 0.003 0.167 0.003 0.258 0 2.499-0.846 4.801-2.267 6.634l0.018-0.025zM24.905 1.839c-2.627 0-5.074 1.264-7.077 3.66l-0.074 0.084-0.567 0.582-0.554-0.591c-1.998-2.392-4.444-3.657-7.077-3.657-4.246 0-7.702 3.943-7.702 8.79 0 2.351 0.942 3.877 1.853 5.36l0.114 0.178 11.895 12.905c0.684 0.695 1.144 1.009 1.477 1.009s0.8-0.32 1.509-1.034l12.025-12.702c1.174-1.515 1.882-3.442 1.882-5.534 0-0.090-0.001-0.18-0.004-0.27l0 0.013c0.004-4.849-3.452-8.794-7.7-8.794zM11.419 5.538c-3.109 0-5.637 2.896-5.637 6.458-0.001 0.211-0.085 0.402-0.221 0.542l0-0c-0.137 0.137-0.325 0.222-0.534 0.222s-0.398-0.085-0.534-0.222v0c-0.136-0.14-0.22-0.331-0.221-0.541v-0c0-4.406 3.206-7.989 7.147-7.989 0.41 0.017 0.735 0.353 0.735 0.766s-0.326 0.749-0.734 0.766l-0.002 0z"></path>
</svg>
