<!-- Generated by IcoMoon.io -->
<svg version="1.1" xmlns="http://www.w3.org/2000/svg" width="37" height="32" viewBox="0 0 37 32">
<title>home</title>
<path d="M36.949 18.119l-16.414-17.276c-0.488-0.514-1.175-0.833-1.937-0.833s-1.45 0.32-1.936 0.832l-0.001 0.001-16.421 17.276c-0.148 0.153-0.239 0.361-0.239 0.591 0 0.017 0.001 0.034 0.001 0.051v-0.002c0.018 0.244 0.132 0.459 0.304 0.609l0.001 0.001c0.165 0.143 0.382 0.231 0.62 0.231 0.271 0 0.516-0.114 0.689-0.297v0l3.964-4.165v14.197c0.039 1.475 1.244 2.656 2.725 2.656 0.023 0 0.045 0 0.067-0.001h20.449c0.019 0 0.042 0.001 0.064 0.001 1.481 0 2.686-1.181 2.725-2.652v-14.201l3.957 4.165c0.176 0.181 0.422 0.294 0.694 0.294 0.238 0 0.455-0.086 0.624-0.228l-0.001 0.001c0.174-0.153 0.288-0.37 0.305-0.615v-0.003c0-0.010 0.001-0.021 0.001-0.032 0-0.233-0.091-0.444-0.239-0.6v0zM22.313 30.219h-7.437v-7.965c0.012-0.492 0.414-0.885 0.907-0.885 0.008 0 0.016 0 0.024 0h5.577c0.007 0 0.015 0 0.023 0 0.493 0 0.895 0.394 0.907 0.884v7.966zM29.75 29.334c-0.012 0.491-0.413 0.885-0.906 0.885-0.008 0-0.016 0-0.025 0h-4.647v-7.965c-0.039-1.475-1.244-2.656-2.725-2.656-0.023 0-0.045 0-0.067 0.001h-5.575c-0.019 0-0.042-0.001-0.064-0.001-1.481 0-2.686 1.181-2.725 2.652v7.969h-4.648c-0.007 0-0.015 0-0.023 0-0.493 0-0.894-0.394-0.906-0.884v-16.154l10.598-11.156c0.139-0.151 0.337-0.245 0.558-0.245v0c0.22 0.002 0.418 0.096 0.557 0.245v0l10.598 11.156v16.153z"></path>
</svg>
