<!-- Generated by IcoMoon.io -->
<svg version="1.1" xmlns="http://www.w3.org/2000/svg" width="37" height="32" viewBox="0 0 37 32">
<title>home2</title>
<path d="M37.188 18.752c0 0.223-0.149 0.446-0.297 0.595-0.372 0.297-0.967 0.297-1.339-0.074l-3.942-4.165v14.206c0 1.488-1.264 2.678-2.826 2.678h-6.471v-9.743c0-0.521-0.446-0.892-0.967-0.892h-5.578c-0.521 0-0.893 0.372-0.967 0.892v9.743h-6.545c-1.487 0-2.752-1.116-2.826-2.678v-14.206l-3.942 4.165c-0.372 0.372-0.892 0.372-1.339 0.074 0-0.149-0.149-0.372-0.149-0.595s0.074-0.446 0.223-0.669l16.511-17.329c1.041-1.041 2.752-0.967 3.793 0.074l16.437 17.255c0.149 0.223 0.223 0.446 0.223 0.669z"></path>
</svg>
