<!-- Generated by IcoMoon.io -->
<svg version="1.1" xmlns="http://www.w3.org/2000/svg" width="32" height="32" viewBox="0 0 32 32">
<title>identityCheck</title>
<path fill="#1ddcd5" d="M19.561 16.979c2.538 0.756 4.375 2.207 6.136 4.193 0.203 0.227 0.497 0.37 0.824 0.37 0.003 0 0.006 0 0.009 0v0c0.259 0 0.083-0.088 0.292-0.27 0.23-0.202 0.375-0.496 0.375-0.825 0-0.279-0.104-0.534-0.276-0.727l0.001 0.001c-1.609-1.814-3.594-3.257-5.836-4.214l-0.107-0.040c1.654-1.447 2.693-3.562 2.693-5.92 0-0.041 0-0.082-0.001-0.123v0.006c0-4.53-2.704-8.232-7.89-8.326-0.092-0.004-0.199-0.006-0.307-0.006-4.435 0-8.030 3.595-8.030 8.030 0 0.106 0.002 0.212 0.006 0.317v-0.015c0.044 2.444 0.855 4.53 2.566 6.036-5.71 2.422-9.705 7.851-10.013 14.248l-0.001 0.037c-0.001 0.013-0.001 0.029-0.001 0.045 0 0.594 0.47 1.079 1.058 1.103h0.052c0.585 0 0.64-0.458 0.668-1.048 0.265-5.998 3.895-11.173 9.683-12.884 0.032-0.008 0.059-0.017 0.086-0.029l-0.003 0.001c1.119 0.443 2.415 0.735 3.767 0.815l0.034 0.002c1.496-0.082 2.898-0.375 4.213-0.849l-0.103 0.032c0.030 0.015 0.064 0.028 0.101 0.038l0.004 0.001zM9.21 9.211c0-3.512 2.847-6.359 6.359-6.359s6.359 2.847 6.359 6.359v0c0 3.504-2.853 6.798-6.362 6.798s-6.356-3.294-6.356-6.798v0zM31.677 20.56c-0.436-0.43-0.999 0.27-1.429 0.701l-7.89 7.449-3.509-3.504c-0.43-0.43-1.264-1.142-1.694-0.712-0.202 0.198-0.327 0.473-0.327 0.778s0.125 0.58 0.327 0.778v0l4.497 4.469c0.202 0.198 0.478 0.32 0.783 0.32v0c0.305-0.002 0.581-0.124 0.784-0.32v0l8.458-8.403c0.199-0.199 0.323-0.474 0.323-0.778s-0.123-0.579-0.323-0.778v0z"></path>
</svg>
