<!-- Generated by IcoMoon.io -->
<svg version="1.1" xmlns="http://www.w3.org/2000/svg" width="32" height="32" viewBox="0 0 32 32">
<title>jczh</title>
<path fill="#3ece89" d="M14.807 0h-1.247v23.214h1.736v-12.475h15.892l-4.122-5.37 4.122-5.37h-16.38zM16.488 18.875v1.464c2.495 0.38 4.285 1.464 4.285 2.712 0 1.627-2.875 2.929-6.454 2.929s-6.454-1.302-6.454-2.929c0-1.247 1.79-2.332 4.285-2.712v-1.464c-3.092 0.434-5.749 1.898-5.749 4.23 0 2.875 3.959 4.339 7.864 4.339s7.864-1.519 7.864-4.339c0.054-2.386-2.549-3.797-5.641-4.23v0zM16.488 14.861c5.044-0.163 11.878 4.447 11.878 8.461 0 4.773-6.183 8.678-13.776 8.678s-13.776-3.905-13.776-8.678c0-4.176 4.99-8.461 11.336-8.461v1.519c-5.37 0-9.871 3.525-9.871 6.942 0 3.742 5.37 7.159 12.258 7.159s12.312-3.417 12.312-7.159c0-2.983-5.912-7.051-10.305-6.942z"></path>
</svg>
