<!-- Generated by IcoMoon.io -->
<svg version="1.1" xmlns="http://www.w3.org/2000/svg" width="32" height="32" viewBox="0 0 32 32">
<title>jxz</title>
<path fill="#6b7bfb" d="M32 32v-32h-32zM31.217 18.644l-3.040 3.037-0.463-0.466 0.406-0.407-1.851-1.857-2.206 2.203-0.48-0.478 2.206-2.203-1.846-1.85-0.411 0.407-0.463-0.466 3.040-3.037 2.314 2.316 1.16-1.163 0.48 0.479-1.166 1.163zM26.12 14.446l-1.726 1.725 1.846 1.85 1.726-1.725zM26.72 18.499l1.851 1.857 1.731-1.725-1.857-1.857zM22.303 9.185l0.457-0.457 3.097 3.098-0.457 0.457zM18.674 8.116l0.331-0.601c0.365 0.075 0.786 0.118 1.216 0.118 0.67 0 1.315-0.104 1.921-0.296l-0.045 0.012 0.223 0.614c-0.635 0.2-1.366 0.315-2.124 0.315-0.539 0-1.065-0.058-1.571-0.169l0.048 0.009zM19.143 6.319l-0.434 0.433-0.817-0.821-1.291 1.286 1.029 1.029-0.44 0.439-1.029-1.029-1.857 1.854-0.451-0.453 1.857-1.855-1.149-1.151c-0.642 0.466-1.445 0.745-2.314 0.745-0.147 0-0.292-0.008-0.435-0.024l0.018 0.002 0.097-0.653c0.124 0.018 0.268 0.027 0.413 0.027 0.661 0 1.275-0.206 1.78-0.557l-0.010 0.007-0.857-0.854 0.44-0.439 0.937 0.938c0.305-0.233 0.575-0.47 0.829-0.723v0l0.514-0.51-0.766-0.763 0.434-0.433 0.766 0.763 1.029-1.029 0.446 0.446-1.029 1.029 1.017 1.022 1.023-1.021 0.451 0.453-1.023 1.021zM16.417 4.456l-0.411 0.407c-0.287 0.288-0.591 0.559-0.91 0.811l-0.021 0.016 1.074 1.074 1.286-1.286zM14.446 2.444c0.020-0.24 0.031-0.52 0.031-0.802 0-0.46-0.030-0.913-0.088-1.358l0.006 0.052 0.623 0.013c0.068 0.458 0.107 0.987 0.107 1.525 0 0.203-0.005 0.404-0.016 0.603l0.001-0.028zM11.383 6.134c-0.009 0.072-0.014 0.156-0.014 0.241 0 0.237 0.038 0.466 0.109 0.679l-0.004-0.015c0.176 0.395 0.413 0.732 0.702 1.015l0.001 0.001c0.44 0.457 0.857 0.88 1.24 1.268q0.3 0.298 0.943 0.918 0.549 0.518 0.754 0.699l-0.577 0.355-1.48-1.482c-0.217-0.215-0.589-0.599-1.126-1.151-0.334-0.327-0.627-0.695-0.872-1.095l-0.014-0.025c-0.136-0.276-0.216-0.601-0.216-0.944 0-0.073 0.004-0.145 0.011-0.215l-0.001 0.009c0.011-0.037 0.017-0.079 0.017-0.123 0-0.107-0.036-0.206-0.097-0.285l0.001 0.001c-0.154-0.151-0.703-0.108-1.657 0.129l-0.034-0.666c0.327-0.106 0.703-0.168 1.093-0.168 0.287 0 0.567 0.033 0.835 0.096l-0.025-0.005 1.966-1.965-0.926-0.925 0.429-0.427 1.36 1.359-2.423 2.417c0.008 0.053 0.012 0.114 0.012 0.177 0 0.045-0.002 0.090-0.007 0.134v-0.006zM16.96 9.905l0.331-0.601c0.439 0.092 0.944 0.144 1.461 0.144 0.775 0 1.523-0.118 2.227-0.337l-0.053 0.014 0.223 0.614c-0.512 0.173-1.104 0.29-1.718 0.328l-0.020 0.001-3.171 3.166-0.457-0.457 2.697-2.694c-0.563-0.031-1.085-0.093-1.597-0.186l0.077 0.012zM19.229 15.317c0.073 0.103 0.192 0.17 0.327 0.17 0.123 0 0.233-0.056 0.307-0.143v-0.001l2.657-2.655-2.034-2.038 0.457-0.457 3.554 3.558-0.457 0.457-1.046-1.048-2.777 2.772c-0.145 0.184-0.368 0.3-0.619 0.3-0.262 0-0.494-0.128-0.637-0.324l-0.002-0.002-0.931-0.938 0.36-0.555q0.471 0.54 0.84 0.909z"></path>
</svg>
