<!-- Generated by IcoMoon.io -->
<svg version="1.1" xmlns="http://www.w3.org/2000/svg" width="32" height="32" viewBox="0 0 32 32">
<title>kc</title>
<path fill="#44b1ff" d="M31.499 24.114l-4.451-8.671h-3.663l-1.484 1.484h4.034l4.312 8.532 0.093 0.046c0.185 0.325 0.185 0.696 0 1.020-0.139 0.325-0.417 0.51-0.788 0.51h-27.033c-0.371 0-0.696-0.185-0.835-0.51s-0.139-0.742 0.093-1.020v-0.046l4.034-8.532h4.822l-1.484-1.53h-4.173l-4.451 8.717c-0.603 0.835-0.696 1.947-0.232 2.875 0.51 0.927 1.484 1.53 2.597 1.53h26.384c1.066 0 2.040-0.603 2.504-1.53 0.371-0.974 0.278-2.040-0.278-2.875zM16.29 6.726c-2.226 0-4.034 1.762-4.034 3.988v0c0 2.226 1.762 3.988 3.988 3.988s3.988-1.762 4.034-3.988c0.046-2.226-1.762-3.988-3.988-3.988zM16.244 12.754c0 0 0 0 0 0-1.298 0-2.318-1.020-2.318-2.318s1.020-2.318 2.318-2.318 2.318 1.020 2.318 2.318-1.020 2.318-2.318 2.318zM16.29 6.726c-2.226 0-4.034 1.762-4.034 3.988v0c0 2.226 1.762 3.988 3.988 3.988s3.988-1.762 4.034-3.988c0.046-2.226-1.762-3.988-3.988-3.988zM16.244 12.754c0 0 0 0 0 0-1.298 0-2.318-1.020-2.318-2.318s1.020-2.318 2.318-2.318 2.318 1.020 2.318 2.318-1.020 2.318-2.318 2.318zM16.337 3.481c-3.941 0-7.187 3.199-7.187 7.141v0.046c0 1.391 0.417 2.736 1.159 3.895 0.232 0.278 1.020 1.53 5.054 7.326l0.046 0.046c0.232 0.278 0.603 0.464 0.974 0.464s0.742-0.185 0.927-0.51c1.762-2.504 5.008-7.28 5.147-7.419l0.046-0.046c0.696-1.159 1.020-2.457 1.066-3.756-0.093-3.941-3.292-7.187-7.233-7.187zM21.205 13.543c-0.185 0.325-3.014 4.405-4.869 7.141-1.484-2.087-4.637-6.631-4.915-7.048-0.603-0.881-0.927-1.994-0.927-3.060 0.046-3.199 2.597-5.796 5.796-5.842 3.199 0 5.75 2.597 5.75 5.796 0 1.066-0.325 2.087-0.835 3.014zM16.29 6.726c-2.226 0-4.034 1.762-4.034 3.988v0c0 2.226 1.762 3.988 3.988 3.988s3.988-1.762 4.034-3.988c0.046-2.226-1.762-3.988-3.988-3.988zM16.244 12.754c0 0 0 0 0 0-1.298 0-2.318-1.020-2.318-2.318s1.020-2.318 2.318-2.318 2.318 1.020 2.318 2.318-1.020 2.318-2.318 2.318z"></path>
</svg>
