<!-- Generated by IcoMoon.io -->
<svg version="1.1" xmlns="http://www.w3.org/2000/svg" width="32" height="32" viewBox="0 0 32 32">
<title>kc1</title>
<path fill="#007d43" d="M30 29.5h-27c-1.657 0-3-1.343-3-3l3-8c0-1.657 1.343-3 3-3h3l1 2h-4c-0.552 0-1 0.448-1 1l-2 8c0 0.552 0.448 1 1 1h24c0.552 0 1-0.448 1-1l-2-8c0-0.552-0.448-1-1-1h-4l1-2h3c1.657 0 3 1.343 3 3l3 8c0 1.657-0.343 3-2 3zM9 9.5c0-3.866 3.134-7 7-7s7 3.134 7 7c0 3.866-7 13-7 13s-7-9.134-7-13zM20 9.5c0-2.209-1.791-4-4-4s-4 1.791-4 4c0 2.209 1.791 4 4 4s4-1.791 4-4z"></path>
</svg>
