<!-- Generated by IcoMoon.io -->
<svg version="1.1" xmlns="http://www.w3.org/2000/svg" width="32" height="32" viewBox="0 0 32 32">
<title>kd</title>
<path fill="#98a3ff" d="M16 0v0c-8.837 0-16 7.163-16 16v0c0 8.837 7.163 16 16 16s16-7.163 16-16c0-8.837-7.163-16-16-16zM15.998 23.774c-3.975 0-7.998-0.797-7.998-2.32 0-1.093 1.952-1.672 3.589-1.964 0.018-0.003 0.040-0.005 0.061-0.005 0.104 0 0.198 0.046 0.261 0.119v0c0.050 0.059 0.080 0.135 0.080 0.218 0 0.167-0.12 0.305-0.279 0.334h-0.002c-2.222 0.397-3.026 0.994-3.026 1.297 0 0.669 2.85 1.642 7.317 1.642s7.314-0.973 7.314-1.642c0-0.316-0.848-0.929-3.186-1.325-0.161-0.028-0.282-0.167-0.282-0.334 0-0.083 0.030-0.158 0.079-0.217v0.001c0.063-0.075 0.157-0.122 0.263-0.122 0.020 0 0.040 0.002 0.060 0.005h-0.002c1.401 0.237 3.753 0.812 3.753 1.993 0 1.524-4.025 2.32-8 2.32zM15.961 21.113h-0.011c-0.216-0.004-0.409-0.096-0.546-0.243v0c-4.574-4.944-5.401-8.114-2.859-10.944 1.218-1.356 3.122-1.816 4.967-1.201 1.888 0.629 3.154 2.163 3.307 4.005 0.263 3.204-3.237 7.053-4.315 8.156-0.138 0.14-0.33 0.227-0.542 0.227v0zM20.137 12.785c-0.128-1.568-1.218-2.877-2.841-3.418-1.584-0.526-3.209-0.14-4.242 1.010-2.249 2.504-1.424 5.412 2.853 10.034 0.013 0.014 0.032 0.023 0.052 0.023 0 0 0 0 0 0v0c0 0 0.001 0 0.001 0 0.021 0 0.040-0.008 0.054-0.022v0c1.029-1.051 4.366-4.709 4.123-7.628zM14.162 13.298c0-0.003 0-0.007 0-0.011 0-0.961 0.779-1.739 1.739-1.739s1.739 0.779 1.739 1.739c0 0.961-0.779 1.739-1.739 1.739v0c-0.001 0-0.003 0-0.004 0-0.956 0-1.731-0.773-1.735-1.728v0zM16.958 13.298c0-0.002 0-0.005 0-0.007 0-0.584-0.473-1.057-1.057-1.057s-1.057 0.473-1.057 1.057c0 0.584 0.473 1.057 1.057 1.057 0 0 0.001 0 0.001 0v0c0.001 0 0.001 0 0.002 0 0.581 0 1.052-0.47 1.054-1.050v0z"></path>
</svg>
