<!-- Generated by IcoMoon.io -->
<svg version="1.1" xmlns="http://www.w3.org/2000/svg" width="32" height="32" viewBox="0 0 32 32">
<title>kqsb</title>
<path fill="#ff65aa" d="M7.805 15.154c-0.411-0.004-0.78-0.179-1.041-0.457l-0.001-0.001c-0.246-0.262-0.397-0.616-0.397-1.005 0-0.024 0.001-0.047 0.002-0.071v0.003-8.402l-2.811 2.815c-0.277 0.285-0.664 0.462-1.092 0.462-0.705 0-1.298-0.479-1.471-1.129l-0.002-0.011c-0.031-0.116-0.049-0.249-0.049-0.387 0-0.429 0.175-0.817 0.457-1.096v0l5.415-5.429c0.261-0.276 0.629-0.448 1.038-0.448 0.001 0 0.003 0 0.004 0v0c0.001 0 0.002 0 0.002 0 0.433 0 0.826 0.171 1.115 0.449l-0.001-0.001 5.409 5.429c0.288 0.278 0.467 0.667 0.467 1.098 0 0.842-0.683 1.525-1.525 1.525-0.429 0-0.816-0.177-1.093-0.462v0l-2.899-2.815v8.401c0 0.843-0.682 1.527-1.524 1.53v0zM27.476 16h-6.318c-1.979-0.003-3.583-1.608-3.583-3.588 0-0.002 0-0.004 0-0.006v0-6.337c0-0.002 0-0.004 0-0.006 0-1.98 1.603-3.585 3.582-3.588h6.319c1.98 0.005 3.583 1.611 3.583 3.592 0 0.001 0 0.001 0 0.002v0 6.337c0 0.001 0 0.001 0 0.002 0 1.98-1.603 3.586-3.582 3.592v0zM20.48 4.639c-0.416 0-0.753 0.337-0.753 0.753v0 7.693c0 0.416 0.337 0.753 0.753 0.753v0h7.674c0.413-0.004 0.747-0.339 0.747-0.753 0 0 0 0 0 0v0-7.693c0-0.001 0-0.002 0-0.004 0-0.413-0.334-0.748-0.747-0.749h-7.674zM27.476 32h-6.318c-1.979-0.003-3.583-1.608-3.583-3.588 0-0.002 0-0.004 0-0.006v0-6.337c0-0.002 0-0.004 0-0.006 0-1.98 1.603-3.585 3.582-3.588h6.319c1.98 0.005 3.583 1.611 3.583 3.591 0 0.001 0 0.002 0 0.003v0 6.337c0 0 0 0.001 0 0.001 0 1.981-1.603 3.587-3.582 3.592v0zM20.48 20.639c-0.416 0-0.753 0.337-0.753 0.753v0 7.693c0 0.416 0.337 0.753 0.753 0.753v0h7.674c0.413-0.004 0.747-0.339 0.747-0.753 0 0 0 0 0 0v0-7.693c0-0.001 0-0.002 0-0.004 0-0.413-0.334-0.748-0.747-0.749h-7.674zM11.319 32h-6.318c-1.98-0.005-3.583-1.612-3.583-3.592 0 0 0-0.001 0-0.001v0-6.337c0 0 0-0.001 0-0.001 0-1.981 1.603-3.587 3.582-3.592h6.319c1.979 0.003 3.583 1.608 3.583 3.587 0 0.002 0 0.004 0 0.007v0 6.337c0 0.002 0 0.004 0 0.006 0 1.98-1.603 3.585-3.582 3.588v0zM4.323 20.639c-0.413 0.001-0.747 0.336-0.747 0.749 0 0.001 0 0.003 0 0.004v0 7.693c0 0 0 0 0 0 0 0.414 0.334 0.749 0.746 0.753h7.674c0.416 0 0.753-0.337 0.753-0.753v0-7.693c0-0.416-0.337-0.753-0.753-0.753v0h-7.674z"></path>
</svg>
