<!-- Generated by IcoMoon.io -->
<svg version="1.1" xmlns="http://www.w3.org/2000/svg" width="32" height="32" viewBox="0 0 32 32">
<title>kqzb</title>
<path fill="#3ece89" d="M16 0c-8.814 0-16 7.186-16 16s7.186 16 16 16c8.814 0 16-7.186 16-16s-7.186-16-16-16zM16 30.316c-7.916 0-14.316-6.4-14.316-14.316s6.4-14.316 14.316-14.316c7.916 0 14.316 6.4 14.316 14.316s-6.4 14.316-14.316 14.316z"></path>
<path fill="#3ece89" d="M20.884 6.456h-9.768c-0.561 0-1.011 0.449-1.011 1.067v4.098l3.593 4.379-3.593 4.379v4.154c0 0.561 0.449 1.011 1.067 1.011h9.768c0.561 0 1.011-0.449 1.011-1.067v-4.098l-3.593-4.379 3.593-4.379v-4.154c-0.056-0.561-0.505-1.011-1.067-1.011zM20.547 11.34l-3.312 4.098c-0.281 0.337-0.281 0.842 0 1.179l3.312 4.098v3.368h-9.095v-3.368l3.312-4.098c0.281-0.337 0.281-0.842 0-1.179l-3.312-4.098v-3.368h9.039v3.368z"></path>
</svg>
