<!-- Generated by IcoMoon.io -->
<svg version="1.1" xmlns="http://www.w3.org/2000/svg" width="32" height="32" viewBox="0 0 32 32">
<title>ks</title>
<path fill="#ff7d7d" d="M28.809 30.784c-0.442-2.022-3.374-6.435-8.442-8.087 5.777-2.483 8.442-9.377 6.045-15.261s-9.065-8.825-14.842-6.342-8.448 9.377-6.045 15.353c1.134 2.817 3.278 5.028 5.972 6.223l0.073 0.029c-5.068 1.745-8 6.068-8.448 8.087-0.013 0.056-0.021 0.12-0.021 0.186 0 0.396 0.271 0.729 0.637 0.824l0.006 0.001h0.18c0.384-0.015 0.702-0.281 0.796-0.638l0.001-0.006c0.448-2.114 4.532-7.538 11.287-7.538s10.845 5.424 11.287 7.538c0.099 0.363 0.418 0.628 0.801 0.644h0.002c0.019 0.002 0.040 0.003 0.062 0.003 0.406 0 0.735-0.329 0.735-0.735 0-0.001 0-0.003 0-0.004v0c-0.056-0.062-0.090-0.144-0.090-0.234 0-0.015 0.001-0.029 0.003-0.044v0.002zM15.922 2.193c5.335 0 9.6 4.413 9.687 9.929v0.552c-2.49-0.092-4.445-1.471-6.045-4.137-0.147-0.244-0.409-0.404-0.71-0.404-0.164 0-0.317 0.048-0.445 0.13l0.003-0.002c-0.081 0.037-0.145 0.102-0.179 0.182l-0.001 0.002c-1.331 2.15-3.642 3.584-6.294 3.677h-0.013c-0.098 0.005-0.212 0.008-0.327 0.008-1.964 0-3.739-0.813-5.006-2.12l-0.002-0.002c0.835-4.462 4.692-7.797 9.33-7.815h0.002zM6.235 12.030v-0.092c1.473 1.093 3.326 1.749 5.332 1.749 0.093 0 0.186-0.001 0.278-0.004h-0.014c2.778-0.034 5.243-1.35 6.833-3.382l0.015-0.019c1.457 2.193 3.818 3.687 6.538 3.95l0.036 0.003c-1.245 5.424-6.4 8.734-11.642 7.447-4.255-1.242-7.32-5.082-7.377-9.647v-0.007zM28.099 31.998c-0.477-0.015-0.874-0.345-0.988-0.789l-0.002-0.007v-0.006c-0.215-1.020-1.315-2.847-3.212-4.448-2.103-1.821-4.865-2.931-7.886-2.931s-5.784 1.11-7.902 2.943l0.015-0.013c-1.902 1.602-2.996 3.429-3.212 4.448v0.006c-0.115 0.451-0.512 0.782-0.987 0.796h-0.2l-0.017-0.004c-0.465-0.116-0.804-0.53-0.804-1.024 0-0.080 0.009-0.158 0.026-0.233l-0.001 0.007 0.006-0.005c0.516-1.664 1.39-3.089 2.537-4.243v0c1.51-1.649 3.371-2.951 5.468-3.789l0.1-0.035c-2.595-1.29-4.6-3.442-5.668-6.074l-0.028-0.078c-0.57-1.37-0.9-2.961-0.9-4.629 0-1.624 0.314-3.175 0.883-4.595l-0.029 0.083c1.135-2.923 3.34-5.22 6.122-6.448l0.074-0.029c1.291-0.571 2.796-0.903 4.379-0.903 1.614 0 3.146 0.345 4.529 0.966l-0.070-0.028c1.437 0.629 2.663 1.481 3.693 2.527l0.001 0.001c1.075 1.084 1.942 2.376 2.537 3.809l0.029 0.079c0.567 1.355 0.896 2.93 0.896 4.582 0 1.624-0.319 3.174-0.896 4.591l0.029-0.081c-1.082 2.745-3.097 4.926-5.646 6.195l-0.067 0.030c2.198 0.847 4.059 2.142 5.545 3.782l0.011 0.012c1.145 1.166 2.018 2.601 2.517 4.202l0.020 0.074 0.006 0.022v0.023c-0.003 0.011-0.005 0.024-0.005 0.038 0 0.036 0.013 0.070 0.034 0.096v0l0.058 0.058v0.083c0 0.001 0 0.002 0 0.002 0 0.517-0.419 0.936-0.936 0.936-0.021 0-0.041-0.001-0.062-0.002h0.003zM27.488 31.106c0.078 0.274 0.319 0.473 0.609 0.487h0.002c0.016 0.002 0.035 0.003 0.055 0.003 0.275 0 0.503-0.202 0.544-0.465v-0.003c-0.052-0.083-0.082-0.184-0.082-0.292 0-0.010 0-0.020 0.001-0.030v0.001c-0.448-1.973-3.328-6.294-8.308-7.921l-0.512-0.167 0.495-0.212c2.745-1.209 4.867-3.411 5.943-6.14l0.026-0.076c0.531-1.289 0.839-2.786 0.839-4.354 0-1.596-0.319-3.117-0.896-4.504l0.029 0.078c-1.611-4.193-5.606-7.115-10.282-7.115-4.685 0-8.684 2.932-10.265 7.060l-0.025 0.075c-0.521 1.292-0.823 2.79-0.823 4.358 0 1.613 0.32 3.151 0.899 4.555l-0.029-0.079c1.118 2.766 3.223 4.937 5.869 6.114l0.071 0.028 0.477 0.208-0.495 0.17c-5.021 1.73-7.889 6.023-8.314 7.94-0.010 0.043-0.016 0.092-0.016 0.142 0 0.295 0.196 0.544 0.465 0.623l0.005 0.001h0.157c0.291-0.016 0.531-0.215 0.61-0.483l0.001-0.005c0.227-1.087 1.373-3.011 3.34-4.672 2.169-1.878 5.018-3.022 8.134-3.022s5.965 1.144 8.149 3.035l-0.016-0.013c1.972 1.661 3.118 3.586 3.345 4.672zM15.893 22.164c-0.827-0.001-1.629-0.104-2.395-0.298l0.068 0.014c-2.181-0.608-4.010-1.872-5.312-3.564l-0.017-0.024c-1.327-1.717-2.144-3.888-2.193-6.247v-0.49l0.303 0.216c1.436 1.072 3.246 1.716 5.206 1.716 0.097 0 0.193-0.002 0.289-0.005h-0.008c2.718-0.031 5.129-1.319 6.682-3.309l0.014-0.019 0.163-0.208 0.145 0.223c1.433 2.139 3.74 3.597 6.398 3.863l0.036 0.003 0.227 0.023-0.052 0.224c-0.604 2.682-2.199 4.916-4.371 6.342l-0.039 0.024c-1.453 0.95-3.232 1.516-5.143 1.517v0zM6.439 12.32c0.171 4.364 3.137 7.99 7.15 9.15l0.070 0.017c0.667 0.174 1.433 0.274 2.222 0.274 1.84 0 3.553-0.543 4.987-1.478l-0.035 0.022c2.062-1.35 3.563-3.41 4.163-5.826l0.014-0.067c-1.338-0.168-2.546-0.6-3.614-1.241l0.042 0.023c-1.114-0.666-2.040-1.53-2.756-2.552l-0.019-0.028c-1.632 1.984-4.078 3.246-6.82 3.273h-0.005c-0.091 0.003-0.197 0.005-0.304 0.005-1.903 0-3.669-0.588-5.126-1.592l0.030 0.020zM25.807 12.883l-0.204-0.008c-2.519-0.093-4.544-1.475-6.196-4.224-0.114-0.19-0.319-0.315-0.554-0.315-0.12 0-0.232 0.033-0.328 0.089l0.003-0.002c-0.029 0.029-0.061 0.054-0.097 0.076l-0.002 0.001-0.029 0.049c-0.689 1.122-1.619 2.033-2.721 2.681l-0.037 0.020c-1.066 0.628-2.338 1.019-3.697 1.071h-0.015c-0.1 0.005-0.217 0.008-0.334 0.008-2.019 0-3.843-0.835-5.145-2.18l-0.002-0.002-0.070-0.076 0.017-0.106c0.454-2.322 1.662-4.307 3.354-5.737l0.015-0.012c1.657-1.386 3.811-2.228 6.161-2.228 2.725 0 5.186 1.132 6.938 2.951l0.003 0.003c1.795 1.858 2.91 4.383 2.938 7.168v0.77zM18.849 7.928c0.364 0.010 0.683 0.2 0.87 0.484l0.003 0.004 0.012 0.015c1.536 2.557 3.392 3.878 5.684 4.031v-0.339c-0.087-5.453-4.259-9.727-9.495-9.727-4.498 0.038-8.239 3.239-9.107 7.486l-0.010 0.060c1.225 1.227 2.918 1.986 4.788 1.986 0.113 0 0.225-0.003 0.336-0.008l-0.016 0.001c2.583-0.099 4.823-1.478 6.114-3.518l0.018-0.031c0.025-0.092 0.086-0.167 0.167-0.209l0.002-0.001c0.022-0.014 0.041-0.029 0.058-0.046l0.018-0.018 0.023-0.013c0.151-0.098 0.337-0.156 0.535-0.156 0 0 0 0 0 0v0z"></path>
</svg>
