<!-- Generated by IcoMoon.io -->
<svg version="1.1" xmlns="http://www.w3.org/2000/svg" width="32" height="32" viewBox="0 0 32 32">
<title>ks1</title>
<path fill="#30a0d9" d="M21.677 29.935c-3.289 1.096-5.161 2.065-5.161 2.065v-16.516c0 0 4.601-2.182 8.258-3.097 2.023-0.506 4.129 0 4.129 0v16.516c0 0-4.349 0.073-7.226 1.032zM16.516 12.387c-3.421 0-6.194-2.773-6.194-6.194s2.773-6.194 6.194-6.194c3.421 0 6.194 2.773 6.194 6.194s-2.773 6.194-6.194 6.194zM15.484 31.386c-0.831-0.428-2.173-0.999-4.129-1.45-3.103-0.716-8.258-1.032-8.258-1.032v-16.516c0 0 1.508-0.605 4.129 0 2.823 0.651 6.498 2.012 8.258 2.691v16.308z"></path>
</svg>
