<!-- Generated by IcoMoon.io -->
<svg version="1.1" xmlns="http://www.w3.org/2000/svg" width="32" height="32" viewBox="0 0 32 32">
<title>kscx</title>
<path fill="#ff7575" d="M30.249 31.774c-0.141 0.139-0.335 0.226-0.548 0.226-0.191 0-0.366-0.069-0.501-0.182l0.001 0.001-4.624-4.579c-0.114-0.131-0.183-0.304-0.183-0.492 0-0.211 0.087-0.402 0.227-0.539v0c0.139-0.138 0.331-0.223 0.542-0.223 0.191 0 0.366 0.070 0.501 0.185l-0.001-0.001 4.624 4.574c0.117 0.131 0.188 0.305 0.188 0.496 0 0.21-0.087 0.4-0.227 0.536v0zM15.49 28.227c-7.731-0.084-13.965-6.37-13.965-14.113 0-7.795 6.319-14.114 14.114-14.114s14.114 6.319 14.114 14.114v0c-0.041 7.803-6.376 14.114-14.185 14.114-0.027 0-0.054 0-0.082 0h0.004zM15.49 1.529c-0.035 0-0.076-0.001-0.118-0.001-6.951 0-12.586 5.635-12.586 12.586s5.635 12.586 12.586 12.586c0.041 0 0.083 0 0.124-0.001h-0.006c0.035 0 0.076 0.001 0.118 0.001 6.951 0 12.586-5.635 12.586-12.586s-5.635-12.586-12.586-12.586c-0.041 0-0.083 0-0.124 0.001h0.006zM21.3 21.446c-0.29-0.003-0.534-0.198-0.611-0.464l-0.001-0.005v-0.006c-0.193-0.894-2.069-3.239-5.126-3.239s-4.927 2.345-5.12 3.239v0.006c-0.078 0.271-0.322 0.466-0.612 0.469h-0.133c-0.167-0.034-0.306-0.135-0.39-0.273l-0.002-0.003c-0.063-0.096-0.101-0.213-0.101-0.339 0-0.044 0.005-0.087 0.013-0.129l-0.001 0.004 0.006-0.006c0.257-0.784 0.682-1.453 1.235-1.991l0.001-0.001c0.662-0.692 1.459-1.249 2.348-1.632l0.047-0.018c-1.75-0.953-2.918-2.779-2.918-4.878 0-2.298 1.4-4.269 3.395-5.106l0.036-0.014c0.632-0.264 1.367-0.417 2.137-0.417 2.32 0 4.315 1.39 5.198 3.382l0.014 0.036c0.273 0.631 0.432 1.366 0.432 2.139 0 2.088-1.162 3.904-2.875 4.838l-0.029 0.014c0.933 0.395 1.727 0.951 2.381 1.641l0.003 0.003c0.557 0.542 0.984 1.215 1.232 1.968l0.010 0.034 0.006 0.028v0.011l0.039 0.044v0.094c-0.001 0.315-0.257 0.57-0.572 0.57-0.014 0-0.028-0.001-0.042-0.002h0.002zM13.614 12.050c1.155-0.034 2.165-0.627 2.773-1.516l0.008-0.012c0.026-0.068 0.074-0.122 0.136-0.154l0.002-0.001 0.022-0.022 0.028-0.017c0.095-0.057 0.209-0.092 0.33-0.094h0.001c0.217 0.005 0.407 0.114 0.523 0.279l0.001 0.002 0.017 0.017c0.482 0.923 1.364 1.58 2.409 1.747l0.019 0.002c-0.030-2.365-1.955-4.271-4.324-4.271-0.012 0-0.024 0-0.036 0h0.002c-0.009 0-0.020 0-0.032 0-1.989 0-3.661 1.362-4.133 3.204l-0.006 0.030c0.556 0.502 1.296 0.809 2.108 0.809 0.054 0 0.108-0.001 0.161-0.004h-0.008zM16.814 11.824c-0.853 0.866-2.038 1.403-3.349 1.403-0.834 0-1.618-0.217-2.297-0.599l0.024 0.012c0.239 2.19 2.078 3.88 4.313 3.88 0.84 0 1.624-0.239 2.288-0.652l-0.018 0.011c0.894-0.554 1.561-1.403 1.868-2.408l0.008-0.030c-1.152-0.174-2.141-0.764-2.829-1.608l-0.006-0.008z"></path>
</svg>
