<!-- Generated by IcoMoon.io -->
<svg version="1.1" xmlns="http://www.w3.org/2000/svg" width="32" height="32" viewBox="0 0 32 32">
<title>ksgc</title>
<path fill="#4ca8ea" d="M25.143 20.512h6.857v6.767h-6.857v-6.767zM21.488 22.767v-2.256l3.653 3.384-3.653 3.384v-2.256h-16.347c0 0 0 0 0 0-0.201 0-0.4-0.011-0.571-0.032l-0.022-0.002c-2.555-0.261-4.548-2.419-4.548-5.042s1.993-4.781 4.569-5.044l-0.024 0.002c0.195-0.022 0.394-0.034 0.595-0.034 0 0 0 0 0 0h7.43v-2.256h6.855v6.767h-6.857v-2.256h-7.429c-1.557 0-2.82 1.262-2.82 2.82s1.262 2.82 2.82 2.82h16.349zM21.49 22.767l0.224-4.65 1.368 1.266v-2.256h1.49c0.021 0 0.046 0 0.072 0 2.801 0 5.072-2.271 5.072-5.072 0-2.625-1.995-4.785-4.551-5.046l-0.022-0.002c-0.171-0.020-0.37-0.032-0.571-0.032 0 0 0 0 0 0h-17.715v-2.256h-6.857v6.767h6.857v-2.256h17.714c1.557 0 2.82 1.262 2.82 2.82s-1.262 2.82-2.82 2.82v0h-1.489v-2.256l-3.654 3.384 1.218 1.128z"></path>
</svg>
