<!-- Generated by IcoMoon.io -->
<svg version="1.1" xmlns="http://www.w3.org/2000/svg" width="32" height="32" viewBox="0 0 32 32">
<title>kwry1</title>
<path fill="#d98b0f" d="M32 25.212c0 0.495-0.039 0.978-0.094 1.455h-1.949c0.064-0.473 0.104-0.957 0.104-1.455 0-4.552-2.822-8.242-6.303-8.242-0.164 0-0.324 0.022-0.485 0.040v-0.040c-0.535 0-0.97-0.434-0.97-0.97s0.434-0.97 0.97-0.97v-0.137c1.67-0.433 2.909-1.937 2.909-3.742 0-2.142-1.737-3.879-3.879-3.879-0.535 0-0.97-0.434-0.97-0.97s0.434-0.97 0.97-0.97c0.060 0 0.113 0.024 0.171 0.035 0.104-0.016 0.207-0.035 0.314-0.035 2.945 0 5.333 2.605 5.333 5.818 0 1.75-0.723 3.301-1.843 4.367 3.318 1.316 5.722 5.156 5.722 9.693zM18.531 16.303c3.496 0.841 6.122 3.377 6.585 6.484h0.096v3.879h-18.424v-3.879h0.096c0.463-3.107 3.089-5.644 6.585-6.484-1.661-0.904-2.802-2.643-2.802-4.667 0-2.946 2.387-5.333 5.333-5.333s5.333 2.387 5.333 5.333c0 2.024-1.141 3.763-2.802 4.667zM9.697 7.273c-2.142 0-3.879 1.737-3.879 3.879 0 1.806 1.239 3.309 2.909 3.742v0.137c0.535 0 0.97 0.434 0.97 0.97s-0.434 0.97-0.97 0.97v0.040c-0.161-0.017-0.321-0.040-0.485-0.040-3.481 0-6.303 3.691-6.303 8.242 0 0.497 0.040 0.981 0.104 1.455h-1.949c-0.056-0.476-0.094-0.959-0.094-1.455 0-4.537 2.404-8.377 5.722-9.693-1.12-1.067-1.843-2.617-1.843-4.367 0-3.214 2.387-5.818 5.333-5.818 0.108 0 0.21 0.019 0.314 0.035 0.057-0.011 0.11-0.035 0.171-0.035 0.535 0 0.97 0.434 0.97 0.97s-0.434 0.97-0.97 0.97z"></path>
</svg>
