<!-- Generated by IcoMoon.io -->
<svg version="1.1" xmlns="http://www.w3.org/2000/svg" width="32" height="32" viewBox="0 0 32 32">
<title>kwry</title>
<path fill="#ff7575" d="M31.911 29.208l-0.005-0.049c-0.226-1.392-0.97-4.806-3.047-6.436-0.783-0.625-2.688-1.818-7.286-3.952-0.133-0.062-0.222-0.103-0.246-0.116l-0.561-0.262-2.186 4.069 0.128-0.264-2.742-2.819-2.747 2.819 1.073 2.166-0.005 0.014-3.087-5.947-0.556 0.261c-0.261 0.098-5.583 2.515-7.537 4.070-1.935 1.56-2.816 5.662-2.974 6.467l-0.133 0.802h31.385v-0.077h0.615zM14.523 27.542l1.231-3.185-0.881-1.831 1.132-1.182 1.167 1.182-0.886 1.791 1.078 3.233 3.929-7.35c1.442 0.689 5.164 2.475 6.626 3.621 1.063 0.839 1.895 2.511 2.407 4.838h-28.534c0.404-1.734 1.241-4.003 2.294-4.838 1.462-1.146 5.179-2.93 6.626-3.621zM23.483 6.984c-0.448-1.015-1.037-1.885-1.755-2.63l0.003 0.003c-0.716-0.753-1.581-1.355-2.55-1.762l-0.050-0.018c-0.909-0.385-1.966-0.608-3.074-0.608s-2.166 0.224-3.128 0.628l0.053-0.020c-1.003 0.455-1.86 1.052-2.59 1.778v0c-0.747 0.726-1.343 1.604-1.739 2.583l-0.018 0.051c-0.372 0.927-0.594 2-0.61 3.124v0.007c0.008 1.13 0.232 2.206 0.631 3.192l-0.021-0.058c0.446 1.016 1.036 1.886 1.755 2.629l-0.002-0.002c0.715 0.753 1.581 1.357 2.55 1.763l0.050 0.018c0.914 0.376 1.974 0.602 3.085 0.618h0.006c0.018 0 0.039 0 0.060 0 1.082 0 2.111-0.228 3.041-0.639l-0.048 0.019c1.005-0.453 1.865-1.050 2.595-1.777v0c0.747-0.726 1.343-1.604 1.739-2.583l0.018-0.051c0.372-0.927 0.595-2 0.61-3.124v-0.007c-0.008-1.13-0.231-2.206-0.631-3.192l0.021 0.058zM13.583 16.274c-0.831-0.346-1.539-0.829-2.131-1.427l-0.001-0.001c-0.581-0.61-1.057-1.327-1.395-2.117l-0.018-0.047c-0.321-0.747-0.507-1.616-0.507-2.528s0.186-1.781 0.523-2.571l-0.016 0.043c0.341-0.839 0.817-1.556 1.409-2.16l-0.001 0.001c0.601-0.588 1.309-1.070 2.092-1.413l0.045-0.018c0.736-0.325 1.594-0.514 2.496-0.514s1.76 0.189 2.537 0.529l-0.041-0.016c0.829 0.346 1.536 0.829 2.126 1.427l0.001 0.001c0.583 0.609 1.059 1.326 1.395 2.117l0.017 0.046c0.321 0.747 0.507 1.616 0.507 2.528s-0.186 1.781-0.523 2.571l0.016-0.043c-0.339 0.84-0.816 1.558-1.409 2.161l0.001-0.001c-0.6 0.589-1.308 1.071-2.092 1.413l-0.045 0.017c-0.737 0.314-1.594 0.497-2.494 0.497s-1.757-0.183-2.536-0.513l0.043 0.016z"></path>
</svg>
