<!-- Generated by IcoMoon.io -->
<svg version="1.1" xmlns="http://www.w3.org/2000/svg" width="32" height="32" viewBox="0 0 32 32">
<title>kwsb</title>
<path fill="#ff65aa" d="M5.012 28.908c-1.258 0-2.487-0.831-2.487-2.094v-20.15l0.011-0.079c0.012-0.137 0.076-0.257 0.173-0.341l0.001-0.001 6.597-6.108c0.086-0.072 0.198-0.116 0.32-0.118h0.107l0.034-0.019h13.116c1.258 0 2.442 0.835 2.442 2.095v10.476l-2.167-0.991-0.051-8.085c-0.028-0.679-0.569-1.223-1.243-1.256h-9.245v7.962h-5.952v-2.238h3.734v-6.288l-5.66 5.446v18.295c0.006 0.688 0.559 1.246 1.245 1.258h11.876v2.235h-12.852zM22.693 31.424v-11.454h3.88l-5.39-4.323-5.39 4.323h2.487v2.235h-4.975c-0.188-0.116-0.327-0.294-0.391-0.505l-0.002-0.006c-0.051-0.113-0.081-0.246-0.081-0.385 0-0.186 0.053-0.359 0.146-0.506l-0.002 0.004 7.49-7.492c0.177-0.176 0.421-0.285 0.691-0.285s0.514 0.109 0.691 0.285v0l7.451 7.492c0.112 0.148 0.179 0.334 0.179 0.537 0 0.122-0.025 0.239-0.069 0.345l0.002-0.006c-0.156 0.28-0.433 0.478-0.758 0.522l-0.005 0.001h-3.734v9.219c-0.758 1.297-2.218 0-2.218 0z"></path>
</svg>
