<!-- Generated by IcoMoon.io -->
<svg version="1.1" xmlns="http://www.w3.org/2000/svg" width="32" height="32" viewBox="0 0 32 32">
<title>link</title>
<path fill="#519ae9" d="M27.96 32h-23.921c-1.296 0-2.355-1.043-2.355-2.319v-10.312h1.684v10.105c0 0.597 0.425 0.842 0.842 0.842h23.579c0.469 0 0.842-0.219 0.842-0.842v-9.263l-3.379 2.56-1.177-1.437 4.71-3.733c0.283-0.232 0.659-0.279 0.989-0.116s0.541 0.487 0.541 0.835v11.362c0 1.276-1.060 2.319-2.355 2.319zM9.263 12.632h13.474v1.684h-13.474v-1.684zM22.737 26.105h-13.474v-1.684h13.474v1.684zM9.263 18.526h13.474v1.684h-13.474v-1.684zM28.631 2.526c-0.027-0.282-0.276-0.842-0.842-0.842 0.076 0.077-4.211 0-4.211 0v3.368c0 1.275-0.799 2.6-2.094 2.6l-11.379-0.073c-1.295 0-1.684-0.409-1.684-1.684v-4.211h-4.211c-0.601 0-0.842 0.245-0.842 0.842v9.263l3.379-2.537 1.177 1.437-4.71 3.71c-0.165 0.139-0.377 0.209-0.589 0.209-0.141 0-0.259-0.024-0.401-0.093-0.329-0.163-0.541-0.488-0.541-0.835v-11.362c0-1.276 1.059-2.319 2.355-2.319h23.921c1.295 0 2.355 1.043 2.355 2.319v10.312h-1.684v-10.105zM21.895 1.684h-11.789v3.368c0 0.676 0.425 0.842 0.842 0.842h10.105c0.864 0 0.842-0.587 0.842-0.842l0.061 0.28-0.061-3.649z"></path>
</svg>
