<!-- Generated by IcoMoon.io -->
<svg version="1.1" xmlns="http://www.w3.org/2000/svg" width="32" height="32" viewBox="0 0 32 32">
<title>logo</title>
<path fill="#fff" d="M16 32c-8.837 0-16-7.163-16-16s7.163-16 16-16c8.837 0 16 7.163 16 16v0c0 8.837-7.163 16-16 16v0zM26.293 18.328l-9.17-12.549c-0.363-0.487-0.938-0.799-1.585-0.799-0.432 0-0.832 0.139-1.157 0.375l0.006-0.004-8.246 5.957c-0.491 0.358-0.807 0.931-0.807 1.578 0 0.429 0.139 0.826 0.375 1.148l-0.004-0.005 9.17 12.549c0.363 0.487 0.938 0.799 1.585 0.799 0.432 0 0.832-0.139 1.157-0.375l-0.006 0.004 8.247-5.957c0.491-0.358 0.807-0.931 0.807-1.578 0-0.43-0.139-0.827-0.375-1.149l0.004 0.005zM24.017 18.529l-8.246 5.957c-0.064 0.045-0.143 0.072-0.229 0.072-0.13 0-0.245-0.062-0.318-0.158l-0.001-0.001-8.25-11.289c-0.046-0.061-0.074-0.138-0.074-0.222 0-0.024 0.002-0.047 0.007-0.070v0.002c0.015-0.106 0.072-0.196 0.154-0.254l0.001-0.001 8.247-5.957c0.064-0.045 0.143-0.072 0.229-0.072 0.13 0 0.245 0.062 0.318 0.158l0.001 0.001 8.25 11.289c0.046 0.061 0.074 0.139 0.074 0.222 0 0.024-0.002 0.047-0.006 0.069v-0.002c-0.015 0.106-0.072 0.196-0.154 0.255l-0.001 0.001zM18.551 15.3c-0.346 0.746-0.602 1.56-1.097 2.213-0.518 0.711-1.134 1.312-1.836 1.797l-0.025 0.017c-0.49 0.327-0.832 0.413-0.948 0.256-0.231-0.316-0.018-1.984 1.975-3.987 0.158-0.154 0.624-0.625 0.673-0.835 0.017-0.080 0.027-0.171 0.027-0.265 0-0.196-0.043-0.382-0.12-0.55l0.003 0.008c-0.148-0.202-0.645 0.171-0.733 0.235-2.792 2.111-2.925 1.818-3.054 1.697-0.277-0.269 0.312-1.994 2.419-3.49-0.072 0.253-0.245 0.941-0.155 1.063 0.022 0.025 0.054 0.041 0.090 0.041 0.027 0 0.052-0.009 0.072-0.024v0c0.131-0.135 0.387-0.856 0.822-1.464 0.379-0.515 0.372-0.563-0.020-1.044l-0.287-0.356c-0.344-0.195-1.156 0.432-1.439 0.637-2.917 2.107-3.217 4.375-2.589 5.235 0.359 0.491 1.108 0.647 3.159-0.741l0.019 0.026c-2.131 2.517-2.097 4.209-1.667 4.796 0.256 0.351 0.886 0.713 1.343 0.544 0.516-0.188 0.963-0.418 1.374-0.696l-0.022 0.014c1.838-1.274 2.416-2.885 2.53-3.356 0.204-0.791-0.008-1.174-0.513-1.774zM20.355 22.137c0.124-0.092 0.28-0.147 0.449-0.147 0.048 0 0.094 0.004 0.14 0.013l-0.005-0.001c0.364 0.066 0.636 0.38 0.636 0.757 0 0.425-0.344 0.769-0.769 0.769s-0.769-0.344-0.769-0.769c0-0.255 0.124-0.481 0.315-0.621l0.002-0.002z"></path>
</svg>
