<!-- Generated by IcoMoon.io -->
<svg version="1.1" xmlns="http://www.w3.org/2000/svg" width="32" height="32" viewBox="0 0 32 32">
<title>lqcx</title>
<path fill="#3ece89" d="M31.994 9.631v20.831h-30.431c-0.862 0-1.563-0.043-1.563-0.043v-20.788c0-0.843 0.037-1.532 0.037-1.532h3.649v-5.594c0-0.535-0.012-0.966-0.012-0.966h24.695s0.037 0.431 0.037 0.966v5.594h3.594s-0.006 0.689-0.006 1.532zM26.751 12.142v-8.498h-21.434v8.505h0.006l0.037 0.031 10.726 8.117 10.665-8.154zM29.711 13.009l-13.674 10.972-13.668-10.972v15.317h27.342v-15.317zM16.062 13.852c-0.27 0.274-0.644 0.443-1.058 0.443s-0.789-0.17-1.058-0.443v0l-1.994-2.025c-0.27-0.277-0.437-0.656-0.437-1.074 0-0.001 0-0.002 0-0.003v0c0-0.003 0-0.006 0-0.009 0-0.828 0.668-1.5 1.495-1.505h0.001c0.002 0 0.003 0 0.005 0 0.413 0 0.785 0.17 1.053 0.443v0l0.935 0.948 2.929-2.972c0.268-0.274 0.641-0.443 1.053-0.443 0.002 0 0.004 0 0.006 0v0c0.827 0.006 1.495 0.677 1.495 1.505 0 0.003 0 0.006 0 0.009v0c0 0.001 0 0.002 0 0.003 0 0.418-0.167 0.797-0.437 1.074v0z"></path>
</svg>
