<!-- Generated by IcoMoon.io -->
<svg version="1.1" xmlns="http://www.w3.org/2000/svg" width="32" height="32" viewBox="0 0 32 32">
<title>maintainCenter</title>
<path fill="#7188ea" d="M29.088 24.597l-6.923-6.917c-0.15-0.153-0.358-0.248-0.589-0.248s-0.44 0.095-0.589 0.248v0l-0.88 0.875-1.467-1.472-0.379-3.227-1.424 1.429-8.165-8.165 1.467-1.472-5.227-2.981-1.125 1.12-1.12 1.125 2.981 5.227 1.467-1.467 8.181 8.176-1.515 1.515 3.419 0.395 1.355 1.355-0.88 0.875c-0.151 0.152-0.244 0.361-0.244 0.592s0.093 0.44 0.244 0.592l6.917 6.917c0.152 0.151 0.361 0.244 0.592 0.244s0.44-0.093 0.592-0.244l3.312-3.312c0.151-0.151 0.244-0.359 0.244-0.589s-0.093-0.439-0.244-0.589v0zM24.736 27.728l-5.701-5.701c-0.068-0.072-0.109-0.169-0.109-0.276 0-0.223 0.181-0.404 0.404-0.404 0.107 0 0.204 0.042 0.276 0.109v0l5.701 5.701c0.068 0.072 0.109 0.169 0.109 0.276 0 0.223-0.181 0.404-0.404 0.404-0.107 0-0.204-0.042-0.276-0.109v0zM25.947 26.523l-5.701-5.701c-0.074-0.074-0.12-0.175-0.12-0.288s0.046-0.214 0.12-0.288v0c0.073-0.074 0.174-0.12 0.285-0.12s0.213 0.046 0.285 0.12l5.701 5.701c0.074 0.073 0.12 0.175 0.12 0.288 0 0.224-0.181 0.405-0.405 0.405-0.111 0-0.212-0.045-0.285-0.117v0zM27.152 25.312l-5.701-5.701c-0.072-0.075-0.116-0.176-0.116-0.288s0.044-0.213 0.116-0.288v0c0.073-0.074 0.175-0.12 0.288-0.12s0.215 0.046 0.288 0.12l5.701 5.701c0.069 0.073 0.111 0.171 0.111 0.28 0 0.225-0.182 0.407-0.407 0.407-0.108 0-0.207-0.042-0.28-0.111v0zM17.973 10.784l-2.219 2.224c0.079 0.039 0.146 0.089 0.202 0.149v0l0.784 0.784 1.045-1.045c0.151-0.151 0.359-0.244 0.589-0.244s0.439 0.093 0.589 0.244v0l1.312 1.317c0.059 0.056 0.109 0.121 0.147 0.193l0.002 0.004 0.587-0.587c0.564 0.224 1.218 0.353 1.901 0.353 2.924 0 5.294-2.37 5.294-5.294 0-0.467-0.061-0.921-0.174-1.352l0.008 0.037-3.653 3.653c-0.151 0.151-0.359 0.244-0.589 0.244s-0.439-0.093-0.589-0.244v0l-2.635-2.629c-0.151-0.152-0.244-0.361-0.244-0.592s0.093-0.44 0.244-0.592l3.653-3.653c-0.393-0.105-0.845-0.165-1.31-0.165-2.925 0-5.297 2.372-5.297 5.297 0 0.682 0.129 1.334 0.364 1.933l-0.012-0.036zM11.451 23.387l2.971-2.971c-0.076-0.040-0.141-0.090-0.197-0.149v0l-1.312-1.312c-0.151-0.151-0.244-0.359-0.244-0.589s0.093-0.439 0.244-0.589v0l1.040-1.045-0.784-0.784c-0.057-0.059-0.107-0.125-0.147-0.198l-0.002-0.005-4.608 4.603c-0.364-0.108-0.783-0.17-1.216-0.17-2.445 0-4.427 1.982-4.427 4.427s1.982 4.427 4.427 4.427c2.445 0 4.427-1.982 4.427-4.427 0-0.433-0.062-0.852-0.178-1.248l0.008 0.031zM5.456 26.341c-0.48-0.48-0.777-1.143-0.777-1.875 0-1.464 1.187-2.651 2.651-2.651s2.651 1.187 2.651 2.651c0 0.732-0.297 1.395-0.777 1.875v0c-0.48 0.48-1.143 0.776-1.875 0.776s-1.395-0.297-1.875-0.776v0z"></path>
</svg>
