<!-- Generated by IcoMoon.io -->
<svg version="1.1" xmlns="http://www.w3.org/2000/svg" width="32" height="32" viewBox="0 0 32 32">
<title>message2</title>
<path d="M30.686 8.898v0c-0.798-1.73-1.996-3.326-3.459-4.657-6.453-5.655-16.033-5.655-22.486 0-1.464 1.264-2.661 2.861-3.459 4.657s-1.264 3.726-1.264 5.721c0 2.328 0.599 4.657 1.796 6.719 1.064 1.863 2.462 3.393 4.191 4.657v4.857c0 0.399 0.2 0.798 0.532 0.998s0.798 0.2 1.131 0l4.99-2.927c1.131 0.2 2.195 0.333 3.326 0.333 4.125 0.067 8.116-1.464 11.243-4.191 1.464-1.331 2.595-2.861 3.459-4.657 1.73-3.659 1.73-7.85 0-11.509zM8.798 16.549c-1.064 0-1.996-0.798-2.062-1.929 0-1.131 0.865-1.996 1.996-2.062 1.064 0 1.929 0.865 1.996 1.929s-0.798 1.996-1.929 2.062zM16.050 16.549c-1.064 0-1.996-0.798-2.062-1.929 0-1.131 0.865-1.996 1.996-2.062 1.064 0 1.929 0.865 1.996 1.929s-0.798 1.996-1.929 2.062zM23.368 16.549c-1.064 0-1.996-0.798-2.062-1.929 0-1.131 0.865-1.996 1.996-2.062 1.064 0 1.929 0.865 1.996 1.929s-0.798 1.996-1.929 2.062z"></path>
</svg>
