<!-- Generated by IcoMoon.io -->
<svg version="1.1" xmlns="http://www.w3.org/2000/svg" width="32" height="32" viewBox="0 0 32 32">
<title>message1</title>
<path fill="#b3b3b3" d="M30.73 8.862c-0.866-1.732-1.999-3.332-3.465-4.664-6.463-5.597-16.058-5.597-22.522 0-1.466 1.266-2.599 2.865-3.465 4.664-0.8 1.799-1.266 3.731-1.266 5.73 0 2.332 0.6 4.664 1.799 6.73 1.066 1.866 2.465 3.398 4.198 4.664v4.864c0 0.4 0.2 0.8 0.6 0.999 0.333 0.2 0.8 0.2 1.133 0l4.997-2.932c1.133 0.2 2.199 0.333 3.332 0.333 4.131 0.067 8.129-1.466 11.261-4.198 1.466-1.333 2.599-2.865 3.465-4.664 1.599-3.665 1.599-7.863-0.067-11.527zM16.004 27.319v0c-1.133 0-2.265-0.133-3.398-0.4-0.267-0.067-0.6 0-0.8 0.133l-3.798 2.265 0.067-3.532c0-0.4-0.2-0.8-0.533-0.999-3.398-2.265-5.464-6.064-5.53-10.128 0-6.996 6.263-12.66 13.993-12.66s13.993 5.664 13.993 12.66-6.263 12.66-13.993 12.66z"></path>
<path fill="#b3b3b3" d="M8.741 12.527c-1.133 0-1.999 0.933-1.999 2.066 0 1.066 0.933 1.932 2.066 1.932 1.066 0 1.932-0.933 1.932-2.066-0.067-1.066-0.933-1.932-1.999-1.932z"></path>
<path fill="#b3b3b3" d="M16.004 12.527c-1.133 0-1.999 0.933-1.999 2.066 0 0 0 0 0 0 0 1.066 0.933 1.932 2.066 1.932s1.932-0.933 1.932-2.066c0-1.066-0.866-1.932-1.999-1.932z"></path>
<path fill="#b3b3b3" d="M23.334 12.527c-1.133 0-1.999 0.933-1.999 2.066 0 0 0 0 0 0 0 1.066 0.933 1.932 2.066 1.932 1.066 0 1.932-0.933 1.932-2.066-0.067-1.066-0.933-1.932-1.999-1.932z"></path>
</svg>
