<!-- Generated by IcoMoon.io -->
<svg version="1.1" xmlns="http://www.w3.org/2000/svg" width="32" height="32" viewBox="0 0 32 32">
<title>monitor</title>
<path d="M15.883 8c-3.255 0-5.959 2.648-5.959 5.903s2.703 5.959 5.959 5.959c3.255 0 5.959-2.648 5.959-5.903 0 0 0 0 0 0 0-3.31-2.648-5.959-5.959-5.959zM15.993 18.538c-2.538 0-4.634-2.097-4.634-4.634s2.097-4.634 4.634-4.634c2.538 0 4.634 2.097 4.634 4.634 0 2.593-2.097 4.69-4.634 4.634z"></path>
<path d="M15.883 6.014c0.607 0 1.103-0.497 1.103-1.103s-0.497-1.103-1.103-1.103c-0.607 0-1.103 0.497-1.103 1.103 0 0 0 0 0 0 0 0.607 0.497 1.103 1.103 1.103v0z"></path>
<path d="M25.428 31.172c0-0.221-0.055-0.386-0.166-0.552l0.166 0.552z"></path>
<path d="M22.172 22.621l0.552 1.49c1.766-1.103 3.31-2.648 4.414-4.469 1.214-1.986 1.821-4.303 1.821-6.621 0-1.766-0.331-3.476-1.048-5.076-0.662-1.49-1.6-2.924-2.759-4.138s-2.593-2.152-4.138-2.759c-1.545-0.662-3.255-1.048-4.966-1.048-1.766 0-3.531 0.331-5.131 1.048-1.545 0.662-2.924 1.6-4.138 2.759-1.159 1.159-2.097 2.538-2.703 4.083-1.379 3.255-1.379 6.897 0 10.152 0.662 1.545 1.6 2.924 2.759 4.138s2.593 2.152 4.138 2.759c0.331 0.166 0.662 0.276 1.048 0.441l-1.71 5.076h-2.924c-0.331-0.11-0.717 0.11-0.828 0.441 0 0.055-0.055 0.166 0 0.221 0 0.497 0.331 0.883 0.828 0.883 0 0 0 0 0.055 0h17.159c0.441 0 0.828-0.386 0.883-0.828l-0.166-0.552c-0.11-0.11-0.276-0.221-0.441-0.221-0.055 0-0.166 0-0.221 0h-2.759l-1.766-5.131c0.828-0.276 1.6-0.607 2.317-1.048 0.11-0.055 0.221-0.11 0.331-0.221l-0.607-1.379c-0.166 0.11-0.276 0.221-0.441 0.276-1.71 0.993-3.697 1.545-5.683 1.545-6.29 0.055-11.421-5.076-11.476-11.366 0-3.034 1.214-6.014 3.366-8.166 2.097-2.152 5.021-3.366 8.055-3.366 6.29 0 11.421 5.131 11.421 11.421v0c0 2.041-0.497 4.028-1.545 5.738-0.938 1.6-2.152 2.924-3.697 3.917zM18.421 25.71l1.6 4.91h-8.11l1.71-4.8c1.6 0.276 3.255 0.221 4.8-0.11z"></path>
</svg>
