<!-- Generated by IcoMoon.io -->
<svg version="1.1" xmlns="http://www.w3.org/2000/svg" width="28" height="32" viewBox="0 0 28 32">
<title>msgCollect</title>
<path fill="#8cb2ff" d="M26.229 0h-3.031c-0.003 0-0.006 0-0.009 0-0.274 0-0.522 0.113-0.7 0.295v0c-0.182 0.175-0.295 0.421-0.295 0.694 0 0.003 0 0.006 0 0.010v0c0 0.003 0 0.006 0 0.009 0 0.274 0.113 0.522 0.295 0.7v0c0.181 0.182 0.432 0.294 0.709 0.295h3.031v2.999c0 0.003 0 0.006 0 0.009 0 0.272 0.113 0.518 0.295 0.693v0c0.178 0.182 0.426 0.295 0.7 0.295 0.003 0 0.006 0 0.010 0v0c0.003 0 0.006 0 0.010 0 0.276 0 0.526-0.113 0.705-0.295v0c0.182-0.175 0.295-0.421 0.295-0.694 0-0.003 0-0.006 0-0.010v0-2.999c-0.004-1.106-0.901-2.002-2.008-2.002-0.002 0-0.004 0-0.007 0v0zM27.232 16c-0.002 0-0.005 0-0.008 0-0.55 0-0.996 0.446-0.996 0.996 0 0 0 0.001 0 0.001v0 2.999h-3.031c-0.277 0-0.528 0.113-0.709 0.295v0c-0.047 0.053-0.089 0.113-0.123 0.177l-0.002 0.005c-1.077-1.054-2.345-1.918-3.747-2.535l-0.081-0.032c2.546-1.507 4.227-4.24 4.227-7.365 0-4.087-2.874-7.503-6.712-8.336l-0.056-0.010c-0.562-0.123-1.207-0.194-1.869-0.195h-0.001c-0.011 0-0.023 0-0.036 0-4.742 0-8.588 3.833-8.61 8.569v0.002c0.012 3.115 1.693 5.835 4.196 7.313l0.040 0.022c-1.482 0.653-2.749 1.519-3.83 2.575l0.002-0.002c-0.039-0.072-0.081-0.133-0.127-0.19l0.002 0.002c-0.18-0.178-0.428-0.289-0.701-0.289-0.003 0-0.005 0-0.008 0h-3.030v-2.999c0-0.003 0-0.006 0-0.009 0-0.274-0.113-0.522-0.295-0.7v0c-0.181-0.182-0.432-0.294-0.709-0.295v0c-0.279 0-0.532 0.113-0.715 0.295v0c-0.182 0.178-0.295 0.426-0.295 0.7 0 0.003 0 0.006 0 0.010v0 2.999c0.007 1.104 0.903 1.995 2.008 1.995 0.002 0 0.004 0 0.007 0h2.484c-1.703 2.191-2.857 4.887-3.211 7.83l-0.008 0.076c-0.007 0.062-0.011 0.133-0.011 0.205 0 1.044 0.846 1.891 1.891 1.891 0.003 0 0.007 0 0.010 0h21.897c0.002 0 0.004 0 0.006 0 1.046 0 1.894-0.848 1.894-1.894 0-0.071-0.004-0.141-0.012-0.211l0.001 0.009c-0.362-3.019-1.516-5.715-3.246-7.942l0.027 0.036h2.485c0.002 0 0.004 0 0.006 0 1.107 0 2.004-0.895 2.008-2.001v-3c0-0.002 0-0.003 0-0.005 0-0.276-0.113-0.525-0.295-0.704v0c-0.182-0.178-0.432-0.289-0.707-0.289-0.003 0-0.006 0-0.008 0v0zM1.018 5.998c0.003 0 0.006 0 0.009 0 0.274 0 0.522-0.113 0.7-0.295v0c0.182-0.175 0.295-0.421 0.295-0.694 0-0.003 0-0.006 0-0.010v0-2.999h3.031c0.277-0.001 0.528-0.113 0.709-0.295v0c0.182-0.178 0.295-0.426 0.295-0.7 0-0.003 0-0.006 0-0.010v0c0-0.003 0-0.006 0-0.009 0-0.272-0.113-0.518-0.295-0.693v0c-0.178-0.182-0.426-0.295-0.7-0.295-0.003 0-0.006 0-0.010 0h-3.030c-0.002 0-0.004 0-0.006 0-1.107 0-2.004 0.895-2.008 2.001v3c0 0.003 0 0.006 0 0.009 0 0.272 0.113 0.518 0.295 0.693v0c0.18 0.182 0.43 0.295 0.706 0.295 0.003 0 0.007 0 0.010 0h-0.001z"></path>
</svg>
