<!-- Generated by IcoMoon.io -->
<svg version="1.1" xmlns="http://www.w3.org/2000/svg" width="32" height="32" viewBox="0 0 32 32">
<title>netSign</title>
<path fill="#bc85e6" d="M30.389 8.241l-7.197-7.074c-0.8-0.8-2.092-0.8-2.891 0l-18.024 17.594c-0.677 1.661-1.845 9.043-2.276 11.75 0.246 0.308 0.492 0.615 0.861 0.861 2.707-0.369 10.519-2.461 11.565-2.83l18.024-17.532c0.738-0.738 0.738-1.969-0.062-2.768 0.062 0 0.062 0 0 0v0zM3.014 29.28l-0.738-0.677 0.615-3.629 3.506 3.383-3.383 0.923zM10.95 27.188l-2.276 0.615-5.352-5.229 0.431-2.399 14.395-14.026 1.476 1.415-13.718 13.287 1.415 1.415 13.718-13.349 1.415 1.415-10.765 10.519 1.476 1.415 10.827-10.519 1.476 1.415-14.518 14.026zM26.821 11.748l-7.197-7.013 2.153-2.092 7.197 7.013-2.153 2.092zM14.518 29.464h16.978c0.369 0.062 0.554 0.369 0.492 0.738 0 0 0 0 0 0.062v0.492c0 0.369-0.308 0.677-0.677 0.677h-16.855c-0.369 0-0.677-0.308-0.677-0.677 0 0 0 0 0 0v-0.492c0-0.492 0.369-0.8 0.738-0.8z"></path>
</svg>
