<!-- Generated by IcoMoon.io -->
<svg version="1.1" xmlns="http://www.w3.org/2000/svg" width="32" height="32" viewBox="0 0 32 32">
<title>nodeSuccess</title>
<path fill="#21de80" d="M16 0c0 0 0 0 0 0-8.853 0-16 7.147-16 16s7.147 16 16 16 16-7.147 16-16-7.147-16-16-16zM24.853 9.92c-0.107 0-0.107 0 0 0l-10.987 13.12c-0.107 0.107-0.32 0.213-0.533 0 0 0 0 0 0 0l-6.080-7.893c-0.107-0.107-0.107-0.213 0-0.213 0 0 0 0 0 0l0.853-1.173c0-0.107 0.213-0.107 0.32 0l4.693 4.587c0.32 0.213 0.64 0.213 0.96 0l9.493-9.387c0.107-0.107 0.32-0.107 0.32 0l0.853 0.64c0.107 0.107 0.107 0.213 0.107 0.32z"></path>
</svg>
