<!-- Generated by IcoMoon.io -->
<svg version="1.1" xmlns="http://www.w3.org/2000/svg" width="32" height="32" viewBox="0 0 32 32">
<title>node</title>
<path fill="#ff65aa" d="M27.318 11.259c-2.153 0-3.863 1.698-4.389 3.697h-13.309l6.897-6.4c0.741 0.533 1.667 0.852 2.667 0.852 0.004 0 0.009 0 0.013 0h-0.001c0.005 0 0.012 0 0.018 0 2.584 0 4.68-2.095 4.68-4.68s-2.095-4.68-4.68-4.68c-2.584 0-4.68 2.095-4.68 4.68 0 0.717 0.161 1.397 0.45 2.005l-0.012-0.028-6.525 6.471c-0.861-1.165-2.229-1.912-3.772-1.912-2.583 0-4.677 2.094-4.677 4.677s2.094 4.677 4.677 4.677c1.56 0 2.942-0.764 3.792-1.939l0.009-0.014 6.572 6.519c-0.324 0.611-0.515 1.336-0.515 2.105 0 0.007 0 0.013 0 0.020v-0.001 0.006c0.012 2.564 2.093 4.638 4.658 4.638 2.573 0 4.658-2.086 4.658-4.658s-2.084-4.657-4.655-4.658v0c-0.003 0-0.007 0-0.011 0-0.943 0-1.819 0.283-2.55 0.768l0.017-0.011-7.033-6.306h13.309c0.488 2.017 2.26 3.499 4.385 3.537h0.004c2.586 0 4.682-2.096 4.682-4.682s-2.096-4.682-4.682-4.682v0zM19.468 1.653c0.002 0 0.004 0 0.006 0 1.617 0 2.928 1.311 2.928 2.928s-1.311 2.928-2.928 2.928c-1.617 0-2.928-1.311-2.928-2.928v0c0.001-1.615 1.308-2.924 2.922-2.928v0zM4.822 18.683c-1.468-0.003-2.656-1.194-2.656-2.662 0-1.47 1.192-2.662 2.662-2.662s2.662 1.192 2.662 2.662c0 0.002 0 0.004 0 0.006v0c-0.006 1.468-1.197 2.656-2.666 2.656-0.001 0-0.001 0-0.002 0v0zM21.858 27.195c-0.003 1.464-1.191 2.65-2.656 2.65-1.467 0-2.656-1.189-2.656-2.656s1.189-2.656 2.656-2.656v0c1.468 0.003 2.656 1.194 2.656 2.662 0 0 0 0 0 0v0zM27.188 18.683c-1.468-0.003-2.656-1.194-2.656-2.662 0-1.47 1.192-2.662 2.662-2.662s2.662 1.192 2.662 2.662c0 0.002 0 0.004 0 0.006v0c-0.006 1.468-1.198 2.656-2.667 2.656 0 0 0 0-0.001 0v0z"></path>
</svg>
