<!-- Generated by IcoMoon.io -->
<svg version="1.1" xmlns="http://www.w3.org/2000/svg" width="32" height="32" viewBox="0 0 32 32">
<title>normal22</title>
<path fill="#fff" d="M0.103 17.235c-0.064-0.070-0.103-0.164-0.103-0.267 0-0.086 0.027-0.165 0.073-0.23l-0.001 0.001 1.356-1.845c0.061-0.078 0.154-0.128 0.26-0.128 0.073 0 0.14 0.024 0.194 0.064l-0.001-0.001 7.566 7.319c0.205 0.147 0.46 0.235 0.736 0.235 0.295 0 0.567-0.101 0.783-0.27l-0.003 0.002 19.166-17.461c0.062-0.050 0.141-0.080 0.227-0.080 0.098 0 0.187 0.039 0.253 0.102v0l1.295 1.262c0.058 0.059 0.095 0.139 0.095 0.229s-0.036 0.17-0.095 0.229v0l-21.227 20.838c-0.117 0.117-0.279 0.189-0.457 0.189s-0.34-0.072-0.457-0.189v0z"></path>
</svg>
