<!-- Generated by IcoMoon.io -->
<svg version="1.1" xmlns="http://www.w3.org/2000/svg" width="32" height="32" viewBox="0 0 32 32">
<title>normal2</title>
<path d="M16 0c-8.837 0-16 7.163-16 16s7.163 16 16 16 16-7.163 16-16-7.163-16-16-16zM16 30.525c-8.021 0-14.525-6.504-14.525-14.525s6.504-14.525 14.525-14.525 14.525 6.504 14.525 14.525-6.504 14.525-14.525 14.525zM15.028 23.188c-0.207 0-0.406-0.078-0.556-0.224l-5.653-5.51c-0.321-0.306-0.331-0.816-0.025-1.14 0.306-0.321 0.816-0.331 1.14-0.025l5.022 4.912 8.784-10.575c0.281-0.342 0.791-0.392 1.133-0.11s0.392 0.791 0.11 1.133l-9.336 11.245c-0.143 0.175-0.349 0.278-0.573 0.292-0.014 0.004-0.032 0.004-0.046 0.004v0z"></path>
</svg>
