<!-- Generated by IcoMoon.io -->
<svg version="1.1" xmlns="http://www.w3.org/2000/svg" width="32" height="32" viewBox="0 0 32 32">
<title>normal</title>
<path fill="#3dcc85" d="M16 0c-8.837 0-16 7.163-16 16s7.163 16 16 16c8.837 0 16-7.163 16-16v0c-0.006-8.834-7.166-15.994-15.999-16h-0.001zM26.051 10.735l-12.596 12.596c-0.259 0.269-0.622 0.436-1.024 0.436-0.003 0-0.006 0-0.009 0v0c-0.405 0-0.771-0.167-1.032-0.436l-5.44-5.44c-0.264-0.264-0.428-0.629-0.428-1.033 0-0.807 0.654-1.46 1.46-1.46 0.403 0 0.768 0.163 1.033 0.428v0l4.407 4.393 11.564-11.549c0.264-0.264 0.629-0.428 1.033-0.428 0.807 0 1.46 0.654 1.46 1.46 0 0.403-0.163 0.768-0.428 1.033v0z"></path>
</svg>
