<!-- Generated by IcoMoon.io -->
<svg version="1.1" xmlns="http://www.w3.org/2000/svg" width="32" height="32" viewBox="0 0 32 32">
<title>notime</title>
<path d="M28.37 23.313c-0.109 0.109-0.036 0.073-0.073 0.127l-0.018 0.018c-0.164 0.273-0.309 0.509-0.454 0.727l1.163 0.854c0.182-0.254 0.363-0.509 0.545-0.836 0.018-0.018 0.018-0.036 0.018-0.055l-0.018 0.018-1.163-0.854zM23.246 1.908c-0.291-0.127-0.581-0.273-0.854-0.382l-0.018-0.018-0.581 1.326 0.018 0.018c0.273 0.109 0.545 0.236 0.781 0.345 0.018 0 0.654-1.29 0.654-1.29zM18.522 0.091c-0.309-0.036-0.636-0.073-0.927-0.091h-0.018l-0.127 1.435h0.018c0.291 0.018 0.581 0.054 0.854 0.073 0 0.018 0.2-1.417 0.2-1.417zM29.879 19.697l1.381 0.436c0.109-0.309 0.182-0.618 0.236-0.981l-1.417-0.273c-0.055 0.291-0.127 0.563-0.2 0.818zM26.862 4.415l-0.981 1.072c0.2 0.182 0.418 0.382 0.6 0.6l1.072-0.981c-0.2-0.236-0.436-0.472-0.69-0.69zM30.369 14.827l1.454-0.091c-0.018-0.327-0.055-0.672-0.109-0.981l-1.436 0.2c0.055 0.309 0.073 0.581 0.091 0.872zM29.188 10.103l1.326-0.581c-0.127-0.291-0.254-0.563-0.4-0.854l-1.308 0.636c0.145 0.309 0.273 0.545 0.382 0.8zM15.233 6.105h-1.454v11.248l10.466 5.324 0.672-1.308-9.685-4.906z"></path>
<path d="M12.889 0.691c-2.998 0.654-5.724 2.162-7.922 4.361-2.326 2.308-3.87 5.215-4.488 8.395l-0.018 0.055c-0.345 1.835-0.382 3.689-0.073 5.488 0.672 4.179 2.944 7.795 6.396 10.194 3.452 2.417 7.632 3.307 11.811 2.562 0.581-0.109 1.127-0.236 1.635-0.382l0.273-0.073 0.018-0.018c0.218-0.073 0.418-0.145 0.636-0.218h0.018l0.127-0.055c1.308-0.491 2.544-1.127 3.634-1.908l-0.836-1.199c-0.963 0.672-2.035 1.254-3.18 1.69h-0.182l-0.109 0.109c-0.236 0.073-0.454 0.164-0.654 0.218l-0.2 0.036-0.018 0.018c-0.436 0.127-0.909 0.236-1.417 0.327-3.798 0.672-7.595-0.145-10.721-2.308s-5.16-5.433-5.778-9.213c-0.291-1.654-0.254-3.307 0.054-4.979l0.018-0.073c0.563-2.907 1.962-5.542 4.088-7.65 1.999-1.999 4.488-3.362 7.214-3.961l-0.327-1.417z"></path>
</svg>
