<!-- Generated by IcoMoon.io -->
<svg version="1.1" xmlns="http://www.w3.org/2000/svg" width="32" height="32" viewBox="0 0 32 32">
<title>notnormal1</title>
<path fill="#fff" d="M28.021 30.666h-24.043c-0.087 0.007-0.188 0.011-0.29 0.011-1.349 0-2.54-0.679-3.249-1.713l-0.009-0.013c-0.271-0.515-0.431-1.126-0.431-1.774 0-0.796 0.241-1.537 0.653-2.152l-0.009 0.014 12.128-21.509c0.514-1.301 1.761-2.205 3.219-2.205s2.705 0.904 3.211 2.182l0.008 0.023 12.146 21.518c0.404 0.6 0.644 1.338 0.644 2.133 0 0.647-0.159 1.256-0.441 1.792l0.010-0.021c-0.716 1.048-1.905 1.727-3.253 1.727-0.104 0-0.207-0.004-0.308-0.012l0.014 0.001zM15.991 3.128c-0.564 0.129-1.015 0.521-1.223 1.038l-0.004 0.012-12.582 22.416c-0.22 0.287-0.353 0.652-0.353 1.047 0 0.221 0.042 0.433 0.117 0.627l-0.004-0.012c0.328 0.381 0.811 0.62 1.349 0.62 0.082 0 0.163-0.006 0.243-0.016l-0.009 0.001h24.95c0.070 0.010 0.151 0.015 0.233 0.015 0.539 0 1.021-0.239 1.347-0.618l0.002-0.002c0.072-0.183 0.113-0.394 0.113-0.615 0-0.396-0.133-0.76-0.356-1.051l0.003 0.004-12.599-22.416c-0.21-0.529-0.662-0.923-1.216-1.047l-0.011-0.002zM16 20.476c-0.003 0-0.007 0-0.011 0-0.623 0-1.127-0.505-1.127-1.127 0-0.001 0-0.001 0-0.002v0-9.256c0-0.629 0.51-1.138 1.138-1.138s1.138 0.51 1.138 1.138v9.256c0 0.001 0 0.001 0 0.002 0 0.623-0.505 1.127-1.127 1.127-0.004 0-0.008 0-0.011 0h0.001zM15.991 25.998c0.965-0.010 1.743-0.794 1.743-1.76 0-0.972-0.788-1.761-1.761-1.761s-1.76 0.788-1.761 1.76v0c0.005 0.973 0.795 1.761 1.768 1.761 0.003 0 0.007 0 0.010 0h-0.001z"></path>
</svg>
