<!-- Generated by IcoMoon.io -->
<svg version="1.1" xmlns="http://www.w3.org/2000/svg" width="32" height="32" viewBox="0 0 32 32">
<title>notnormal</title>
<path fill="#f66" d="M31.306 25.041l-12.134-21.468c-0.4-0.933-1.067-1.6-2-2-1.733-0.667-3.733 0.133-4.534 2l-12.001 21.468c-0.8 1.2-0.8 2.667-0.267 3.867 0.8 1.2 2.133 1.867 3.6 1.733h24.001c1.467 0.133 2.8-0.533 3.6-1.733 0.667-1.2 0.533-2.667-0.267-3.867zM14.772 10.107c0-0.667 0.533-1.067 1.2-1.067s1.2 0.533 1.2 1.067v9.2c0 0.667-0.533 1.067-1.2 1.067s-1.067-0.533-1.2-1.067v-9.2zM15.972 25.975c-0.933 0-1.733-0.8-1.733-1.733s0.8-1.733 1.733-1.733c0.933 0 1.733 0.8 1.733 1.733s-0.8 1.733-1.733 1.733z"></path>
</svg>
