<!-- Generated by IcoMoon.io -->
<svg version="1.1" xmlns="http://www.w3.org/2000/svg" width="32" height="32" viewBox="0 0 32 32">
<title>notreport2</title>
<path d="M16 32c-8.82 0-15.999-7.18-15.999-16s7.179-16 15.999-16 15.999 7.18 15.999 16c0 8.82-7.179 16-15.999 16zM16 2c-7.72 0-14.001 6.28-14.001 14s6.281 14 14.001 14c7.72 0 14-6.28 14-14s-6.28-14-14-14zM16.889 18.604v1.583c0 0.517-0.398 0.938-0.889 0.938s-0.888-0.42-0.888-0.937v-1.583c0-1.532 1.111-2.703 2.092-3.735 0.719-0.759 1.463-1.541 1.463-2.166 0-1.562-1.196-2.831-2.667-2.831-1.495 0-2.667 1.216-2.667 2.767 0 0.517-0.397 0.936-0.888 0.936s-0.889-0.419-0.889-0.936c0-2.558 1.993-4.64 4.444-4.64s4.444 2.11 4.444 4.704c0 1.402-1.009 2.463-1.984 3.491-0.773 0.813-1.572 1.654-1.572 2.41zM16 22.080c0.736 0 1.333 0.628 1.333 1.404s-0.597 1.404-1.333 1.404-1.332-0.629-1.332-1.404c0-0.776 0.596-1.404 1.332-1.404z"></path>
</svg>
