<!-- Generated by IcoMoon.io -->
<svg version="1.1" xmlns="http://www.w3.org/2000/svg" width="32" height="32" viewBox="0 0 32 32">
<title>ondutyOver</title>
<path d="M16 0c-8.835 0-16 7.165-16 16s7.165 16 16 16 16-7.165 16-16c0-8.835-7.165-16-16-16zM24.278 10.852l-10.852 10.574c-0.139 0.139-0.417 0.139-0.557 0l-5.217-6.052c-0.070-0.070-0.070-0.209 0-0.278l0.835-1.113c0.070-0.070 0.209-0.070 0.278-0.070l3.896 3.757c0.278 0.209 0.626 0.209 0.904 0l9.6-7.861c0.070-0.070 0.209-0.070 0.278 0l0.765 0.765c0.139 0.070 0.139 0.209 0.070 0.278z"></path>
</svg>
