<!-- Generated by IcoMoon.io -->
<svg version="1.1" xmlns="http://www.w3.org/2000/svg" width="32" height="32" viewBox="0 0 32 32">
<title>paperTransfer</title>
<path fill="#3ece89" d="M25.601 9.399c0-0.493-0.37-0.864-0.864-0.925 0 0-0.062 0-0.062 0h-14.867c-0.493 0-0.864 0.37-0.925 0.864 0 0.493 0.37 0.864 0.864 0.925 0 0 0.062 0 0.062 0h14.867c0.494-0.062 0.925-0.432 0.925-0.864z"></path>
<path fill="#3ece89" d="M23.010 14.581h-13.201c-0.493 0-0.864 0.37-0.925 0.864 0 0.493 0.37 0.864 0.864 0.925 0 0 0.062 0 0.062 0h13.201c0.494 0 0.864-0.37 0.925-0.864 0 0 0 0 0 0 0-0.555-0.432-0.925-0.925-0.925 0 0 0 0 0 0z"></path>
<path fill="#3ece89" d="M18.692 20.688c0 0-0.062 0-0.062 0h-8.821c-0.493 0-0.864 0.37-0.925 0.864 0 0.494 0.37 0.864 0.864 0.925 0 0 0.062 0 0.062 0h8.821c0.494 0 0.864-0.37 0.925-0.864 0-0.494-0.37-0.925-0.864-0.925z"></path>
<path fill="#3ece89" d="M19 29.756v-0.062h-16.656c-0.432 0-0.555-0.123-0.555-0.494v-26.341c0-0.432 0.123-0.555 0.555-0.555h25.354c0.432 0 0.555 0.123 0.555 0.555v13.757c0 0.494 0.432 0.864 0.864 0.802 0.494 0 0.864-0.37 0.925-0.802v0-15.175c0-0.494-0.432-0.864-0.925-0.864h-28.253c-0.432 0-0.864 0.37-0.864 0.864 0 0 0 0 0 0v29.117c0 0.494 0.432 0.864 0.864 0.864v0h18.075v-0.062c0.308-0.123 0.494-0.432 0.494-0.74 0.062-0.37-0.123-0.74-0.432-0.864z"></path>
<path fill="#3ece89" d="M7.218 9.399c0-0.74-0.555-1.295-1.234-1.357 0 0 0 0-0.062 0-0.679 0-1.295 0.555-1.295 1.234 0 0 0 0 0 0 0 0.74 0.555 1.295 1.234 1.357 0.74 0.062 1.357-0.493 1.357-1.234z"></path>
<path fill="#3ece89" d="M6.354 22.847c0.74 0 1.295-0.555 1.357-1.234s-0.555-1.295-1.234-1.357c0 0 0 0-0.062 0-0.679 0-1.295 0.555-1.295 1.234 0 0.74 0.555 1.357 1.234 1.357z"></path>
<path fill="#3ece89" d="M6.292 16.74c0.74 0 1.295-0.555 1.357-1.234s-0.555-1.295-1.234-1.357c0 0 0 0-0.062 0-0.679 0-1.295 0.555-1.295 1.234-0.062 0.74 0.555 1.357 1.234 1.357z"></path>
<path fill="#3ece89" d="M31.831 21.429c-0.308-0.185-0.679-0.123-0.864 0.123l-7.094 6.292-2.838-2.221c-0.247-0.308-0.679-0.308-0.987-0.123-0.247 0.247-0.308 0.617-0.062 0.925l3.208 4.195c0.062 0.062 0.123 0.123 0.185 0.185 0.37 0.247 0.802 0.123 1.049-0.185l7.403-8.451c0.308-0.37 0.123-0.617 0-0.74z"></path>
</svg>
