<!-- Generated by IcoMoon.io -->
<svg version="1.1" xmlns="http://www.w3.org/2000/svg" width="32" height="32" viewBox="0 0 32 32">
<title>paperExchange</title>
<path fill="#4ca8ea" d="M15.997 14h-8.938c-0.938 0-1.125-2 0-2h8.938c1.625 0.563 0 2 0 2v0z"></path>
<path fill="#4ca8ea" d="M7.059 18h4.437c1.5 0 1.125 2 0 2h-4.438c-0.875 0-1.125-2 0-2v0z"></path>
<path fill="#4ca8ea" d="M14.684 29h-11.063v-27h14.375v6h6.438v8.063c0.688 0.063 1.375 0.188 2 0.438v-8.563l-7.875-7.938h-14.938c-1.875 0-2 0.688-2 2v27c0 1.313 0.438 2 2 2h12.188c-0.5-0.625-0.813-1.313-1.125-2z"></path>
<path fill="#4ca8ea" d="M26.184 22c1.063 1.063 1.75 2.5 1.938 4 0.875-2.125 0.375-4.625-1.188-6.313-2.188-2.188-5.688-2.25-7.875-0.063-0.063 0.063-0.125 0.125-0.125 0.125-0.313 0.313-0.563 0.625-0.813 1 2.625-1.438 5.875-0.25 7.688 1.688l0.375-0.438z"></path>
<path fill="#4ca8ea" d="M30.184 23.75c-0.125-0.438-0.25-0.813-0.438-1.188-0.188 3.063-2.25 5.75-5.25 6.625-1.438 0.438-2.938 0.313-4.313-0.188 1.375 1.813 3.75 2.625 5.938 1.938 3.063-0.938 4.875-4.063 4.063-7.188v0z"></path>
<path fill="#4ca8ea" d="M18.997 24.125c0.375-1.5 1.25-2.813 2.438-3.75-2.313 0.375-4.125 2.063-4.75 4.313-0.875 3.063 0.875 6.25 3.938 7.125 0 0 0 0 0 0 0.375 0.125 0.813 0.188 1.25 0.188-2.5-1.75-3.688-4.875-2.875-7.875v0 0z"></path>
</svg>
