<!-- Generated by IcoMoon.io -->
<svg version="1.1" xmlns="http://www.w3.org/2000/svg" width="32" height="32" viewBox="0 0 32 32">
<title>person2</title>
<path d="M15.998 0c-8.666 0-15.798 6.932-15.998 15.598v0.8c0.2 8.799 7.532 15.798 16.398 15.598 8.799-0.2 15.798-7.532 15.598-16.398-0.2-8.666-7.332-15.598-15.998-15.598zM22.597 24.264c0-3.533-2.866-6.399-6.332-6.532-0.2 0-0.333 0-0.533 0-3.533 0.133-6.332 3-6.332 6.532h-1.666c0-3.266 2-6.266 4.999-7.532-1.6-1.067-2.533-2.866-2.533-4.733 0 0 0 0 0 0 0-3.2 2.6-5.733 5.799-5.733s5.733 2.533 5.799 5.733c0 1.933-0.933 3.666-2.533 4.733 0 0 0 0 0 0 3 1.267 4.999 4.266 4.999 7.532h-1.666z"></path>
<path d="M15.998 16.065c2.266 0 4.133-1.8 4.133-4.066s-1.8-4.066-4.066-4.066c-2.266 0-4.133 1.8-4.133 4.066s1.8 4.066 4.066 4.066z"></path>
</svg>
