<!-- Generated by IcoMoon.io -->
<svg version="1.1" xmlns="http://www.w3.org/2000/svg" width="32" height="32" viewBox="0 0 32 32">
<title>person1</title>
<path fill="#b3b3b3" d="M19.264 16.731c1.6-1.067 2.533-2.866 2.533-4.733 0-3.2-2.6-5.733-5.799-5.733s-5.733 2.533-5.799 5.733c0 0 0 0 0 0 0 1.933 0.933 3.666 2.533 4.733-3 1.267-4.999 4.266-4.999 7.532h1.666c0-3.466 2.666-6.332 6.133-6.599 0.333 0 0.667 0 1 0 3.4 0.267 6.133 3.066 6.133 6.599h1.666c-0.067-3.333-2.066-6.266-5.066-7.532zM11.932 11.932c0-2.266 1.866-4.066 4.133-4.066s4.066 1.866 4.066 4.066c0 2.266-1.866 4.066-4.133 4.066-2.266 0.067-4.066-1.8-4.066-4.066z"></path>
<path fill="#b3b3b3" d="M15.998 0c-8.666 0-15.798 6.932-15.998 15.598v0.8c0.2 8.799 7.532 15.798 16.398 15.598 8.799-0.2 15.798-7.532 15.598-16.398-0.2-8.666-7.332-15.598-15.998-15.598zM15.998 29.996c-7.732 0-13.998-6.266-13.998-13.998s6.266-13.998 13.998-13.998 13.998 6.266 13.998 13.998c0 7.732-6.266 13.998-13.998 13.998z"></path>
</svg>
