<!-- Generated by IcoMoon.io -->
<svg version="1.1" xmlns="http://www.w3.org/2000/svg" width="22" height="32" viewBox="0 0 22 32">
<title>phone_l</title>
<path fill="#ffb680" d="M20.508 31.997h-8.867l-5.332-5.332h14.058v-24.723h-18.421v20.36l-1.939-1.939v-18.756c0.057-0.899 0.8-1.607 1.708-1.607 0.030 0 0.060 0.001 0.090 0.002h18.708c0.027-0.002 0.059-0.002 0.091-0.002 0.907 0 1.649 0.708 1.702 1.602v28.791c-0.055 0.899-0.797 1.607-1.705 1.607-0.033 0-0.065-0.001-0.098-0.003h0.004zM11.156 28.25c-0.541 0.063-0.958 0.518-0.958 1.071 0 0.595 0.483 1.078 1.078 1.078s1.078-0.483 1.078-1.078c0 0 0 0 0 0v0c-0.037-0.6-0.533-1.073-1.14-1.073-0.021 0-0.041 0.001-0.062 0.002h0.003zM18.913 25.211h-14.058l-1.454-1.454v-20.36h15.513v21.815z"></path>
</svg>
