<!-- Generated by IcoMoon.io -->
<svg version="1.1" xmlns="http://www.w3.org/2000/svg" width="32" height="32" viewBox="0 0 32 32">
<title>samelevel_total</title>
<path d="M11.163 0h-8.186c-1.637 0-2.977 1.34-2.977 2.977v8.186c0 1.637 1.34 2.977 2.977 2.977h11.163v-11.163c0-1.637-1.34-2.977-2.977-2.977zM12.651 12.651h-9.674c-0.819 0-1.488-0.67-1.488-1.488v-8.186c0-0.819 0.67-1.488 1.488-1.488h8.186c0.819 0 1.488 0.67 1.488 1.488v9.674z"></path>
<path d="M29.023 0h-8.186c-1.637 0-2.977 1.34-2.977 2.977v11.163h11.163c1.637 0 2.977-1.34 2.977-2.977v-8.186c0-1.637-1.34-2.977-2.977-2.977zM30.512 11.163c0 0.819-0.67 1.488-1.488 1.488h-9.674v-9.674c0-0.819 0.67-1.488 1.488-1.488h8.26c0.819 0 1.488 0.67 1.488 1.488v8.186z"></path>
<path d="M2.977 17.86c-1.637 0-2.977 1.34-2.977 2.977v8.186c0 1.637 1.34 2.977 2.977 2.977h8.186c1.637 0 2.977-1.34 2.977-2.977v-11.163h-11.163zM12.651 29.023c0 0.819-0.67 1.488-1.488 1.488h-8.186c-0.819 0-1.488-0.67-1.488-1.488v-8.186c0-0.819 0.67-1.488 1.488-1.488v0h9.749v9.674z"></path>
<path d="M29.023 17.86h-11.163v11.163c0 1.637 1.34 2.977 2.977 2.977h8.186c1.637 0 2.977-1.34 2.977-2.977v-8.186c0-1.637-1.34-2.977-2.977-2.977zM30.512 29.023c0 0.819-0.67 1.488-1.488 1.488h-8.186c-0.819 0-1.488-0.67-1.488-1.488v-9.674h9.749c0.819 0 1.488 0.67 1.488 1.488v8.186z"></path>
</svg>
