<!-- Generated by IcoMoon.io -->
<svg version="1.1" xmlns="http://www.w3.org/2000/svg" width="32" height="32" viewBox="0 0 32 32">
<title>sb</title>
<path fill="#ac7aff" d="M27.638 4.966h-23.224c-2.259 0-4.414 2.154-4.414 4.361v1.314c0 2.207 2.154 4.361 4.414 4.361h23.172c2.259 0 4.414-2.154 4.414-4.361v-1.314c0.053-2.207-2.102-4.361-4.361-4.361zM30.37 9.327v1.314c0 1.471-1.209 2.68-2.732 2.68 0 0 0 0 0 0h-23.224c-0.736 0-1.419-0.263-1.944-0.788-0.525-0.473-0.788-1.156-0.788-1.892v-1.314c0-0.736 0.263-1.419 0.788-1.892 0.525-0.525 1.208-0.788 1.944-0.788h23.172c1.524 0 2.732 1.156 2.785 2.68 0 0 0 0 0 0z"></path>
<path fill="#ac7aff" d="M27.638 16.998h-23.224c-2.259 0-4.414 2.154-4.414 4.361v1.314c0 2.207 2.154 4.361 4.414 4.361h23.172c2.259 0 4.414-2.154 4.414-4.361v-1.314c0.053-2.207-2.102-4.361-4.361-4.361zM27.638 25.353h-23.224c-1.471 0-2.732-1.156-2.732-2.68v-1.314c0-1.471 1.208-2.68 2.732-2.68 0 0 0 0 0 0h23.172c1.471 0 2.732 1.209 2.732 2.68 0 0 0 0 0 0v1.314c0 1.524-1.209 2.68-2.68 2.68z"></path>
<path fill="#ac7aff" d="M27.901 20.939c-0.368-0.368-0.893-0.578-1.471-0.578-0.841 0-1.576 0.473-1.892 1.261-0.315 0.736-0.158 1.629 0.473 2.207 0.578 0.578 1.471 0.736 2.259 0.42 0.736-0.315 1.261-1.051 1.261-1.839 0-0.578-0.21-1.103-0.631-1.471zM26.955 22.831c-0.158 0.105-0.315 0.21-0.473 0.21v0c-0.368 0-0.683-0.315-0.631-0.683 0-0.368 0.315-0.683 0.683-0.631 0.368 0 0.631 0.315 0.631 0.683 0 0.105-0.105 0.315-0.21 0.42z"></path>
<path fill="#ac7aff" d="M6.988 8.591c-0.368-0.368-0.893-0.578-1.471-0.578-0.841 0-1.576 0.473-1.892 1.261-0.315 0.736-0.158 1.629 0.473 2.207 0.578 0.578 1.471 0.736 2.259 0.42 0.736-0.315 1.261-1.051 1.261-1.839 0-0.63-0.21-1.103-0.63-1.471zM6.043 10.483c-0.158 0.105-0.315 0.21-0.473 0.21v0c-0.368 0-0.683-0.315-0.63-0.683 0-0.368 0.315-0.683 0.683-0.63 0.368 0 0.63 0.315 0.63 0.683 0 0.105-0.105 0.263-0.21 0.42z"></path>
<path fill="#ac7aff" d="M22.962 8.644c0 0.158-0.053 0.368-0.21 0.473s-0.315 0.21-0.473 0.21v0c-0.368 0-0.683-0.315-0.631-0.683 0-0.368 0.315-0.683 0.683-0.63 0.368 0 0.631 0.263 0.631 0.63z"></path>
<path fill="#ac7aff" d="M5.885 19.941c-0.841 0-1.629 0.368-2.154 1.051-0.525 0.631-0.683 1.524-0.473 2.312h1.471c-0.105-0.21-0.21-0.42-0.21-0.683 0-0.368 0.158-0.683 0.42-0.946s0.63-0.368 0.946-0.368h2.732v-1.314l-2.732-0.053z"></path>
<path fill="#ac7aff" d="M26.482 7.803v0h-2.732v1.314h2.732c0.368 0 0.683 0.158 0.946 0.368 0.263 0.263 0.42 0.578 0.42 0.946 0 0.21-0.053 0.473-0.21 0.683h1.471c0.21-0.788 0.053-1.629-0.473-2.312-0.525-0.63-1.314-0.998-2.154-0.998v0z"></path>
</svg>
