<!-- Generated by IcoMoon.io -->
<svg version="1.1" xmlns="http://www.w3.org/2000/svg" width="32" height="32" viewBox="0 0 32 32">
<title>scoreQuery</title>
<path fill="#edc917" d="M31.585 29.88l-5.689-5.63c2.193-2.607 3.378-5.867 3.378-9.304 0.119-8.059-6.341-14.696-14.459-14.815-8.118-0.059-14.755 6.459-14.815 14.518-0.059 8.118 6.4 14.755 14.518 14.815 0.059 0 0.118 0 0.118 0 3.555 0 7.289-1.718 9.837-3.793l5.689 5.63c0.237 0.237 0.593 0.415 0.948 0.415s0.237 0.296 0.474 0.059c0.237-0.237 0.415-0.593 0.415-0.948s-0.119-0.711-0.415-0.948zM14.637 27.628c-7.052-0.059-12.622-5.807-12.563-12.8 0.059-7.052 5.748-12.681 12.8-12.622 6.933 0.119 12.563 5.748 12.563 12.741-0.059 6.993-5.807 12.681-12.8 12.681z"></path>
<path fill="#edc917" d="M14.045 7.599l-4.741 13.511h1.778l1.185-3.674h5.215l1.304 3.674h1.778l-4.741-13.511h-1.778zM12.741 15.895l1.896-5.63c0.059-0.237 0.118-0.533 0.178-0.948h0.059c0.059 0.474 0.118 0.77 0.178 0.948l1.896 5.63h-4.207z"></path>
</svg>
