<!-- Generated by IcoMoon.io -->
<svg version="1.1" xmlns="http://www.w3.org/2000/svg" width="32" height="32" viewBox="0 0 32 32">
<title>search</title>
<path fill="#b3b3b3" d="M31.605 29.725l-5.665-5.665c2.116-2.525 3.401-5.808 3.401-9.392 0-8.101-6.567-14.668-14.668-14.668s-14.668 6.567-14.668 14.668c0 8.101 6.567 14.668 14.668 14.668 3.584 0 6.867-1.285 9.415-3.42l-0.023 0.019 5.655 5.675c0.241 0.241 0.574 0.39 0.942 0.39 0.736 0 1.333-0.597 1.333-1.333 0-0.368-0.149-0.701-0.39-0.942v0zM14.71 26.673c-6.61 0-11.968-5.358-11.968-11.968s5.358-11.968 11.968-11.968c6.61 0 11.968 5.358 11.968 11.968v0c-0.006 6.608-5.361 11.962-11.968 11.968h-0.001z"></path>
</svg>
