<!-- Generated by IcoMoon.io -->
<svg version="1.1" xmlns="http://www.w3.org/2000/svg" width="32" height="32" viewBox="0 0 32 32">
<title>setting</title>
<path fill="#fff" d="M31.145 12.807h-2.613c-0.001 0-0.003 0-0.005 0-0.372 0-0.687-0.244-0.794-0.581l-0.002-0.006c-0.238-0.727-0.49-1.336-0.783-1.921l0.037 0.081c-0.057-0.111-0.090-0.243-0.090-0.383 0-0.236 0.096-0.45 0.25-0.605l1.866-1.868c0.148-0.156 0.239-0.367 0.239-0.6s-0.091-0.444-0.24-0.6v0l-3.307-3.31c-0.156-0.149-0.367-0.24-0.6-0.24s-0.444 0.092-0.6 0.241l-1.867 1.868c-0.155 0.154-0.369 0.25-0.605 0.25-0.139 0-0.271-0.033-0.387-0.092l0.005 0.002c-0.519-0.275-1.128-0.528-1.762-0.726l-0.078-0.021c-0.339-0.116-0.58-0.429-0.586-0.799v-2.641c-0.015-0.475-0.403-0.854-0.88-0.854 0 0 0 0 0 0h-4.694c-0.003 0-0.006 0-0.009 0-0.465 0-0.842 0.377-0.842 0.842 0 0.002 0 0.003 0 0.005v0 2.615c0 0.001 0 0.002 0 0.003 0 0.372-0.244 0.688-0.581 0.795l-0.006 0.002c-0.727 0.238-1.336 0.491-1.921 0.783l0.081-0.037c-0.111 0.057-0.243 0.090-0.382 0.090-0.236 0-0.45-0.096-0.604-0.25l-1.866-1.868c-0.156-0.148-0.367-0.24-0.6-0.24s-0.444 0.091-0.6 0.24v0l-3.28 3.36c-0.149 0.156-0.24 0.367-0.24 0.6s0.091 0.444 0.24 0.6v0l1.866 1.868c0.154 0.155 0.25 0.369 0.25 0.605 0 0.139-0.033 0.271-0.092 0.387l0.002-0.005c-0.274 0.518-0.528 1.128-0.726 1.762l-0.021 0.078c-0.115 0.34-0.428 0.582-0.799 0.587h-2.668c-0.014-0.001-0.031-0.001-0.048-0.001-0.445 0-0.806 0.361-0.806 0.806 0 0.011 0 0.021 0.001 0.032v-0.002 4.697c0 0.003 0 0.007 0 0.010 0 0.466 0.378 0.843 0.843 0.843 0.004 0 0.007 0 0.011 0h2.613c0.001 0 0.002 0 0.003 0 0.373 0 0.688 0.244 0.795 0.581l0.002 0.006c0.237 0.727 0.49 1.335 0.783 1.92l-0.036-0.080c0.057 0.111 0.090 0.243 0.090 0.382 0 0.236-0.096 0.45-0.25 0.605l-1.867 1.869c-0.148 0.156-0.239 0.367-0.239 0.6s0.091 0.444 0.239 0.6v0l3.307 3.31c0.156 0.149 0.367 0.24 0.6 0.24s0.444-0.091 0.6-0.24v0l1.866-1.868c0.155-0.155 0.369-0.25 0.605-0.25 0.139 0 0.271 0.033 0.387 0.092l-0.005-0.002c0.518 0.274 1.127 0.527 1.761 0.726l0.079 0.021c0.339 0.116 0.58 0.429 0.586 0.799v2.617c0 0.004 0 0.009 0 0.014 0 0.466 0.377 0.843 0.843 0.843 0.003 0 0.007 0 0.010 0h4.693c0.003 0 0.007 0 0.011 0 0.465 0 0.842-0.377 0.842-0.842 0-0.004 0-0.008 0-0.012v0.001-2.586c0-0.001 0-0.003 0-0.004 0-0.372 0.244-0.688 0.581-0.794l0.006-0.002c0.727-0.238 1.336-0.491 1.921-0.784l-0.081 0.037c0.111-0.057 0.243-0.090 0.382-0.090 0.236 0 0.45 0.096 0.604 0.25v0l1.867 1.868c0.156 0.149 0.367 0.24 0.6 0.24s0.444-0.091 0.6-0.24v0l3.306-3.31c0.148-0.156 0.24-0.367 0.24-0.6s-0.091-0.444-0.24-0.6v0l-1.867-1.868c-0.154-0.155-0.25-0.369-0.25-0.605 0-0.139 0.033-0.271 0.092-0.387l-0.002 0.005c0.274-0.518 0.527-1.128 0.725-1.761l0.021-0.079c0.115-0.34 0.429-0.581 0.799-0.587h2.614c0.004 0 0.008 0 0.012 0 0.489 0 0.886-0.392 0.894-0.879v-4.705c0-0.003 0-0.007 0-0.011 0-0.465-0.377-0.842-0.842-0.842-0.004 0-0.008 0-0.013 0h0.001zM16 23.536c-0.002 0-0.004 0-0.006 0-4.157 0-7.526-3.37-7.526-7.526s3.37-7.526 7.526-7.526c4.157 0 7.526 3.37 7.526 7.526v0c-0.002 4.153-3.367 7.52-7.519 7.526h-0.001z"></path>
</svg>
