<!-- Generated by IcoMoon.io -->
<svg version="1.1" xmlns="http://www.w3.org/2000/svg" width="32" height="32" viewBox="0 0 32 32">
<title>sfyz</title>
<path fill="#1ddcd5" d="M19.561 16.979c2.538 0.756 4.375 2.207 6.136 4.193 0.204 0.229 0.5 0.373 0.83 0.373 0.001 0 0.002 0 0.003 0v0c0.259 0 0.083-0.089 0.292-0.276 0.23-0.202 0.375-0.496 0.375-0.825 0-0.279-0.104-0.534-0.276-0.727l0.001 0.001c-1.61-1.813-3.594-3.256-5.835-4.213l-0.107-0.041c1.654-1.447 2.693-3.562 2.693-5.919 0-0.041 0-0.082-0.001-0.123v0.006c0-4.528-2.704-8.229-7.89-8.325-0.091-0.004-0.199-0.006-0.306-0.006-4.435 0-8.031 3.596-8.031 8.031 0 0.105 0.002 0.21 0.006 0.315v-0.015c0.044 2.444 0.855 4.529 2.566 6.036-5.71 2.424-9.706 7.854-10.013 14.251l-0.001 0.037c-0.001 0.013-0.001 0.029-0.001 0.045 0 0.594 0.47 1.079 1.058 1.103h0.052c0.585 0 0.64-0.46 0.668-1.048 0.265-5.995 3.895-11.172 9.683-12.88l0.083-0.026c1.12 0.441 2.415 0.732 3.768 0.81l0.034 0.002c1.496-0.081 2.898-0.372 4.213-0.846l-0.103 0.032c0.027 0.012 0.062 0.024 0.097 0.035l0.007 0.002zM9.381 9.183c0.102-3.272 2.779-5.886 6.067-5.886s5.965 2.614 6.066 5.877v0.009c0 3.236-2.726 6.271-6.069 6.271s-6.064-3.037-6.064-6.271v0zM31.677 20.562c-0.436-0.431-0.999 0.269-1.429 0.699l-7.89 7.449-3.509-3.505c-0.43-0.429-1.264-1.137-1.694-0.709-0.202 0.198-0.327 0.473-0.327 0.778s0.125 0.58 0.327 0.778v0l4.497 4.469c0.2 0.198 0.475 0.321 0.778 0.321 0.002 0 0.004 0 0.006 0v0c0.305-0.001 0.582-0.123 0.784-0.321v0l8.458-8.401c0.199-0.199 0.323-0.474 0.323-0.778s-0.123-0.579-0.323-0.778v0z"></path>
</svg>
