<!-- Generated by IcoMoon.io -->
<svg version="1.1" xmlns="http://www.w3.org/2000/svg" width="32" height="32" viewBox="0 0 32 32">
<title>sign</title>
<path fill="#ffac5b" d="M27.293 31.087c0-0.456-0.399-0.856-0.856-0.856h-8.841c1.825-1.768 3.536-3.536 5.191-5.362 1.426-1.597 2.681-3.365 3.707-5.248 1.939-3.536 2.51-7.301 1.597-10.495-1.027-3.765-3.822-6.845-7.472-8.271-3.879-1.483-8.214-1.027-11.693 1.255-2.681 1.711-4.506 4.392-5.133 7.529-0.627 2.795-0.285 5.704 0.913 8.328 0.97 2.11 2.224 4.164 3.708 5.932 2.053 2.396 4.221 4.677 6.502 6.788l0.513 0.456c0 0 0 0 0 0 0 0.456 0.399 0.856 0.856 0.856h10.21c0 0 0 0 0 0 0.399-0.057 0.799-0.456 0.799-0.913zM9.668 22.76c-1.369-1.711-2.567-3.593-3.479-5.59-1.027-2.282-1.312-4.791-0.799-7.244 0.513-2.624 2.11-4.962 4.392-6.388 1.882-1.198 4.050-1.825 6.274-1.825v0c1.312 0 2.681 0.228 3.936 0.741 3.194 1.198 5.59 3.879 6.502 7.187 0.799 2.738 0.228 6.046-1.483 9.183-0.97 1.768-2.167 3.422-3.479 4.962-1.711 1.882-3.536 3.822-5.476 5.647-2.282-2.11-4.392-4.335-6.388-6.674z"></path>
<path fill="#ffac5b" d="M13.603 31.087c0-0.456-0.399-0.856-0.856-0.856h-3.993c0 0 0 0 0 0-0.456 0-0.856 0.399-0.856 0.856s0.342 0.856 0.856 0.856h3.993c0.456 0 0.799-0.399 0.856-0.856z"></path>
<path fill="#ffac5b" d="M20.619 12.037c0-2.567-2.053-4.62-4.62-4.62s-4.62 2.053-4.677 4.62 2.053 4.62 4.62 4.677c2.624-0.057 4.677-2.11 4.677-4.677zM15.999 15.003c-1.654 0-2.966-1.312-2.966-2.966s1.312-2.966 2.966-2.966c1.654 0 2.966 1.312 2.966 2.966s-1.312 2.966-2.966 2.966z"></path>
</svg>
