<!-- Generated by IcoMoon.io -->
<svg version="1.1" xmlns="http://www.w3.org/2000/svg" width="32" height="32" viewBox="0 0 32 32">
<title>sjlz</title>
<path fill="#4ca8ea" d="M17.173 0h-13.76c-1.76 0-1.813 0.64-1.813 1.813v24.693c0 1.227 0.427 1.813 1.813 1.813h14.080c-0.693-0.48-1.227-1.12-1.6-1.813h-12.48v-24.693h13.227v5.493h5.92v9.333c0.64 0.16 1.28 0.48 1.813 0.96v-10.347l-7.2-7.253z"></path>
<path fill="#4ca8ea" d="M14.827 12.8h-8.213c-0.907 0-1.067-1.813 0-1.813h8.213c1.493 0.533 0 1.813 0 1.813z"></path>
<path fill="#4ca8ea" d="M10.72 18.293h-4.107c-0.853 0-1.067-1.813 0-1.813h4.107c1.333-0.053 1.013 1.813 0 1.813z"></path>
<path fill="#4ca8ea" d="M24.427 15.040c-0.587-0.213-1.227-0.32-1.813-0.427-0.32 0-0.64 0-0.907 0v0c-4.8 0-8.693 3.893-8.693 8.693 0 1.12 0.213 2.24 0.587 3.2 0.267 0.64 0.587 1.28 1.013 1.813 1.6 2.24 4.16 3.68 7.093 3.68 4.8 0 8.693-3.893 8.693-8.693-0.053-3.84-2.507-7.093-5.973-8.267zM17.44 18.027c0.053-0.053 0.053-0.053 0.107-0.107 1.387-1.333 3.307-1.813 5.067-1.333 0.64 0.16 1.28 0.48 1.813 0.96 0.16 0.107 0.32 0.267 0.48 0.427 1.493 1.547 1.92 3.787 1.12 5.76-0.16-1.28-0.693-2.453-1.547-3.36-0.053-0.053-0.16-0.16-0.213-0.267l-0.427 0.373c-0.373-0.373-0.8-0.693-1.227-1.013-1.707-1.067-3.947-1.547-5.867-0.533 0.213-0.32 0.427-0.587 0.693-0.907zM19.093 29.067c0 0 0 0 0 0-0.64-0.16-1.12-0.427-1.6-0.747-0.693-0.48-1.227-1.12-1.6-1.813-0.64-1.173-0.8-2.56-0.427-3.947 0.533-2.080 2.24-3.627 4.373-3.947-1.067 0.907-1.867 2.080-2.24 3.413-0.427 1.493-0.267 3.093 0.32 4.427 0.32 0.693 0.693 1.28 1.227 1.813 0.32 0.32 0.693 0.64 1.067 0.907-0.32 0.053-0.747 0-1.12-0.107zM24.16 28.267c-0.853 0.267-1.76 0.267-2.56 0.053-1.12-0.267-2.133-0.907-2.88-1.813 0 0 0 0 0-0.053 0 0 0.053 0 0.107 0.053 1.227 0.48 2.613 0.533 3.893 0.16 0.64-0.16 1.227-0.427 1.76-0.8 1.76-1.12 2.933-3.093 3.093-5.227 0.16 0.373 0.32 0.693 0.427 1.067 0.64 2.827-1.013 5.76-3.84 6.56z"></path>
</svg>
