<!-- Generated by IcoMoon.io -->
<svg version="1.1" xmlns="http://www.w3.org/2000/svg" width="32" height="32" viewBox="0 0 32 32">
<title>success</title>
<path d="M16 0c-8.8 0-16 7.2-16 16s7.2 16 16 16 16-7.2 16-16-7.2-16-16-16zM26.32 9.92c0 0 0 0 0 0l-13.76 13.12c-0.16 0.16-0.4 0.16-0.64 0l-6.24-6.24c-0.080-0.080-0.080-0.24 0-0.32l0.88-1.2c0.080-0.080 0.16-0.080 0.24 0l4.88 3.68c0.32 0.24 0.72 0.16 0.96 0l12.56-10.16c0.080-0.080 0.24-0.080 0.32 0l0.88 0.8c0 0.16 0 0.24-0.080 0.32z"></path>
</svg>
