<!-- Generated by IcoMoon.io -->
<svg version="1.1" xmlns="http://www.w3.org/2000/svg" width="32" height="32" viewBox="0 0 32 32">
<title>taskList</title>
<path d="M30.441 17.561h-21.855c-0.862 0-1.562-0.699-1.562-1.561s0.7-1.562 1.562-1.562h21.855c0.861 0 1.559 0.699 1.559 1.562s-0.699 1.561-1.559 1.561zM30.441 6.634h-21.855c-0.862 0-1.562-0.699-1.562-1.561s0.7-1.561 1.562-1.561h21.855c0.861 0 1.559 0.699 1.559 1.561s-0.699 1.561-1.559 1.561zM1.561 28.488c-0.862 0-1.561-0.699-1.561-1.561s0.699-1.562 1.561-1.562c0.862 0 1.561 0.699 1.561 1.562s-0.699 1.561-1.561 1.561zM1.561 17.561c-0.862 0-1.561-0.699-1.561-1.561s0.699-1.562 1.561-1.562c0.862 0 1.561 0.699 1.561 1.562s-0.699 1.561-1.561 1.561zM1.561 6.634c-0.862 0-1.561-0.699-1.561-1.561s0.699-1.561 1.561-1.561c0.862 0 1.561 0.699 1.561 1.561s-0.699 1.561-1.561 1.561zM8.585 25.365h21.855c0.861 0 1.559 0.699 1.559 1.562s-0.699 1.561-1.559 1.561h-21.855c-0.862 0-1.562-0.699-1.562-1.561s0.7-1.562 1.562-1.562z"></path>
</svg>
