<!-- Generated by IcoMoon.io -->
<svg version="1.1" xmlns="http://www.w3.org/2000/svg" width="26" height="32" viewBox="0 0 26 32">
<title>td</title>
<path fill="#7c77f9" d="M23.755 31.998h-21.784c-1.085-0.002-1.964-0.881-1.964-1.967 0-0.002 0-0.003 0-0.005v0-26.031c-0.005-0.047-0.008-0.102-0.008-0.157 0-0.862 0.699-1.56 1.56-1.56 0.057 0 0.113 0.003 0.168 0.009l-0.007-0.001h5.142s0.758 1.714-0.571 1.714h-2.857c-0.025-0.001-0.054-0.002-0.083-0.002-0.902 0-1.634 0.731-1.634 1.634 0 0.029 0.001 0.058 0.002 0.087v-0.004 22.854c0 0.76 0.244 1.714 1.714 1.714h18.855c0.917-0.070 1.645-0.797 1.714-1.708v-22.86c-0.032-0.933-0.781-1.682-1.711-1.714h-2.86c-0.706 0-1.050 0.202-1.050-0.505l-0.093-1.209h5.142c1.086 0 2.285 0.628 2.285 1.714v26.027c0 0.001 0 0.002 0 0.003 0 1.085-0.879 1.965-1.964 1.967v0zM6.858 20.274c0.001-0.429 0.349-0.777 0.778-0.777 0.002 0 0.004 0 0.007 0h8.517l-3.336-3.314c-0.143-0.14-0.231-0.336-0.231-0.551s0.088-0.411 0.231-0.551v0c0.143-0.138 0.339-0.223 0.554-0.223 0.001 0 0.001 0 0.002 0v0c0.001 0 0.003 0 0.005 0 0.215 0 0.409 0.087 0.549 0.229v0l4.689 4.657c0.142 0.141 0.23 0.336 0.23 0.551s-0.088 0.411-0.23 0.551v0c-0.013 0.011-0.025 0.023-0.039 0.034l-4.653 4.588c-0.142 0.142-0.338 0.229-0.555 0.229s-0.413-0.088-0.555-0.229v0c-0.141-0.139-0.229-0.331-0.229-0.544 0-0.001 0-0.003 0-0.004v0c0.001-0.214 0.088-0.408 0.229-0.549v0l3.371-3.325h-8.55c-0.003 0-0.006 0-0.009 0-0.427 0-0.773-0.345-0.776-0.771v0zM20.171 9.367v0.040c0.010 0.046 0.016 0.098 0.016 0.152 0 0.402-0.326 0.728-0.728 0.728-0.009 0-0.018 0-0.027 0h-13.14c-0.008 0-0.018 0.001-0.028 0.001-0.402 0-0.728-0.326-0.728-0.728 0-0.054 0.006-0.107 0.017-0.157l-0.001 0.005v-0.040c0-0.002 0-0.005 0-0.007 0-1.437 0.957-2.651 2.269-3.038l0.022-0.006c0.991-0.237 1.716-1.114 1.718-2.161v-0.89c0-0.002 0-0.003 0-0.005 0-1.798 1.456-3.255 3.254-3.257h0.064c0 0 0 0 0 0 1.799 0 3.257 1.458 3.257 3.257 0 0.002 0 0.004 0 0.005v0 0.883c0.003 1.052 0.735 1.932 1.717 2.162l0.015 0.003c1.34 0.39 2.303 1.606 2.303 3.048 0 0.002 0 0.004 0 0.007v0zM12.863 2.325c-0.001 0-0.001 0-0.002 0-0.545 0-0.986 0.442-0.986 0.986s0.441 0.986 0.986 0.986c0.545 0 0.986-0.442 0.986-0.986v0c0-0.544-0.44-0.985-0.984-0.986v0z"></path>
</svg>
