<!-- Generated by IcoMoon.io -->
<svg version="1.1" xmlns="http://www.w3.org/2000/svg" width="26" height="32" viewBox="0 0 26 32">
<title>tdx</title>
<path fill="#7c77f9" d="M24.188 31.999h-22.181c-1.104-0.002-1.999-0.898-1.999-2.002 0-0.002 0-0.003 0-0.005v0-25.924c-0.005-0.048-0.008-0.103-0.008-0.159 0-0.877 0.711-1.589 1.589-1.589 0.058 0 0.115 0.003 0.171 0.009l-0.007-0.001h5.236s0.771 1.745-0.582 1.745h-2.909c-0.025-0.001-0.055-0.002-0.084-0.002-0.919 0-1.663 0.745-1.663 1.663 0 0.030 0.001 0.059 0.002 0.088v-0.004 22.689c0 0.774 0.248 1.745 1.745 1.745h19.198c0.934-0.071 1.674-0.811 1.745-1.739v-22.695c-0.031-0.951-0.794-1.714-1.742-1.745h-2.912c-0.719 0-1.069 0.204-1.069-0.512l-0.094-1.233h5.236c1.105 0 2.327 0.64 2.327 1.745v25.918c0 0.001 0 0.003 0 0.005 0 1.105-0.895 2.001-1.999 2.002v0zM7.28 22.69h12.217c0.482 0 0.873 0.391 0.873 0.873s-0.391 0.873-0.873 0.873v0h-12.217c-0.482 0-0.873-0.391-0.873-0.873s0.391-0.873 0.873-0.873v0zM7.28 16.873h9.308c0.482 0 0.873 0.391 0.873 0.873s-0.391 0.873-0.873 0.873v0h-9.308c-0.482 0-0.873-0.391-0.873-0.873s0.391-0.873 0.873-0.873v0zM20.54 9.537v0.041c0.010 0.047 0.016 0.1 0.016 0.155 0 0.409-0.332 0.741-0.741 0.741-0.010 0-0.019 0-0.029-0.001h-13.38c-0.008 0-0.018 0.001-0.027 0.001-0.409 0-0.741-0.332-0.741-0.741 0-0.055 0.006-0.109 0.017-0.16l-0.001 0.005v-0.041c0-0.002 0-0.004 0-0.006 0-1.464 0.975-2.7 2.311-3.095l0.023-0.006c1.008-0.242 1.746-1.134 1.749-2.199v-0.908c0-0.001 0-0.002 0-0.002 0-1.831 1.483-3.316 3.313-3.32h0.066c1.831 0.004 3.313 1.488 3.313 3.32 0 0.001 0 0.002 0 0.002v0 0.896c0.001 1.072 0.747 1.97 1.749 2.202l0.015 0.003c1.366 0.396 2.347 1.636 2.347 3.105 0 0.003 0 0.005 0 0.008v0zM13.098 2.363c-0.001 0-0.003 0-0.005 0-0.556 0-1.006 0.451-1.006 1.006s0.451 1.006 1.006 1.006c0.556 0 1.006-0.451 1.006-1.006v0c0-0.554-0.448-1.003-1.002-1.006v0z"></path>
</svg>
