<!-- Generated by IcoMoon.io -->
<svg version="1.1" xmlns="http://www.w3.org/2000/svg" width="32" height="32" viewBox="0 0 32 32">
<title>total</title>
<path fill="#7188fe" d="M16 2.857c-8.857 0-16 6.857-16 15.314 0 4.171 1.771 8.171 4.857 10.971h22.286c3.086-2.8 4.857-6.8 4.857-10.971 0-8.457-7.143-15.314-16-15.314zM26.629 27.429h-21.257c-2.343-2.457-3.657-5.771-3.657-9.143 0-7.6 6.4-13.714 14.286-13.714s14.286 6.114 14.286 13.714c0 3.371-1.314 6.686-3.657 9.143z"></path>
<path fill="#7188fe" d="M24.629 18.743l2.743-0.457 0.229 1.429-2.686 0.457z"></path>
<path fill="#7188fe" d="M23.371 14.229l-1.143-0.971 1.771-2 1.143 0.914z"></path>
<path fill="#7188fe" d="M7.429 20.171l-2.743-0.457 0.286-1.429 2.686 0.457z"></path>
<path fill="#7188fe" d="M7.143 12.171l1.2-0.914 1.771 2-1.2 0.971z"></path>
<path fill="#7188fe" d="M15.429 8.971h1.543v2.629h-1.543v-2.629z"></path>
<path fill="#7188fe" d="M17.2 20.8l-4.629-4.914 2.571 6c-0.4 0.686-0.4 1.543 0.057 2.229 0.686 1.029 2.114 1.314 3.2 0.686 1.029-0.571 1.371-1.886 0.8-2.914 0-0.057-0.057-0.057-0.057-0.114-0.457-0.571-1.2-0.971-1.943-0.971v0 0z"></path>
</svg>
