<!-- Generated by IcoMoon.io -->
<svg version="1.1" xmlns="http://www.w3.org/2000/svg" width="32" height="32" viewBox="0 0 32 32">
<title>user</title>
<path fill="#b9c3e7" opacity="0.5" d="M16 0v0c-8.836 0.001-15.999 7.164-16 16v0c0 8.837 7.163 16 16 16s16-7.163 16-16c0-8.837-7.163-16-16-16zM7.466 25.066s-0.042-2.419 0.502-2.931 0.762-1.437 3.638-1.859 2.576-1.92 2.669-1.872c-0.019-0.57-0.074-1.37-0.074-1.37s-1.498-0.627-1.939-1.872c-0.928-0.368-0.803-0.605-0.893-1.082 0 0-0.282-1.93 0.342-1.888 0.003 0 0.006 0 0.010 0 0.178 0 0.322-0.144 0.322-0.322 0-0.044-0.009-0.087-0.025-0.125l0.001 0.002c-0.032-0.739-0.032-2.17 0.019-2.662s0.416-1.821 1.462-2.019c0.283-0.073 0.616-0.125 0.957-0.146l0.016-0.001c0.349-0.051 0.25-0.246 0.893-0.246l1.344-0.272c0.646 0 1.059 1.043 1.408 1.094s0.432-0.15 1.142-0.019c1.043 0.198 0.899 1.603 0.95 2.096 0.049 0.406 0.078 0.876 0.078 1.353 0 0.325-0.013 0.646-0.039 0.964l0.003-0.042c-0.099 0.442 0.211 0.394 0.211 0.394 0.746 0 0.509 1.891 0.509 1.891-0.112 0.499-0.426 0.56-1.12 0.995-0.442 1.242-1.85 2.16-1.85 2.16s-0.006 1.030-0.013 1.254c0.019 0.090-0.16 1.373 2.294 1.734 2.877 0.422 3.373 1.344 3.914 1.859s0.602 2.931 0.602 2.931h-17.334z"></path>
</svg>
