<!-- Generated by IcoMoon.io -->
<svg version="1.1" xmlns="http://www.w3.org/2000/svg" width="32" height="32" viewBox="0 0 32 32">
<title>videoInvigilator</title>
<path fill="#bc85e6" d="M29.657 2.287h-27.312c-1.428 0-2.343 0.629-2.343 2.343v17.942c-0.057 1.314 0.971 2.457 2.286 2.571h10.285v2.857l-2.286 1.143v0.571h11.428v-0.571l-2.286-1.143v-2.857h10.285c1.6 0 2.286-0.514 2.286-2.286v-18.227c0-1.6-0.743-2.343-2.343-2.343zM16.001 24.342c-0.629 0-1.2-0.514-1.2-1.2 0 0 0 0 0 0 0-0.629 0.514-1.2 1.2-1.2 0 0 0 0 0 0 0.629 0 1.2 0.514 1.2 1.2s-0.514 1.2-1.2 1.2zM29.714 20h-27.427v-15.427h27.427v15.427z"></path>
</svg>
