<!-- Generated by IcoMoon.io -->
<svg version="1.1" xmlns="http://www.w3.org/2000/svg" width="32" height="32" viewBox="0 0 32 32">
<title>warning</title>
<path d="M15.8 6c-5.915 0.033-10.697 4.836-10.697 10.755 0 0.016 0 0.031 0 0.047v-0.002 11.2h21.794v-10.8c0-0.010 0-0.021 0-0.033 0-6.143-4.96-11.127-11.093-11.167h-0.004zM24.914 26h-11.886v-10h-1.983v10h-3.96v-9.2c0-0.010 0-0.021 0-0.033 0-4.823 3.895-8.737 8.711-8.767h0.003c5.040 0.031 9.114 4.124 9.114 9.168 0 0.011 0 0.022 0 0.033v-0.002 8.8zM30.857 30v2h-29.714v-2h29.714zM16.989 4h-1.983v-4h1.983v4zM6.72 7.623l-2.389-3 1.543-1.251 2.394 3zM25.086 7.651l-1.503-1.303 2.56-3 1.503 1.303z"></path>
</svg>
