<!-- Generated by IcoMoon.io -->
<svg version="1.1" xmlns="http://www.w3.org/2000/svg" width="32" height="32" viewBox="0 0 32 32">
<title>wks</title>
<path fill="#d9d9d9" d="M32 32v-32h-32zM29.914 18.902c0.189-0.578 0.331-1.089 0.434-1.532l0.594 0.207c-0.268 1.142-0.566 2.1-0.922 3.030l0.054-0.16-0.64-0.229c0.166-0.427 0.263-0.67 0.28-0.73q-1.526-1.143-3.154-2.588l0.349-0.491q0.857 0.278 3.583-0.787l0.291 0.589c-0.912 0.363-1.981 0.657-3.089 0.834l-0.088 0.012q1.183 1.030 2.309 1.846zM27.634 15.248l-0.274 0.271c-0.925 0.872-1.999 1.598-3.178 2.134l-0.073 0.030c-0.004 0.571-0.045 1.129-0.122 1.676l0.008-0.066-0.669 0.051q0.094-0.692 0.12-1.416c-0.61 0.202-1.312 0.318-2.041 0.318-0.070 0-0.14-0.001-0.209-0.003h0.010l0.074-0.659c0.080 0.004 0.174 0.006 0.269 0.006 0.69 0 1.352-0.118 1.967-0.334l-0.042 0.013c0.006-0.461 0-1.013-0.011-1.657q1.080-0.614 2.229-1.415l-0.514-0.514 0.446-0.446 0.594 0.595c0.474-0.343 0.954-0.706 1.434-1.086l0.423 0.498c-0.497 0.383-0.96 0.732-1.4 1.047zM26.16 14.665c-0.578 0.417-1.251 0.852-1.947 1.252l-0.116 0.062q0.026 0.543 0.017 1.041c1.009-0.481 1.878-1.070 2.642-1.771l-0.008 0.007zM24.269 11.089l-1.714 1.714 1.411 1.417-0.446 0.446-1.411-1.417-2.869 2.862-0.469-0.473 2.863-2.862-1.869-1.869c-0.581 0.512-1.25 0.941-1.98 1.26l-0.049 0.019c-0.385 0.148-0.83 0.233-1.295 0.233-0.426 0-0.835-0.072-1.217-0.204l0.026 0.008 0.154-0.653c0.306 0.098 0.657 0.155 1.022 0.155 0.453 0 0.885-0.087 1.282-0.246l-0.023 0.008c0.614-0.306 1.143-0.656 1.623-1.063l-0.012 0.010-1.497-1.494 0.451-0.446 1.514 1.52 0.234-0.219 1.486-1.486-1.171-1.177 0.451-0.452 5.034 5.039-0.457 0.452zM21.966 8.786l-1.606 1.6-0.114 0.103 1.834 1.837 1.714-1.714zM18.611 6.477l-2.217-2.219-1.143 1.143 2.56 2.562-0.457 0.453-2.131-2.135c-0.171 0.629-0.269 1.352-0.269 2.097 0 0.829 0.121 1.629 0.347 2.384l-0.015-0.059-0.737 0.090c-0.126-0.57-0.198-1.225-0.198-1.896 0-1.071 0.183-2.1 0.52-3.056l-0.020 0.064-0.051-0.051-2.949 2.946-0.48-0.479 2.949-2.946-0.057-0.057c-0.859 0.334-1.853 0.527-2.892 0.527-0.735 0-1.447-0.097-2.125-0.278l0.057 0.013 0.171-0.698c0.697 0.233 1.5 0.368 2.334 0.368 0.746 0 1.467-0.108 2.148-0.309l-0.054 0.014-2.143-2.141 0.457-0.452 2.554 2.562 1.149-1.143-2.171-2.171 0.451-0.453 2.171 2.171 0.886-0.885 0.48 0.478-0.886 0.885 2.211 2.219zM29.097 20.609l-2.754 2.752-0.446-0.446 0.389-0.387-1.977-1.979-0.389 0.387-0.446-0.446 2.754-2.753zM26.726 22.087l1.497-1.499-1.977-1.979-1.497 1.499z"></path>
</svg>
