<!-- Generated by IcoMoon.io -->
<svg version="1.1" xmlns="http://www.w3.org/2000/svg" width="32" height="32" viewBox="0 0 32 32">
<title>workingCheck</title>
<path d="M25.393 23.983c5.295-5.938 4.751-15.044-1.188-20.339s-15.044-4.751-20.339 1.188c-5.295 5.938-4.751 15.044 1.188 20.339 5.246 4.701 13.114 4.85 18.607 0.445l6.384 6.384 1.732-1.633-6.384-6.384zM14.655 26.606c0 0-0.050 0 0 0-6.78 0-12.273-5.493-12.322-12.273 0-6.78 5.493-12.273 12.273-12.273 6.78-0.050 12.273 5.444 12.273 12.223 0.049 6.78-5.444 12.273-12.223 12.322z"></path>
<path d="M10.151 12.799v-2.375h2.177v-1.039h-2.177v-3.217h-1.138v3.217h-2.276v1.039h2.177c-0.495 2.029-1.237 3.959-2.326 5.691 0.198 0.445 0.396 0.94 0.495 1.435 0.891-1.485 1.534-3.019 1.98-4.652v8.957h1.138v-8.858c0.495 0.643 0.94 1.287 1.336 1.979l0.891-0.693c-0.445-0.643-0.94-1.287-1.534-1.979l-0.742 0.495z"></path>
<path d="M18.416 6.514l0.198-0.297h-1.534c-1.138 2.177-2.722 4.058-4.701 5.543 0.346 0.297 0.643 0.643 0.94 0.99 1.732-1.485 3.217-3.217 4.404-5.147 1.188 1.98 2.771 3.662 4.701 4.949 0.297-0.396 0.594-0.792 0.891-1.089-2.078-1.138-3.761-2.87-4.899-4.949z"></path>
<path d="M18.614 6.217v0 0z"></path>
<path d="M21.731 14.333l-1.287-0.396c-0.643 2.425-1.237 4.404-1.782 5.988h-6.136v1.138h10.343v-1.138h-3.019c0.544-1.485 1.188-3.316 1.881-5.592z"></path>
<path d="M13.319 14.63v0c0.445 1.336 0.841 2.771 1.188 4.404l1.188-0.346c-0.445-1.732-0.841-3.167-1.237-4.355l-1.138 0.297z"></path>
<path d="M14.407 11.958h6.582v1.138h-6.582v-1.138z"></path>
<path d="M16.387 13.987c0.396 1.485 0.742 2.969 0.99 4.454l1.188-0.297c-0.297-1.485-0.643-2.969-1.039-4.454l-1.138 0.297z"></path>
</svg>
