<!-- Generated by IcoMoon.io -->
<svg version="1.1" xmlns="http://www.w3.org/2000/svg" width="32" height="32" viewBox="0 0 32 32">
<title>workingPlce</title>
<path d="M16 0c-8.827 0-16 7.173-16 16s7.173 16 16 16 16-7.173 16-16-7.173-16-16-16zM16.267 31.2h-0.533c-8.24 0-14.933-6.693-14.933-14.933v-0.533c0-8.24 6.693-14.933 14.933-14.933h0.533c8.24 0 14.933 6.693 14.933 14.933v0.533c0 8.24-6.693 14.933-14.933 14.933z"></path>
<path d="M14.4 12.267h3.2c0.293 0 0.533-0.24 0.533-0.533v-2.933c0-0.293-0.24-0.533-0.533-0.533h-3.2c0 0 0 0 0 0-0.293 0-0.533 0.24-0.533 0.533v2.933c0 0.293 0.24 0.533 0.533 0.533z"></path>
<path d="M9.333 16.8c0-0.56-0.027-0.8 0.533-0.8h5.867v1.867h0.533v-1.867h5.6c0.56 0 0.773 0.24 0.8 0.8v1.067h0.533v-1.6c0-0.027 0-0.053 0-0.107-0.027-0.427-0.373-0.72-0.8-0.693h-6.133v-2.133h-0.533v2.133h-6.4c0 0 0 0 0 0-0.293 0-0.533 0.24-0.533 0.533v1.867h0.533v-1.067z"></path>
<path d="M10.667 18.933h-3.467c0 0 0 0 0 0-0.293 0-0.533 0.24-0.533 0.533v2.933c0 0.293 0.24 0.533 0.533 0.533h3.467c0.293 0 0.533-0.24 0.533-0.533v-2.933c0-0.293-0.24-0.533-0.533-0.533z"></path>
<path d="M17.6 18.933h-3.2c0 0 0 0 0 0-0.293 0-0.533 0.24-0.533 0.533v2.933c0 0.293 0.24 0.533 0.533 0.533h3.2c0.293 0 0.533-0.24 0.533-0.533v-2.933c0-0.293-0.24-0.533-0.533-0.533z"></path>
<path d="M24.8 18.933h-3.467c0 0 0 0 0 0-0.293 0-0.533 0.24-0.533 0.533v2.933c0 0.293 0.24 0.533 0.533 0.533h3.467c0.293 0 0.533-0.24 0.533-0.533v-2.987c0 0 0-0.027 0-0.027-0.027-0.267-0.267-0.48-0.533-0.453z"></path>
</svg>
