<!-- Generated by IcoMoon.io -->
<svg version="1.1" xmlns="http://www.w3.org/2000/svg" width="32" height="32" viewBox="0 0 32 32">
<title>wsxc</title>
<path fill="#ffac5b" d="M16.187 13.911c2.085-0.080 3.744-1.789 3.744-3.886 0-2.147-1.741-3.888-3.888-3.888s-3.888 1.741-3.888 3.888v0c0.045 2.156 1.803 3.886 3.966 3.886 0.023 0 0.047 0 0.070-0.001h-0.003zM16.187 8.032c1.091 0.013 1.97 0.9 1.97 1.993 0 1.101-0.892 1.993-1.993 1.993s-1.993-0.892-1.993-1.993v0c0.005-1.102 0.9-1.993 2.003-1.993 0.005 0 0.009 0 0.014 0h-0.001zM12.288 19.773c0.050 0.076 0.107 0.142 0.17 0.2l0.001 0.001c0.85 1.021 1.761 1.932 2.75 2.753l0.034 0.028 0.96 0.754 0.955-0.754c1.018-0.849 1.926-1.759 2.746-2.746l0.028-0.034c0.048-0.050 0.096-0.117 0.165-0.201 1.931-2.512 4.347-6.164 4.886-9.312 0.058-0.357 0.094-0.774 0.101-1.199v-0.008c0-0.021 0-0.046 0-0.071 0-2.424-1.017-4.61-2.647-6.156l-0.004-0.004c-1.612-1.545-3.803-2.496-6.216-2.496-0.010 0-0.021 0-0.031 0h0.002c-0.023 0-0.050 0-0.078 0-2.39 0-4.559 0.945-6.155 2.482l0.003-0.003c-1.647 1.557-2.672 3.757-2.672 6.197 0 0.024 0 0.047 0 0.071v-0.004c0.008 0.414 0.044 0.813 0.108 1.204l-0.006-0.048c0.587 3.384 3.307 7.303 4.902 9.346v0zM16.187 2.972c0.019 0 0.041 0 0.063 0 3.624 0 6.564 2.928 6.583 6.547v0.002c-0.009 0.314-0.039 0.615-0.091 0.908l0.005-0.037c-0.432 2.546-2.518 5.694-4.16 7.841-0.014 0.026-0.032 0.048-0.053 0.067v0c-0.713 0.862-1.476 1.63-2.303 2.324l-0.027 0.022c-0.858-0.716-1.623-1.485-2.313-2.317l-0.024-0.029c-0.019-0.019-0.035-0.041-0.047-0.066l-0.001-0.001c-1.696-2.111-3.76-5.276-4.198-7.805-0.046-0.256-0.077-0.556-0.085-0.862v-0.008c0.011-3.638 2.963-6.582 6.603-6.582 0.017 0 0.034 0 0.051 0h-0.003zM6.581 31.464h21.959c0.066 0.005 0.142 0.007 0.22 0.007 1.79 0 3.24-1.451 3.24-3.24s-1.451-3.24-3.24-3.24c-0.077 0-0.154 0.003-0.23 0.008l0.010-0.001h-25.084c-0.024 0.002-0.052 0.003-0.080 0.003-0.61 0-1.112-0.46-1.178-1.052v-0.005c0.055-0.596 0.553-1.059 1.159-1.059 0.035 0 0.070 0.002 0.105 0.005h3.927c0.601 0 1.089-0.487 1.089-1.089s-0.487-1.089-1.089-1.089h-3.931c-0.065-0.005-0.14-0.007-0.216-0.007-1.789 0-3.24 1.45-3.24 3.24s1.45 3.24 3.24 3.24c0.076 0 0.151-0.003 0.226-0.008l-0.010 0.001h25.106c0.024-0.002 0.052-0.003 0.080-0.003 0.61 0 1.112 0.46 1.178 1.052v0.005c-0.055 0.596-0.553 1.060-1.159 1.060-0.035 0-0.070-0.002-0.104-0.005h-21.976c-0.601 0-1.089 0.487-1.089 1.089s0.487 1.089 1.089 1.089v0z"></path>
</svg>
