<!-- Generated by IcoMoon.io -->
<svg version="1.1" xmlns="http://www.w3.org/2000/svg" width="32" height="32" viewBox="0 0 32 32">
<title>wsxc2</title>
<path fill="#ffac5b" d="M16.182 13.922c2.071-0.086 3.718-1.786 3.718-3.87 0-2.139-1.734-3.874-3.874-3.874s-3.873 1.734-3.874 3.873v0c0.049 2.148 1.803 3.871 3.958 3.871 0.025 0 0.050 0 0.075-0.001h-0.004zM16.182 8.066c1.084 0.016 1.957 0.899 1.957 1.985 0 1.097-0.889 1.986-1.986 1.986s-1.986-0.889-1.986-1.986c0 0 0 0 0 0v0c0.008-1.098 0.9-1.985 2-1.985 0.005 0 0.010 0 0.016 0h-0.001zM12.289 19.761c0.049 0.076 0.104 0.141 0.165 0.199h0.001c0.85 1.017 1.762 1.924 2.75 2.741l0.035 0.028 0.96 0.751 0.954-0.751c1.019-0.846 1.927-1.753 2.746-2.736l0.027-0.034c0.047-0.050 0.101-0.119 0.166-0.2 1.932-2.503 4.349-6.139 4.889-9.276 0.057-0.356 0.093-0.771 0.101-1.193v-0.008c0-0.021 0-0.045 0-0.070 0-2.417-1.019-4.597-2.651-6.132l-0.004-0.004c-1.611-1.541-3.8-2.489-6.21-2.489-0.012 0-0.025 0-0.037 0h0.002c-0.023 0-0.050 0-0.078 0-2.388 0-4.556 0.941-6.153 2.472l0.003-0.003c-1.643 1.547-2.667 3.737-2.667 6.166 0 0.025 0 0.051 0 0.076v-0.004c0.008 0.413 0.044 0.811 0.107 1.199l-0.006-0.048c0.587 3.37 3.306 7.274 4.9 9.309v0zM16.182 3.028c0.023 0 0.051-0.001 0.078-0.001 3.612 0 6.543 2.915 6.57 6.521v0.002c-0.008 0.313-0.038 0.612-0.088 0.905l0.005-0.037c-0.438 2.536-2.518 5.672-4.166 7.807-0.012 0.026-0.028 0.048-0.047 0.067v0c-0.714 0.857-1.478 1.621-2.306 2.313l-0.028 0.023c-0.856-0.714-1.621-1.479-2.311-2.307l-0.023-0.029c-0.019-0.019-0.035-0.041-0.047-0.066l-0.001-0.001c-1.701-2.102-3.763-5.255-4.201-7.774-0.045-0.255-0.075-0.555-0.083-0.859v-0.008c0.020-3.625 2.963-6.556 6.591-6.556 0.020 0 0.040 0 0.061 0h-0.003zM6.582 31.402h21.954c0.070 0.005 0.153 0.009 0.235 0.009 1.783 0 3.228-1.445 3.228-3.228s-1.445-3.228-3.228-3.228c-0.083 0-0.165 0.003-0.246 0.009l0.011-0.001h-25.077c-0.025 0.002-0.055 0.003-0.084 0.003-0.608 0-1.11-0.458-1.177-1.049l-0.001-0.005c0.057-0.595 0.554-1.056 1.159-1.056 0.036 0 0.072 0.002 0.108 0.005h3.924c0.3-0.002 0.572-0.122 0.77-0.317v0c0.198-0.196 0.32-0.467 0.32-0.767s-0.122-0.572-0.32-0.767v0c-0.198-0.195-0.47-0.316-0.77-0.317h-3.929c-0.069-0.005-0.15-0.008-0.231-0.008-1.783 0-3.228 1.445-3.228 3.228s1.445 3.228 3.228 3.228c0.081 0 0.162-0.003 0.242-0.009l-0.011 0.001h25.095c0.025-0.002 0.055-0.003 0.084-0.003 0.608 0 1.109 0.458 1.177 1.048l0.001 0.005c-0.057 0.595-0.554 1.056-1.159 1.056-0.036 0-0.072-0.002-0.108-0.005h-21.967c-0.599 0-1.084 0.485-1.084 1.084s0.485 1.084 1.084 1.084v0z"></path>
</svg>
