<!-- Generated by IcoMoon.io -->
<svg version="1.1" xmlns="http://www.w3.org/2000/svg" width="32" height="32" viewBox="0 0 32 32">
<title>yhxx</title>
<path fill="#519ae9" d="M26.95 15.771v-1.736h4.288v1.736h-4.288zM23.33 6.456l3.029-2.971 1.254 1.23-3.029 2.971-1.254-1.23zM24.381 15.238c-0.027 0.423-0.12 0.878-0.251 1.339l0.251 7.804h-16v-9.143c0-4.31 3.225-7.619 7.619-7.619 4.382 0.005 8.094 3.26 8.097 7.574 0 0.162 0.293-0.118 0.284 0.045zM22.857 15.238c0-3.55-3.237-6.095-6.857-6.095s-6.095 2.545-6.095 6.095c0 0.122-0.009 0.64 0 0.762v6.857h12.952v-3.485c-0.057 0.088-0.114 0.18-0.171 0.261l0.168-4.319c0.001-0.004 0.002-0.008 0.003-0.012v-0.064l0.010 0.004c0-0.010-0.003-0.013-0.010-0.004zM22.763 15.586c0.076-0.414 0.094-0.226 0.094-0.348l-0.003 0.076c-0.031 0.131-0.109 0.365-0.091 0.272zM8.381 15.238c0 0.163-0.009-0.163 0 0zM15.322 0h1.771v4.206h-1.771v-4.206zM4.091 4.619l1.254-1.225 3.026 2.966-1.25 1.23-3.029-2.971zM5.050 15.771h-4.288v-1.736h4.288v1.736zM27.429 26.667v1.524h-22.095v-1.524h22.095zM29.714 32h-26.667v-1.524h26.667v1.524z"></path>
</svg>
