<!-- Generated by IcoMoon.io -->
<svg version="1.1" xmlns="http://www.w3.org/2000/svg" width="32" height="32" viewBox="0 0 32 32">
<title>yjt</title>
<path d="M0 16c0-8.823 7.177-16 16-16s16 7.177 16 16c0 8.823-7.177 16-16 16s-16-7.177-16-16v0zM29.714 16c0-7.562-6.152-13.714-13.714-13.714s-13.714 6.152-13.714 13.714c0 7.562 6.152 13.714 13.714 13.714s13.714-6.152 13.714-13.714v0zM17.915 22.517l5.723-5.661c0.338-0.334 0.423-0.827 0.255-1.242-0.010-0.026-0.035-0.047-0.048-0.072-0.053-0.106-0.11-0.213-0.198-0.302-0.001-0.001-0.002-0.001-0.003-0.002s-0.001-0.002-0.002-0.004l-5.676-5.691c-0.446-0.447-1.169-0.448-1.616-0.002-0.224 0.223-0.336 0.517-0.336 0.809s0.111 0.584 0.334 0.807l3.689 3.701h-10.895c-0.632 0-1.143 0.512-1.143 1.143s0.511 1.143 1.143 1.143h10.955l-3.79 3.749c-0.226 0.223-0.339 0.518-0.339 0.812 0 0.29 0.11 0.581 0.33 0.804 0.443 0.449 1.167 0.454 1.616 0.009v0z"></path>
</svg>
