<!-- Generated by IcoMoon.io -->
<svg version="1.1" xmlns="http://www.w3.org/2000/svg" width="32" height="32" viewBox="0 0 32 32">
<title>ywc</title>
<path fill="#41cd87" d="M32 32v-32h-32zM31.669 18.8l-0.446 0.446-1.989-1.992c-0.596 0.638-1.142 1.339-1.622 2.087l-0.035 0.058c-0.091 0.155-0.2 0.349-0.32 0.582 0.985-0.245 1.852-0.6 2.649-1.059l-0.049 0.026 0.234 0.601c-0.913 0.519-1.974 0.918-3.099 1.138l-0.067 0.011c-0.098 0.234-0.183 0.512-0.241 0.799l-0.005 0.029c-0.049 0.128-0.077 0.277-0.077 0.432 0 0.201 0.048 0.39 0.132 0.558l-0.003-0.007c0.126 0.109 0.571-0.114 1.331-0.686l0.189 0.651c-1.017 0.709-1.674 0.914-1.96 0.629-0.214-0.286-0.343-0.647-0.343-1.038 0-0.149 0.019-0.293 0.054-0.431l-0.003 0.012c0.048-0.323 0.121-0.612 0.221-0.889l-0.010 0.031c-0.154 0.013-0.333 0.021-0.514 0.021-0.816 0-1.595-0.153-2.313-0.431l0.044 0.015 0.126-0.647c0.653 0.257 1.41 0.407 2.201 0.407 0.255 0 0.507-0.016 0.754-0.046l-0.030 0.003c0.182-0.406 0.359-0.741 0.555-1.063l-0.024 0.042c0.54-0.871 1.115-1.628 1.753-2.325l-0.011 0.012-2.211-2.219-1.074 1.073 1.583 1.585c-0.681 0.713-1.421 1.358-2.216 1.932l-0.047 0.032c-0.119 0.069-0.262 0.11-0.415 0.11-0.251 0-0.476-0.11-0.63-0.284l-0.001-0.001c-0.086-0.090-0.263-0.282-0.52-0.575l0.274-0.562c0.246 0.267 0.451 0.487 0.623 0.66 0.072 0.063 0.167 0.101 0.27 0.101 0.11 0 0.21-0.043 0.284-0.114v0c0.535-0.43 1.014-0.864 1.467-1.323l0.002-0.002-1.114-1.119-0.194 0.194c-0.937 0.979-2.146 1.69-3.506 2.011l-0.048 0.010-0.034-0.672c1.237-0.308 2.296-0.947 3.111-1.818l0.003-0.004 2.154-2.151 2.669 2.671c0.309-0.336 0.64-0.676 0.983-1.021l0.48 0.479c-0.36 0.358-0.686 0.698-0.983 1.021l1.206 1.21c0.012-0.151 0.019-0.327 0.019-0.504 0-0.354-0.028-0.701-0.081-1.040l0.005 0.038 0.583 0.014c0.058 0.365 0.091 0.785 0.091 1.213 0 0.103-0.002 0.205-0.006 0.308v-0.015h-0.594zM24.251 13.675l-0.469-0.472 0.994-0.995-4.537-4.541-0.994 0.995-0.474-0.472 1.451-1.447 2.48 2.484c0.125-0.236 0.245-0.516 0.342-0.806l0.012-0.041 0.617 0.434q-0.214 0.511-0.446 0.937l2.474 2.478zM12.737 3.726l-1.943 1.938c-0.122 0.092-0.2 0.237-0.2 0.4 0 0.16 0.076 0.303 0.193 0.394l0.001 0.001 3.309 3.314c0.12 0.131 0.285 0.22 0.471 0.239h0.003c0.24 0 0.731-0.338 1.469-1.014l0.309 0.595c-0.863 0.732-1.451 1.111-1.76 1.137-0.319-0.024-0.603-0.163-0.811-0.375l-3.572-3.57c-0.218-0.173-0.356-0.437-0.356-0.734 0-0.312 0.153-0.588 0.387-0.758l0.003-0.002 3.411-3.405 0.463 0.466-0.931 0.93 3.537 3.538 1.686-1.686-4.349-4.353 0.451-0.453 4.823 4.826-2.589 2.585zM19.943 8.869l3.617 3.622-0.451 0.453-3.617-3.622zM17.4 12.183c0.644-0.084 1.209-0.377 1.634-0.807v0l0.046-0.045-1.789-1.792 0.446-0.446 5.629 5.634-0.446 0.446-1.829-1.829-1.531 1.531c-0.094 0.066-0.155 0.174-0.155 0.296 0 0.112 0.051 0.212 0.132 0.279l0.001 0.001 0.863 0.861c0.065 0.076 0.16 0.124 0.267 0.124 0.035 0 0.069-0.005 0.101-0.015l-0.002 0.001c0.381-0.214 0.708-0.467 0.993-0.761l0.001-0.001 0.297 0.582c-0.364 0.4-0.821 0.708-1.337 0.891l-0.023 0.007c-0.003 0-0.006 0-0.009 0-0.261 0-0.494-0.115-0.653-0.297l-0.001-0.001-1.091-1.093c-0.173-0.144-0.283-0.36-0.283-0.601 0-0.264 0.131-0.497 0.332-0.638l0.002-0.002 1.634-1.629-1.086-1.086-0.046 0.045c-0.532 0.545-1.241 0.914-2.035 1.012l-0.017 0.002c-0.895-0.027-1.721-0.3-2.418-0.754l0.018 0.011 0.149-0.678c0.62 0.428 1.376 0.702 2.193 0.753l0.012 0.001z"></path>
</svg>
