<!-- Generated by IcoMoon.io -->
<svg version="1.1" xmlns="http://www.w3.org/2000/svg" width="32" height="32" viewBox="0 0 32 32">
<title>ywzx</title>
<path fill="#7188ea" d="M31.706 26.314l-8.302-8.3c-0.182-0.181-0.433-0.293-0.709-0.293s-0.528 0.112-0.709 0.293v0l-1.051 1.054-1.769-1.765-0.447-3.873-1.715 1.712-9.8-9.8 1.763-1.763-6.274-3.578-2.693 2.695 3.575 6.275 1.763-1.764 9.818 9.814-1.817 1.811 4.106 0.476 1.624 1.624-1.057 1.057c-0.182 0.18-0.294 0.43-0.294 0.706s0.113 0.526 0.294 0.706l8.302 8.302c0.181 0.182 0.432 0.294 0.709 0.294s0.528-0.112 0.709-0.294v0l3.973-3.973c0.182-0.181 0.294-0.432 0.294-0.709s-0.112-0.528-0.294-0.709v0zM26.483 30.076l-6.841-6.841c-0.088-0.088-0.143-0.21-0.143-0.344 0-0.269 0.218-0.487 0.487-0.487 0.134 0 0.256 0.054 0.344 0.143l6.841 6.841c0.088 0.088 0.143 0.21 0.143 0.344 0 0.269-0.218 0.487-0.487 0.487-0.134 0-0.256-0.054-0.344-0.143v0zM27.932 28.627l-6.841-6.841c-0.087-0.089-0.14-0.21-0.14-0.344s0.054-0.256 0.14-0.344v0c0.088-0.089 0.209-0.144 0.344-0.144s0.256 0.055 0.344 0.144l6.847 6.841c0.087 0.089 0.14 0.21 0.14 0.344s-0.054 0.256-0.14 0.344v0c-0.090 0.087-0.212 0.14-0.347 0.14s-0.257-0.054-0.347-0.141v0zM29.387 27.172l-6.841-6.841c-0.089-0.088-0.144-0.209-0.144-0.344s0.055-0.256 0.144-0.344v0c0.088-0.088 0.21-0.143 0.344-0.143s0.256 0.054 0.344 0.143l6.841 6.841c0.087 0.089 0.14 0.21 0.14 0.344s-0.054 0.256-0.14 0.344v0c-0.088 0.089-0.209 0.144-0.344 0.144s-0.256-0.055-0.344-0.144v0zM18.368 9.744l-2.663 2.665c0.095 0.050 0.176 0.111 0.248 0.181v0l0.942 0.941 1.25-1.253c0.181-0.181 0.43-0.293 0.706-0.293s0.526 0.112 0.706 0.293v0l1.582 1.576c0.067 0.070 0.126 0.149 0.172 0.236l0.003 0.006 0.7-0.703c0.677 0.268 1.46 0.423 2.281 0.423 3.509 0 6.354-2.845 6.354-6.354 0-0.561-0.073-1.105-0.209-1.623l0.010 0.044-4.384 4.384c-0.181 0.181-0.43 0.293-0.706 0.293s-0.526-0.112-0.706-0.293v0l-3.158-3.158c-0.182-0.181-0.294-0.431-0.294-0.708s0.113-0.527 0.294-0.708l4.384-4.384c-0.474-0.127-1.019-0.2-1.581-0.2-3.509 0-6.354 2.845-6.354 6.354 0 0.82 0.155 1.604 0.439 2.324l-0.015-0.043zM10.542 24.865l3.568-3.562c-0.093-0.050-0.172-0.111-0.241-0.181l-1.576-1.575c-0.182-0.181-0.294-0.431-0.294-0.708s0.112-0.527 0.294-0.708v0l1.25-1.252-0.942-0.941c-0.069-0.072-0.129-0.153-0.178-0.241l-0.003-0.006-5.525 5.527c-0.438-0.13-0.941-0.205-1.462-0.205-2.935 0-5.313 2.379-5.313 5.313s2.379 5.313 5.313 5.313c2.935 0 5.313-2.379 5.313-5.313 0-0.521-0.075-1.024-0.214-1.499l0.009 0.038zM3.345 28.416c-0.576-0.576-0.933-1.373-0.933-2.252 0-1.759 1.426-3.185 3.185-3.185s3.185 1.426 3.185 3.185c0 0.88-0.357 1.676-0.933 2.252v0c-0.578 0.574-1.373 0.928-2.252 0.928s-1.675-0.355-2.252-0.929v0z"></path>
</svg>
