<!-- Generated by IcoMoon.io -->
<svg version="1.1" xmlns="http://www.w3.org/2000/svg" width="32" height="32" viewBox="0 0 32 32">
<title>zt</title>
<path fill="#519ae9" d="M16 32c-8.823 0-16-7.178-16-16s7.177-16 16-16c8.822 0 16 7.177 16 16s-7.178 16-16 16zM16 1.603c-7.938 0-14.397 6.458-14.397 14.397s6.458 14.397 14.397 14.397c7.938 0 14.397-6.458 14.397-14.397s-6.458-14.397-14.397-14.397zM21.597 17.886c-0.087 0.087-0.183 0.388-0.167 0.505l0.613 3.562c0.105 0.594-0.026 1.145-0.369 1.55-0.304 0.364-0.763 0.574-1.256 0.574-0.311 0-0.633-0.083-0.949-0.247l-3.205-1.683c-0.050-0.025-0.485-0.022-0.526-0.001l-3.203 1.682c-0.824 0.43-1.702 0.278-2.208-0.326-0.338-0.398-0.47-0.948-0.37-1.544l0.614-3.567c0.017-0.115-0.082-0.418-0.163-0.502l-2.589-2.525c-0.544-0.523-0.745-1.218-0.536-1.85 0.201-0.628 0.77-1.070 1.52-1.178l3.578-0.52c0.116-0.021 0.373-0.207 0.428-0.312l1.6-3.24c0.33-0.677 0.927-1.083 1.593-1.083s1.262 0.406 1.594 1.087l1.6 3.239c0.056 0.103 0.312 0.289 0.429 0.31l3.578 0.52c0.749 0.109 1.319 0.551 1.522 1.182 0.201 0.63-0.002 1.321-0.545 1.846l-2.583 2.522zM22.968 13.915l-3.578-0.519c-0.632-0.091-1.35-0.612-1.633-1.185l-1.601-3.242c-0.144-0.293-0.174-0.29-0.314-0.003l-1.602 3.244c-0.283 0.574-1 1.093-1.633 1.185l-3.577 0.521c-0.169 0.026-0.226 0.083-0.228 0.090-0.006 0.017 0.014 0.098 0.128 0.207l2.591 2.526c0.458 0.445 0.733 1.288 0.624 1.919l-0.613 3.564c-0.025 0.149-0.002 0.225 0.016 0.245 0.059 0.006 0.128 0.002 0.246-0.059l3.198-1.682c0.27-0.145 0.63-0.224 1.007-0.224 0.38 0 0.741 0.080 1.014 0.227l3.195 1.678c0.226 0.118 0.242 0.062 0.242 0.062 0.019-0.023 0.042-0.098 0.017-0.245l-0.613-3.567c-0.108-0.634 0.169-1.478 0.63-1.923l2.582-2.52c0.115-0.112 0.139-0.194 0.131-0.21-0.006-0.011-0.067-0.067-0.231-0.090z"></path>
</svg>
