<!-- Generated by IcoMoon.io -->
<svg version="1.1" xmlns="http://www.w3.org/2000/svg" width="32" height="32" viewBox="0 0 32 32">
<title>zu</title>
<path fill="#e87c25" d="M27.429 18.857c-0.837 0-1.611 0.241-2.286 0.634v-0.634h-2.286v-3.429h-0.051c0.986-0.594 1.873-1.377 2.337-2.286 0.835-1.637 1.851-4.751 0.694-5.53l-10.077 8.398c0.888 0.55 2.306 0.589 3.669 0.561 0.648-0.014 1.464-0.219 2.286-0.573v2.858h-3.429v1.143h6.147c-0.37 0.323-0.669 0.719-0.922 1.143h-12.082v1.143h11.591c-0.097 0.366-0.162 0.745-0.162 1.143h-11.429c0-1.152-0.44-2.191-1.143-2.995v-15.29h21.714v18.286c0-2.525-2.047-4.571-4.571-4.571zM13.714 10.857v1.143l2.286 1.143h1.143v-1.143l-2.286-1.143h-1.143zM16 7.429v1.143l2.286 2.286h1.143v-1.143l-2.286-2.286h-1.143zM21.714 7.429l-1.143-1.143h-1.143v1.143l1.143 1.143h1.143v-1.143zM2.286 23.429h-2.286v-9.143l4.571-6.857h4.571v12.063c-0.674-0.393-1.449-0.634-2.286-0.634-2.525 0-4.571 2.047-4.571 4.571zM8 9.714h-3.429l-2.286 3.429v2.286h2.286c0 0 0-2 0-2.286s3.429 0 3.429 0v-3.429zM6.857 20c1.894 0 3.429 1.535 3.429 3.429s-1.535 3.429-3.429 3.429c-1.894 0-3.429-1.535-3.429-3.429s1.535-3.429 3.429-3.429zM25.143 22.286v-1.143h-0.253c0.627-0.697 1.527-1.143 2.538-1.143 1.894 0 3.429 1.535 3.429 3.429s-1.535 3.429-3.429 3.429c-1.894 0-3.429-1.535-3.429-3.429 0-0.403 0.082-0.784 0.21-1.143h0.933z"></path>
</svg>
