<!-- Generated by IcoMoon.io -->
<svg version="1.1" xmlns="http://www.w3.org/2000/svg" width="30" height="32" viewBox="0 0 30 32">
<title>zycx</title>
<path fill="#2fb8ff" d="M29.437 31.467l-0.365 0.375c-0.091 0.098-0.221 0.159-0.364 0.159s-0.273-0.061-0.364-0.158v0l-2.43-2.513c-1.114 0.905-2.549 1.453-4.113 1.453-2.024 0-3.833-0.918-5.034-2.36l-0.009-0.011c-1.027-1.224-1.65-2.816-1.65-4.553 0-1.928 0.768-3.677 2.014-4.957l-0.002 0.002c1.19-1.221 2.85-1.978 4.688-1.978 1.75 0 3.339 0.687 4.513 1.805l-0.003-0.003c1.353 1.295 2.193 3.115 2.193 5.131 0 1.648-0.561 3.164-1.503 4.369l0.012-0.016 2.42 2.501c0.093 0.098 0.15 0.23 0.15 0.376s-0.058 0.281-0.152 0.379v0zM21.808 18.521c-0.053-0.002-0.116-0.003-0.179-0.003-2.946 0-5.334 2.388-5.334 5.334s2.388 5.334 5.334 5.334c2.945 0 5.332-2.386 5.334-5.331v0c0-0.026 0.001-0.058 0.001-0.089 0-2.865-2.297-5.194-5.151-5.245h-0.005zM28.262 13.761c-0.424 0-0.767-0.344-0.767-0.767v-9.354c-0.003-1.168-0.95-2.114-2.119-2.114-0.001 0-0.002 0-0.003 0h-21.71c-0.001 0-0.003 0-0.005 0-1.169 0-2.116 0.946-2.119 2.114v23.137c0.003 1.165 0.949 2.108 2.114 2.108 0.003 0 0.006 0 0.010 0h6.644c0.422 0 0.764 0.342 0.764 0.764s-0.342 0.764-0.764 0.764h-6.645c-0.002 0-0.004 0-0.006 0-2.012 0-3.643-1.626-3.652-3.636v-23.137c0.007-2.012 1.639-3.64 3.652-3.64 0.002 0 0.005 0 0.007 0h21.709c0.001 0 0.003 0 0.005 0 2.013 0 3.645 1.628 3.652 3.64v9.354c0 0.424-0.343 0.767-0.767 0.768v0zM6.071 6.359c0.001-0.422 0.343-0.764 0.765-0.764 0.001 0 0.001 0 0.002 0h15.155c0.422 0 0.764 0.342 0.764 0.764s-0.342 0.764-0.764 0.764h-15.157c0 0 0 0-0.001 0-0.422 0-0.764-0.342-0.765-0.763v0zM17.066 13.151h-10.227c-0.422 0-0.764-0.342-0.764-0.764s0.342-0.764 0.764-0.764h10.23c0.422 0 0.764 0.342 0.764 0.764s-0.342 0.764-0.764 0.764v0zM6.068 18.805c0.001-0.421 0.342-0.761 0.763-0.761 0.002 0 0.003 0 0.005 0h5.302c0.001 0 0.003 0 0.005 0 0.421 0 0.762 0.341 0.762 0.761v0c-0.001 0.421-0.342 0.761-0.762 0.761-0.002 0-0.003 0-0.005 0h-5.302c-0.001 0-0.002 0-0.002 0-0.421 0-0.762-0.341-0.763-0.761v0z"></path>
</svg>
